SplineFontDB: 3.2
FontName: Marksman-Medium
FullName: Marksman Medium
FamilyName: Marksman
Weight: Medium
Copyright: EeveSomepx
Version: 1.00 October 27, 2021, initial release
ItalicAngle: 0
UnderlinePosition: -153
UnderlineWidth: 51
Ascent: 768
Descent: 256
InvalidEm: 0
sfntRevision: 0x00010000
LayerCount: 2
Layer: 0 1 "Back" 1
Layer: 1 1 "Fore" 0
XUID: [1021 840 -1504633643 16365]
StyleMap: 0x0000
FSType: 0
OS2Version: 3
OS2_WeightWidthSlopeOnly: 0
OS2_UseTypoMetrics: 0
CreationTime: 1521275365
ModificationTime: 1720430446
PfmFamily: 17
TTFWeight: 500
TTFWidth: 5
LineGap: 92
VLineGap: 0
Panose: 2 0 6 3 0 0 0 0 0 0
OS2TypoAscent: 768
OS2TypoAOffset: 0
OS2TypoDescent: -256
OS2TypoDOffset: 0
OS2TypoLinegap: 92
OS2WinAscent: 682
OS2WinAOffset: 0
OS2WinDescent: 128
OS2WinDOffset: 0
HheadAscent: 682
HheadAOffset: 0
HheadDescent: -128
HheadDOffset: 0
OS2SubXSize: 665
OS2SubYSize: 716
OS2SubXOff: 0
OS2SubYOff: 143
OS2SupXSize: 665
OS2SupYSize: 716
OS2SupXOff: 0
OS2SupYOff: 491
OS2StrikeYSize: 51
OS2StrikeYPos: 265
OS2CapHeight: 448
OS2XHeight: 320
OS2Vendor: '2ttf'
OS2CodePages: 00000011.00000000
OS2UnicodeRanges: a0000207.00010002.00000000.00000000
DEI: 91125
ShortTable: cvt  2
  34
  648
EndShort
ShortTable: maxp 16
  1
  0
  262
  84
  9
  0
  0
  2
  0
  1
  1
  0
  64
  46
  0
  0
EndShort
LangName: 1033 "" "" "" "Marksman Medium:Version 1.00" "" "Version 1.00 October 27, 2021, initial release"
GaspTable: 1 65535 0 0
Encoding: UnicodeBmp
UnicodeInterp: none
NameList: AGL For New Fonts
DisplaySize: -48
AntiAlias: 1
FitToEm: 0
WinInfo: 152 38 14
BeginChars: 65538 264

StartChar: .notdef
Encoding: 65536 -1 0
Width: 374
GlyphClass: 1
Flags: W
LayerCount: 2
Fore
SplineSet
34 0 m 1,0,-1
 34 682 l 1,1,-1
 306 682 l 1,2,-1
 306 0 l 1,3,-1
 34 0 l 1,0,-1
68 34 m 1,4,-1
 272 34 l 1,5,-1
 272 648 l 1,6,-1
 68 648 l 1,7,-1
 68 34 l 1,4,-1
EndSplineSet
EndChar

StartChar: exclam
Encoding: 33 33 4
Width: 192
GlyphClass: 1
Flags: W
LayerCount: 2
Fore
SplineSet
64 64 m 1,0,-1
 128 64 l 1,1,-1
 128 0 l 1,2,-1
 64 0 l 1,3,-1
 0 0 l 1,4,-1
 0 64 l 1,5,-1
 64 64 l 1,0,-1
64 128 m 1,6,-1
 0 128 l 1,7,-1
 0 192 l 1,8,-1
 0 256 l 1,9,-1
 0 320 l 1,10,-1
 0 384 l 1,11,-1
 0 448 l 1,12,-1
 64 448 l 1,13,-1
 128 448 l 1,14,-1
 128 384 l 1,15,-1
 128 320 l 1,16,-1
 128 256 l 1,17,-1
 128 192 l 1,18,-1
 128 128 l 1,19,-1
 64 128 l 1,6,-1
EndSplineSet
EndChar

StartChar: quotedbl
Encoding: 34 34 5
Width: 320
GlyphClass: 1
Flags: W
LayerCount: 2
Fore
SplineSet
128 256 m 1,0,-1
 128 320 l 1,1,-1
 64 320 l 1,2,-1
 64 256 l 1,3,-1
 0 256 l 1,4,-1
 0 320 l 1,5,-1
 0 384 l 1,6,-1
 64 384 l 1,7,-1
 64 448 l 1,8,-1
 128 448 l 1,9,-1
 128 384 l 1,10,-1
 192 384 l 1,11,-1
 192 448 l 1,12,-1
 256 448 l 1,13,-1
 256 384 l 1,14,-1
 256 320 l 1,15,-1
 192 320 l 1,16,-1
 192 256 l 1,17,-1
 128 256 l 1,0,-1
EndSplineSet
EndChar

StartChar: numbersign
Encoding: 35 35 6
Width: 512
GlyphClass: 1
Flags: W
LayerCount: 2
Fore
SplineSet
320 0 m 1,0,-1
 256 0 l 1,1,-1
 256 64 l 1,2,-1
 192 64 l 1,3,-1
 192 0 l 1,4,-1
 128 0 l 1,5,-1
 64 0 l 1,6,-1
 64 64 l 1,7,-1
 0 64 l 1,8,-1
 0 128 l 1,9,-1
 64 128 l 1,10,-1
 64 192 l 1,11,-1
 64 256 l 1,12,-1
 0 256 l 1,13,-1
 0 320 l 1,14,-1
 64 320 l 1,15,-1
 64 384 l 1,16,-1
 128 384 l 1,17,-1
 192 384 l 1,18,-1
 192 320 l 1,19,-1
 256 320 l 1,20,-1
 256 384 l 1,21,-1
 320 384 l 1,22,-1
 384 384 l 1,23,-1
 384 320 l 1,24,-1
 448 320 l 1,25,-1
 448 256 l 1,26,-1
 384 256 l 1,27,-1
 384 192 l 1,28,-1
 384 128 l 1,29,-1
 448 128 l 1,30,-1
 448 64 l 1,31,-1
 384 64 l 1,32,-1
 384 0 l 1,33,-1
 320 0 l 1,0,-1
256 128 m 1,34,-1
 256 192 l 1,35,-1
 256 256 l 1,36,-1
 192 256 l 1,37,-1
 192 192 l 1,38,-1
 192 128 l 1,39,-1
 256 128 l 1,34,-1
EndSplineSet
EndChar

StartChar: dollar
Encoding: 36 36 7
Width: 448
GlyphClass: 1
Flags: W
LayerCount: 2
Fore
SplineSet
320 320 m 1,0,-1
 320 384 l 1,1,-1
 256 384 l 1,2,-1
 256 320 l 1,3,-1
 256 256 l 1,4,-1
 320 256 l 1,5,-1
 384 256 l 1,6,-1
 384 192 l 1,7,-1
 384 128 l 1,8,-1
 384 64 l 1,9,-1
 320 64 l 1,10,-1
 320 0 l 1,11,-1
 256 0 l 1,12,-1
 192 0 l 1,13,-1
 128 0 l 1,14,-1
 64 0 l 1,15,-1
 0 0 l 1,16,-1
 0 64 l 1,17,-1
 0 128 l 1,18,-1
 64 128 l 1,19,-1
 64 64 l 1,20,-1
 128 64 l 1,21,-1
 128 128 l 1,22,-1
 128 192 l 1,23,-1
 64 192 l 1,24,-1
 0 192 l 1,25,-1
 0 256 l 1,26,-1
 0 320 l 1,27,-1
 0 384 l 1,28,-1
 64 384 l 1,29,-1
 64 448 l 1,30,-1
 128 448 l 1,31,-1
 192 448 l 1,32,-1
 256 448 l 1,33,-1
 320 448 l 1,34,-1
 384 448 l 1,35,-1
 384 384 l 1,36,-1
 384 320 l 1,37,-1
 320 320 l 1,0,-1
256 64 m 1,38,-1
 256 128 l 1,39,-1
 256 192 l 1,40,-1
 192 192 l 1,41,-1
 192 128 l 1,42,-1
 192 64 l 1,43,-1
 256 64 l 1,38,-1
192 256 m 1,44,-1
 192 320 l 1,45,-1
 192 384 l 1,46,-1
 128 384 l 1,47,-1
 128 320 l 1,48,-1
 128 256 l 1,49,-1
 192 256 l 1,44,-1
EndSplineSet
EndChar

StartChar: percent
Encoding: 37 37 8
Width: 384
GlyphClass: 1
Flags: W
LayerCount: 2
Fore
SplineSet
256 64 m 1,0,-1
 256 128 l 1,1,-1
 320 128 l 1,2,-1
 320 64 l 1,3,-1
 256 64 l 1,0,-1
0 320 m 1,4,-1
 0 384 l 1,5,-1
 64 384 l 1,6,-1
 64 320 l 1,7,-1
 0 320 l 1,4,-1
64 64 m 1,8,-1
 0 64 l 1,9,-1
 0 128 l 1,10,-1
 0 192 l 1,11,-1
 64 192 l 1,12,-1
 64 256 l 1,13,-1
 128 256 l 1,14,-1
 128 320 l 1,15,-1
 192 320 l 1,16,-1
 192 384 l 1,17,-1
 256 384 l 1,18,-1
 320 384 l 1,19,-1
 320 320 l 1,20,-1
 320 256 l 1,21,-1
 256 256 l 1,22,-1
 256 192 l 1,23,-1
 192 192 l 1,24,-1
 192 128 l 1,25,-1
 128 128 l 1,26,-1
 128 64 l 1,27,-1
 64 64 l 1,8,-1
EndSplineSet
EndChar

StartChar: ampersand
Encoding: 38 38 9
Width: 448
GlyphClass: 1
Flags: W
LayerCount: 2
Fore
SplineSet
256 256 m 1,0,-1
 256 320 l 1,1,-1
 192 320 l 1,2,-1
 128 320 l 1,3,-1
 128 256 l 1,4,-1
 128 192 l 1,5,-1
 192 192 l 1,6,-1
 192 128 l 1,7,-1
 128 128 l 1,8,-1
 128 64 l 1,9,-1
 192 64 l 1,10,-1
 256 64 l 1,11,-1
 256 128 l 1,12,-1
 256 192 l 1,13,-1
 320 192 l 1,14,-1
 384 192 l 1,15,-1
 384 128 l 1,16,-1
 384 64 l 1,17,-1
 320 64 l 1,18,-1
 320 0 l 1,19,-1
 256 0 l 1,20,-1
 192 0 l 1,21,-1
 128 0 l 1,22,-1
 64 0 l 1,23,-1
 64 64 l 1,24,-1
 0 64 l 1,25,-1
 0 128 l 1,26,-1
 0 192 l 1,27,-1
 64 192 l 1,28,-1
 64 256 l 1,29,-1
 0 256 l 1,30,-1
 0 320 l 1,31,-1
 64 320 l 1,32,-1
 64 384 l 1,33,-1
 128 384 l 1,34,-1
 192 384 l 1,35,-1
 256 384 l 1,36,-1
 320 384 l 1,37,-1
 320 320 l 1,38,-1
 320 256 l 1,39,-1
 256 256 l 1,0,-1
EndSplineSet
EndChar

StartChar: quotesingle
Encoding: 39 39 10
Width: 256
GlyphClass: 1
Flags: W
LayerCount: 2
Fore
SplineSet
64 320 m 1,0,-1
 0 320 l 1,1,-1
 0 384 l 1,2,-1
 64 384 l 1,3,-1
 64 448 l 1,4,-1
 128 448 l 1,5,-1
 192 448 l 1,6,-1
 192 384 l 1,7,-1
 128 384 l 1,8,-1
 128 320 l 1,9,-1
 64 320 l 1,0,-1
EndSplineSet
EndChar

StartChar: parenleft
Encoding: 40 40 11
Width: 256
GlyphClass: 1
Flags: W
LayerCount: 2
Fore
SplineSet
128 -64 m 1,0,-1
 64 -64 l 1,1,-1
 64 0 l 1,2,-1
 0 0 l 1,3,-1
 0 64 l 1,4,-1
 0 128 l 1,5,-1
 0 192 l 1,6,-1
 0 256 l 1,7,-1
 0 320 l 1,8,-1
 0 384 l 1,9,-1
 64 384 l 1,10,-1
 64 448 l 1,11,-1
 128 448 l 1,12,-1
 192 448 l 1,13,-1
 192 384 l 1,14,-1
 128 384 l 1,15,-1
 128 320 l 1,16,-1
 128 256 l 1,17,-1
 128 192 l 1,18,-1
 128 128 l 1,19,-1
 128 64 l 1,20,-1
 128 0 l 1,21,-1
 192 0 l 1,22,-1
 192 -64 l 1,23,-1
 128 -64 l 1,0,-1
EndSplineSet
EndChar

StartChar: parenright
Encoding: 41 41 12
Width: 256
GlyphClass: 1
Flags: W
LayerCount: 2
Fore
SplineSet
64 -64 m 1,0,-1
 0 -64 l 1,1,-1
 0 0 l 1,2,-1
 64 0 l 1,3,-1
 64 64 l 1,4,-1
 64 128 l 1,5,-1
 64 192 l 1,6,-1
 64 256 l 1,7,-1
 64 320 l 1,8,-1
 64 384 l 1,9,-1
 0 384 l 1,10,-1
 0 448 l 1,11,-1
 64 448 l 1,12,-1
 128 448 l 1,13,-1
 128 384 l 1,14,-1
 192 384 l 1,15,-1
 192 320 l 1,16,-1
 192 256 l 1,17,-1
 192 192 l 1,18,-1
 192 128 l 1,19,-1
 192 64 l 1,20,-1
 192 0 l 1,21,-1
 128 0 l 1,22,-1
 128 -64 l 1,23,-1
 64 -64 l 1,0,-1
EndSplineSet
EndChar

StartChar: asterisk
Encoding: 42 42 13
Width: 320
GlyphClass: 1
Flags: W
LayerCount: 2
Fore
SplineSet
0 128 m 1,0,-1
 0 192 l 1,1,-1
 64 192 l 1,2,-1
 64 128 l 1,3,-1
 0 128 l 1,0,-1
192 128 m 1,4,-1
 128 128 l 1,5,-1
 128 192 l 1,6,-1
 64 192 l 1,7,-1
 64 256 l 1,8,-1
 0 256 l 1,9,-1
 0 320 l 1,10,-1
 64 320 l 1,11,-1
 128 320 l 1,12,-1
 128 256 l 1,13,-1
 192 256 l 1,14,-1
 192 192 l 1,15,-1
 256 192 l 1,16,-1
 256 128 l 1,17,-1
 192 128 l 1,4,-1
192 256 m 1,18,-1
 192 320 l 1,19,-1
 256 320 l 1,20,-1
 256 256 l 1,21,-1
 192 256 l 1,18,-1
EndSplineSet
EndChar

StartChar: plus
Encoding: 43 43 14
Width: 320
GlyphClass: 1
Flags: W
LayerCount: 2
Fore
SplineSet
128 128 m 1,0,-1
 64 128 l 1,1,-1
 64 192 l 1,2,-1
 0 192 l 1,3,-1
 0 256 l 1,4,-1
 64 256 l 1,5,-1
 64 320 l 1,6,-1
 128 320 l 1,7,-1
 192 320 l 1,8,-1
 192 256 l 1,9,-1
 256 256 l 1,10,-1
 256 192 l 1,11,-1
 192 192 l 1,12,-1
 192 128 l 1,13,-1
 128 128 l 1,0,-1
EndSplineSet
EndChar

StartChar: comma
Encoding: 44 44 15
Width: 256
GlyphClass: 1
Flags: W
LayerCount: 2
Fore
SplineSet
64 -64 m 1,0,-1
 0 -64 l 1,1,-1
 0 0 l 1,2,-1
 64 0 l 1,3,-1
 64 64 l 1,4,-1
 128 64 l 1,5,-1
 192 64 l 1,6,-1
 192 0 l 1,7,-1
 128 0 l 1,8,-1
 128 -64 l 1,9,-1
 64 -64 l 1,0,-1
EndSplineSet
EndChar

StartChar: hyphen
Encoding: 45 45 16
Width: 320
GlyphClass: 1
Flags: W
LayerCount: 2
Fore
SplineSet
192 256 m 1,0,-1
 256 256 l 1,1,-1
 256 192 l 1,2,-1
 192 192 l 1,3,-1
 128 192 l 1,4,-1
 64 192 l 1,5,-1
 0 192 l 1,6,-1
 0 256 l 1,7,-1
 64 256 l 1,8,-1
 128 256 l 1,9,-1
 192 256 l 1,0,-1
EndSplineSet
EndChar

StartChar: period
Encoding: 46 46 17
Width: 192
GlyphClass: 1
Flags: W
LayerCount: 2
Fore
SplineSet
64 64 m 1,0,-1
 128 64 l 1,1,-1
 128 0 l 1,2,-1
 64 0 l 1,3,-1
 0 0 l 1,4,-1
 0 64 l 1,5,-1
 64 64 l 1,0,-1
EndSplineSet
EndChar

StartChar: slash
Encoding: 47 47 18
Width: 384
GlyphClass: 1
Flags: W
LayerCount: 2
Fore
SplineSet
64 64 m 1,0,-1
 0 64 l 1,1,-1
 0 128 l 1,2,-1
 0 192 l 1,3,-1
 64 192 l 1,4,-1
 64 256 l 1,5,-1
 128 256 l 1,6,-1
 128 320 l 1,7,-1
 192 320 l 1,8,-1
 192 384 l 1,9,-1
 256 384 l 1,10,-1
 320 384 l 1,11,-1
 320 320 l 1,12,-1
 320 256 l 1,13,-1
 256 256 l 1,14,-1
 256 192 l 1,15,-1
 192 192 l 1,16,-1
 192 128 l 1,17,-1
 128 128 l 1,18,-1
 128 64 l 1,19,-1
 64 64 l 1,0,-1
EndSplineSet
EndChar

StartChar: zero
Encoding: 48 48 19
Width: 384
GlyphClass: 1
Flags: W
LayerCount: 2
Fore
SplineSet
192 0 m 1,0,-1
 128 0 l 1,1,-1
 64 0 l 1,2,-1
 64 64 l 1,3,-1
 0 64 l 1,4,-1
 0 128 l 1,5,-1
 0 192 l 1,6,-1
 0 256 l 1,7,-1
 0 320 l 1,8,-1
 64 320 l 1,9,-1
 64 384 l 1,10,-1
 128 384 l 1,11,-1
 192 384 l 1,12,-1
 256 384 l 1,13,-1
 256 320 l 1,14,-1
 320 320 l 1,15,-1
 320 256 l 1,16,-1
 320 192 l 1,17,-1
 320 128 l 1,18,-1
 320 64 l 1,19,-1
 256 64 l 1,20,-1
 256 0 l 1,21,-1
 192 0 l 1,0,-1
192 64 m 1,22,-1
 192 128 l 1,23,-1
 192 192 l 1,24,-1
 192 256 l 1,25,-1
 192 320 l 1,26,-1
 128 320 l 1,27,-1
 128 256 l 1,28,-1
 128 192 l 1,29,-1
 128 128 l 1,30,-1
 128 64 l 1,31,-1
 192 64 l 1,22,-1
EndSplineSet
EndChar

StartChar: one
Encoding: 49 49 20
Width: 384
GlyphClass: 1
Flags: W
LayerCount: 2
Fore
SplineSet
256 0 m 1,0,-1
 192 0 l 1,1,-1
 128 0 l 1,2,-1
 64 0 l 1,3,-1
 0 0 l 1,4,-1
 0 64 l 1,5,-1
 64 64 l 1,6,-1
 128 64 l 1,7,-1
 128 128 l 1,8,-1
 128 192 l 1,9,-1
 64 192 l 1,10,-1
 0 192 l 1,11,-1
 0 256 l 1,12,-1
 64 256 l 1,13,-1
 128 256 l 1,14,-1
 128 320 l 1,15,-1
 128 384 l 1,16,-1
 192 384 l 1,17,-1
 256 384 l 1,18,-1
 256 320 l 1,19,-1
 256 256 l 1,20,-1
 256 192 l 1,21,-1
 256 128 l 1,22,-1
 256 64 l 1,23,-1
 320 64 l 1,24,-1
 320 0 l 1,25,-1
 256 0 l 1,0,-1
EndSplineSet
EndChar

StartChar: two
Encoding: 50 50 21
Width: 384
GlyphClass: 1
Flags: W
LayerCount: 2
Fore
SplineSet
0 256 m 1,0,-1
 0 320 l 1,1,-1
 0 384 l 1,2,-1
 64 384 l 1,3,-1
 128 384 l 1,4,-1
 192 384 l 1,5,-1
 256 384 l 1,6,-1
 256 320 l 1,7,-1
 320 320 l 1,8,-1
 320 256 l 1,9,-1
 320 192 l 1,10,-1
 256 192 l 1,11,-1
 256 128 l 1,12,-1
 192 128 l 1,13,-1
 128 128 l 1,14,-1
 128 64 l 1,15,-1
 192 64 l 1,16,-1
 256 64 l 1,17,-1
 320 64 l 1,18,-1
 320 0 l 1,19,-1
 256 0 l 1,20,-1
 192 0 l 1,21,-1
 128 0 l 1,22,-1
 64 0 l 1,23,-1
 0 0 l 1,24,-1
 0 64 l 1,25,-1
 0 128 l 1,26,-1
 64 128 l 1,27,-1
 64 192 l 1,28,-1
 128 192 l 1,29,-1
 192 192 l 1,30,-1
 192 256 l 1,31,-1
 192 320 l 1,32,-1
 128 320 l 1,33,-1
 64 320 l 1,34,-1
 64 256 l 1,35,-1
 0 256 l 1,0,-1
EndSplineSet
EndChar

StartChar: three
Encoding: 51 51 22
Width: 384
GlyphClass: 1
Flags: W
LayerCount: 2
Fore
SplineSet
0 256 m 1,0,-1
 0 320 l 1,1,-1
 0 384 l 1,2,-1
 64 384 l 1,3,-1
 128 384 l 1,4,-1
 192 384 l 1,5,-1
 256 384 l 1,6,-1
 256 320 l 1,7,-1
 320 320 l 1,8,-1
 320 256 l 1,9,-1
 320 192 l 1,10,-1
 256 192 l 1,11,-1
 256 128 l 1,12,-1
 320 128 l 1,13,-1
 320 64 l 1,14,-1
 256 64 l 1,15,-1
 256 0 l 1,16,-1
 192 0 l 1,17,-1
 128 0 l 1,18,-1
 64 0 l 1,19,-1
 0 0 l 1,20,-1
 0 64 l 1,21,-1
 64 64 l 1,22,-1
 128 64 l 1,23,-1
 192 64 l 1,24,-1
 192 128 l 1,25,-1
 128 128 l 1,26,-1
 64 128 l 1,27,-1
 64 192 l 1,28,-1
 128 192 l 1,29,-1
 192 192 l 1,30,-1
 192 256 l 1,31,-1
 192 320 l 1,32,-1
 128 320 l 1,33,-1
 64 320 l 1,34,-1
 64 256 l 1,35,-1
 0 256 l 1,0,-1
EndSplineSet
EndChar

StartChar: four
Encoding: 52 52 23
Width: 384
GlyphClass: 1
Flags: W
LayerCount: 2
Fore
SplineSet
192 0 m 1,0,-1
 128 0 l 1,1,-1
 128 64 l 1,2,-1
 128 128 l 1,3,-1
 64 128 l 1,4,-1
 0 128 l 1,5,-1
 0 192 l 1,6,-1
 0 256 l 1,7,-1
 64 256 l 1,8,-1
 64 320 l 1,9,-1
 128 320 l 1,10,-1
 128 384 l 1,11,-1
 192 384 l 1,12,-1
 256 384 l 1,13,-1
 256 320 l 1,14,-1
 256 256 l 1,15,-1
 256 192 l 1,16,-1
 320 192 l 1,17,-1
 320 128 l 1,18,-1
 256 128 l 1,19,-1
 256 64 l 1,20,-1
 256 0 l 1,21,-1
 192 0 l 1,0,-1
128 192 m 1,22,-1
 128 256 l 1,23,-1
 64 256 l 1,24,-1
 64 192 l 1,25,-1
 128 192 l 1,22,-1
EndSplineSet
EndChar

StartChar: five
Encoding: 53 53 24
Width: 384
GlyphClass: 1
Flags: W
LayerCount: 2
Fore
SplineSet
192 0 m 1,0,-1
 128 0 l 1,1,-1
 64 0 l 1,2,-1
 0 0 l 1,3,-1
 0 64 l 1,4,-1
 0 128 l 1,5,-1
 64 128 l 1,6,-1
 64 64 l 1,7,-1
 128 64 l 1,8,-1
 192 64 l 1,9,-1
 192 128 l 1,10,-1
 192 192 l 1,11,-1
 128 192 l 1,12,-1
 64 192 l 1,13,-1
 64 256 l 1,14,-1
 0 256 l 1,15,-1
 0 320 l 1,16,-1
 0 384 l 1,17,-1
 64 384 l 1,18,-1
 128 384 l 1,19,-1
 192 384 l 1,20,-1
 256 384 l 1,21,-1
 320 384 l 1,22,-1
 320 320 l 1,23,-1
 256 320 l 1,24,-1
 192 320 l 1,25,-1
 128 320 l 1,26,-1
 128 256 l 1,27,-1
 192 256 l 1,28,-1
 256 256 l 1,29,-1
 256 192 l 1,30,-1
 320 192 l 1,31,-1
 320 128 l 1,32,-1
 320 64 l 1,33,-1
 256 64 l 1,34,-1
 256 0 l 1,35,-1
 192 0 l 1,0,-1
EndSplineSet
EndChar

StartChar: six
Encoding: 54 54 25
Width: 384
GlyphClass: 1
Flags: W
LayerCount: 2
Fore
SplineSet
192 0 m 1,0,-1
 128 0 l 1,1,-1
 64 0 l 1,2,-1
 64 64 l 1,3,-1
 0 64 l 1,4,-1
 0 128 l 1,5,-1
 0 192 l 1,6,-1
 0 256 l 1,7,-1
 0 320 l 1,8,-1
 64 320 l 1,9,-1
 64 384 l 1,10,-1
 128 384 l 1,11,-1
 192 384 l 1,12,-1
 192 320 l 1,13,-1
 128 320 l 1,14,-1
 128 256 l 1,15,-1
 192 256 l 1,16,-1
 256 256 l 1,17,-1
 256 192 l 1,18,-1
 320 192 l 1,19,-1
 320 128 l 1,20,-1
 320 64 l 1,21,-1
 256 64 l 1,22,-1
 256 0 l 1,23,-1
 192 0 l 1,0,-1
192 64 m 1,24,-1
 192 128 l 1,25,-1
 192 192 l 1,26,-1
 128 192 l 1,27,-1
 128 128 l 1,28,-1
 128 64 l 1,29,-1
 192 64 l 1,24,-1
EndSplineSet
EndChar

StartChar: seven
Encoding: 55 55 26
Width: 384
GlyphClass: 1
Flags: W
LayerCount: 2
Fore
SplineSet
128 0 m 1,0,-1
 64 0 l 1,1,-1
 64 64 l 1,2,-1
 64 128 l 1,3,-1
 64 192 l 1,4,-1
 128 192 l 1,5,-1
 128 256 l 1,6,-1
 192 256 l 1,7,-1
 192 320 l 1,8,-1
 128 320 l 1,9,-1
 64 320 l 1,10,-1
 0 320 l 1,11,-1
 0 384 l 1,12,-1
 64 384 l 1,13,-1
 128 384 l 1,14,-1
 192 384 l 1,15,-1
 256 384 l 1,16,-1
 320 384 l 1,17,-1
 320 320 l 1,18,-1
 320 256 l 1,19,-1
 256 256 l 1,20,-1
 256 192 l 1,21,-1
 192 192 l 1,22,-1
 192 128 l 1,23,-1
 192 64 l 1,24,-1
 192 0 l 1,25,-1
 128 0 l 1,0,-1
EndSplineSet
EndChar

StartChar: eight
Encoding: 56 56 27
Width: 384
GlyphClass: 1
Flags: W
LayerCount: 2
Fore
SplineSet
192 0 m 1,0,-1
 128 0 l 1,1,-1
 64 0 l 1,2,-1
 64 64 l 1,3,-1
 0 64 l 1,4,-1
 0 128 l 1,5,-1
 0 192 l 1,6,-1
 64 192 l 1,7,-1
 64 256 l 1,8,-1
 0 256 l 1,9,-1
 0 320 l 1,10,-1
 64 320 l 1,11,-1
 64 384 l 1,12,-1
 128 384 l 1,13,-1
 192 384 l 1,14,-1
 256 384 l 1,15,-1
 256 320 l 1,16,-1
 320 320 l 1,17,-1
 320 256 l 1,18,-1
 256 256 l 1,19,-1
 256 192 l 1,20,-1
 320 192 l 1,21,-1
 320 128 l 1,22,-1
 320 64 l 1,23,-1
 256 64 l 1,24,-1
 256 0 l 1,25,-1
 192 0 l 1,0,-1
192 64 m 1,26,-1
 192 128 l 1,27,-1
 192 192 l 1,28,-1
 128 192 l 1,29,-1
 128 128 l 1,30,-1
 128 64 l 1,31,-1
 192 64 l 1,26,-1
192 256 m 1,32,-1
 192 320 l 1,33,-1
 128 320 l 1,34,-1
 128 256 l 1,35,-1
 192 256 l 1,32,-1
EndSplineSet
EndChar

StartChar: nine
Encoding: 57 57 28
Width: 384
GlyphClass: 1
Flags: W
LayerCount: 2
Fore
SplineSet
192 0 m 1,0,-1
 128 0 l 1,1,-1
 64 0 l 1,2,-1
 64 64 l 1,3,-1
 128 64 l 1,4,-1
 192 64 l 1,5,-1
 192 128 l 1,6,-1
 128 128 l 1,7,-1
 64 128 l 1,8,-1
 64 192 l 1,9,-1
 0 192 l 1,10,-1
 0 256 l 1,11,-1
 0 320 l 1,12,-1
 64 320 l 1,13,-1
 64 384 l 1,14,-1
 128 384 l 1,15,-1
 192 384 l 1,16,-1
 256 384 l 1,17,-1
 256 320 l 1,18,-1
 320 320 l 1,19,-1
 320 256 l 1,20,-1
 320 192 l 1,21,-1
 320 128 l 1,22,-1
 320 64 l 1,23,-1
 256 64 l 1,24,-1
 256 0 l 1,25,-1
 192 0 l 1,0,-1
192 192 m 1,26,-1
 192 256 l 1,27,-1
 192 320 l 1,28,-1
 128 320 l 1,29,-1
 128 256 l 1,30,-1
 128 192 l 1,31,-1
 192 192 l 1,26,-1
EndSplineSet
EndChar

StartChar: colon
Encoding: 58 58 29
Width: 192
GlyphClass: 1
Flags: W
LayerCount: 2
Fore
SplineSet
64 128 m 1,0,-1
 128 128 l 1,1,-1
 128 64 l 1,2,-1
 64 64 l 1,3,-1
 0 64 l 1,4,-1
 0 128 l 1,5,-1
 64 128 l 1,0,-1
64 256 m 1,6,-1
 128 256 l 1,7,-1
 128 192 l 1,8,-1
 64 192 l 1,9,-1
 0 192 l 1,10,-1
 0 256 l 1,11,-1
 64 256 l 1,6,-1
EndSplineSet
EndChar

StartChar: semicolon
Encoding: 59 59 30
Width: 256
GlyphClass: 1
Flags: W
LayerCount: 2
Fore
SplineSet
64 -64 m 1,0,-1
 0 -64 l 1,1,-1
 0 0 l 1,2,-1
 64 0 l 1,3,-1
 64 64 l 1,4,-1
 128 64 l 1,5,-1
 192 64 l 1,6,-1
 192 0 l 1,7,-1
 128 0 l 1,8,-1
 128 -64 l 1,9,-1
 64 -64 l 1,0,-1
128 192 m 1,10,-1
 192 192 l 1,11,-1
 192 128 l 1,12,-1
 128 128 l 1,13,-1
 64 128 l 1,14,-1
 64 192 l 1,15,-1
 128 192 l 1,10,-1
EndSplineSet
EndChar

StartChar: less
Encoding: 60 60 31
Width: 256
GlyphClass: 1
Flags: W
LayerCount: 2
Fore
SplineSet
128 64 m 1,0,-1
 128 128 l 1,1,-1
 64 128 l 1,2,-1
 64 192 l 1,3,-1
 0 192 l 1,4,-1
 0 256 l 1,5,-1
 64 256 l 1,6,-1
 64 320 l 1,7,-1
 128 320 l 1,8,-1
 128 384 l 1,9,-1
 192 384 l 1,10,-1
 192 320 l 1,11,-1
 192 256 l 1,12,-1
 192 192 l 1,13,-1
 192 128 l 1,14,-1
 192 64 l 1,15,-1
 128 64 l 1,0,-1
EndSplineSet
EndChar

StartChar: equal
Encoding: 61 61 32
Width: 320
GlyphClass: 1
Flags: W
LayerCount: 2
Fore
SplineSet
192 192 m 1,0,-1
 256 192 l 1,1,-1
 256 128 l 1,2,-1
 192 128 l 1,3,-1
 128 128 l 1,4,-1
 64 128 l 1,5,-1
 0 128 l 1,6,-1
 0 192 l 1,7,-1
 64 192 l 1,8,-1
 128 192 l 1,9,-1
 192 192 l 1,0,-1
192 320 m 1,10,-1
 256 320 l 1,11,-1
 256 256 l 1,12,-1
 192 256 l 1,13,-1
 128 256 l 1,14,-1
 64 256 l 1,15,-1
 0 256 l 1,16,-1
 0 320 l 1,17,-1
 64 320 l 1,18,-1
 128 320 l 1,19,-1
 192 320 l 1,10,-1
EndSplineSet
EndChar

StartChar: greater
Encoding: 62 62 33
Width: 256
GlyphClass: 1
Flags: W
LayerCount: 2
Fore
SplineSet
0 64 m 1,0,-1
 0 128 l 1,1,-1
 0 192 l 1,2,-1
 0 256 l 1,3,-1
 0 320 l 1,4,-1
 0 384 l 1,5,-1
 64 384 l 1,6,-1
 64 320 l 1,7,-1
 128 320 l 1,8,-1
 128 256 l 1,9,-1
 192 256 l 1,10,-1
 192 192 l 1,11,-1
 128 192 l 1,12,-1
 128 128 l 1,13,-1
 64 128 l 1,14,-1
 64 64 l 1,15,-1
 0 64 l 1,0,-1
EndSplineSet
EndChar

StartChar: question
Encoding: 63 63 34
Width: 384
GlyphClass: 1
Flags: W
LayerCount: 2
Fore
SplineSet
128 64 m 1,0,-1
 192 64 l 1,1,-1
 192 0 l 1,2,-1
 128 0 l 1,3,-1
 64 0 l 1,4,-1
 64 64 l 1,5,-1
 128 64 l 1,0,-1
128 128 m 1,6,-1
 64 128 l 1,7,-1
 64 192 l 1,8,-1
 64 256 l 1,9,-1
 128 256 l 1,10,-1
 128 320 l 1,11,-1
 192 320 l 1,12,-1
 192 384 l 1,13,-1
 128 384 l 1,14,-1
 64 384 l 1,15,-1
 0 384 l 1,16,-1
 0 448 l 1,17,-1
 64 448 l 1,18,-1
 128 448 l 1,19,-1
 192 448 l 1,20,-1
 256 448 l 1,21,-1
 256 384 l 1,22,-1
 320 384 l 1,23,-1
 320 320 l 1,24,-1
 256 320 l 1,25,-1
 256 256 l 1,26,-1
 192 256 l 1,27,-1
 192 192 l 1,28,-1
 192 128 l 1,29,-1
 128 128 l 1,6,-1
EndSplineSet
EndChar

StartChar: at
Encoding: 64 64 35
Width: 768
GlyphClass: 1
Flags: W
LayerCount: 2
Fore
SplineSet
128 -64 m 1,0,-1
 64 -64 l 1,1,-1
 64 0 l 1,2,-1
 0 0 l 1,3,-1
 0 64 l 1,4,-1
 0 128 l 1,5,-1
 0 192 l 1,6,-1
 0 256 l 1,7,-1
 0 320 l 1,8,-1
 64 320 l 1,9,-1
 64 384 l 1,10,-1
 128 384 l 1,11,-1
 128 448 l 1,12,-1
 192 448 l 1,13,-1
 256 448 l 1,14,-1
 320 448 l 1,15,-1
 384 448 l 1,16,-1
 448 448 l 1,17,-1
 512 448 l 1,18,-1
 576 448 l 1,19,-1
 576 384 l 1,20,-1
 640 384 l 1,21,-1
 640 320 l 1,22,-1
 704 320 l 1,23,-1
 704 256 l 1,24,-1
 704 192 l 1,25,-1
 704 128 l 1,26,-1
 640 128 l 1,27,-1
 640 64 l 1,28,-1
 576 64 l 1,29,-1
 576 0 l 1,30,-1
 512 0 l 1,31,-1
 448 0 l 1,32,-1
 448 64 l 1,33,-1
 384 64 l 1,34,-1
 384 128 l 1,35,-1
 320 128 l 1,36,-1
 320 64 l 1,37,-1
 384 64 l 1,38,-1
 384 0 l 1,39,-1
 320 0 l 1,40,-1
 256 0 l 1,41,-1
 256 64 l 1,42,-1
 192 64 l 1,43,-1
 192 128 l 1,44,-1
 256 128 l 1,45,-1
 256 192 l 1,46,-1
 320 192 l 1,47,-1
 384 192 l 1,48,-1
 384 256 l 1,49,-1
 320 256 l 1,50,-1
 256 256 l 1,51,-1
 256 320 l 1,52,-1
 320 320 l 1,53,-1
 384 320 l 1,54,-1
 448 320 l 1,55,-1
 448 256 l 1,56,-1
 512 256 l 1,57,-1
 512 192 l 1,58,-1
 512 128 l 1,59,-1
 576 128 l 1,60,-1
 576 192 l 1,61,-1
 576 256 l 1,62,-1
 576 320 l 1,63,-1
 512 320 l 1,64,-1
 512 384 l 1,65,-1
 448 384 l 1,66,-1
 384 384 l 1,67,-1
 320 384 l 1,68,-1
 256 384 l 1,69,-1
 192 384 l 1,70,-1
 192 320 l 1,71,-1
 128 320 l 1,72,-1
 128 256 l 1,73,-1
 128 192 l 1,74,-1
 128 128 l 1,75,-1
 128 64 l 1,76,-1
 128 0 l 1,77,-1
 192 0 l 1,78,-1
 192 -64 l 1,79,-1
 128 -64 l 1,0,-1
EndSplineSet
EndChar

StartChar: A
Encoding: 65 65 36
Width: 448
GlyphClass: 1
Flags: W
LayerCount: 2
Fore
SplineSet
320 0 m 1,0,-1
 256 0 l 1,1,-1
 256 64 l 1,2,-1
 256 128 l 1,3,-1
 192 128 l 1,4,-1
 128 128 l 1,5,-1
 128 64 l 1,6,-1
 128 0 l 1,7,-1
 64 0 l 1,8,-1
 0 0 l 1,9,-1
 0 64 l 1,10,-1
 0 128 l 1,11,-1
 64 128 l 1,12,-1
 64 192 l 1,13,-1
 64 256 l 1,14,-1
 128 256 l 1,15,-1
 128 320 l 1,16,-1
 128 384 l 1,17,-1
 192 384 l 1,18,-1
 192 448 l 1,19,-1
 256 448 l 1,20,-1
 320 448 l 1,21,-1
 384 448 l 1,22,-1
 384 384 l 1,23,-1
 384 320 l 1,24,-1
 384 256 l 1,25,-1
 384 192 l 1,26,-1
 384 128 l 1,27,-1
 384 64 l 1,28,-1
 384 0 l 1,29,-1
 320 0 l 1,0,-1
256 192 m 1,30,-1
 256 256 l 1,31,-1
 256 320 l 1,32,-1
 256 384 l 1,33,-1
 192 384 l 1,34,-1
 192 320 l 1,35,-1
 192 256 l 1,36,-1
 192 192 l 1,37,-1
 256 192 l 1,30,-1
EndSplineSet
EndChar

StartChar: B
Encoding: 66 66 37
Width: 512
GlyphClass: 1
Flags: W
LayerCount: 2
Fore
SplineSet
320 0 m 1,0,-1
 256 0 l 1,1,-1
 192 0 l 1,2,-1
 128 0 l 1,3,-1
 64 0 l 1,4,-1
 0 0 l 1,5,-1
 0 64 l 1,6,-1
 64 64 l 1,7,-1
 64 128 l 1,8,-1
 64 192 l 1,9,-1
 64 256 l 1,10,-1
 64 320 l 1,11,-1
 64 384 l 1,12,-1
 0 384 l 1,13,-1
 0 448 l 1,14,-1
 64 448 l 1,15,-1
 128 448 l 1,16,-1
 192 448 l 1,17,-1
 256 448 l 1,18,-1
 320 448 l 1,19,-1
 384 448 l 1,20,-1
 384 384 l 1,21,-1
 448 384 l 1,22,-1
 448 320 l 1,23,-1
 448 256 l 1,24,-1
 448 192 l 1,25,-1
 384 192 l 1,26,-1
 384 128 l 1,27,-1
 448 128 l 1,28,-1
 448 64 l 1,29,-1
 384 64 l 1,30,-1
 384 0 l 1,31,-1
 320 0 l 1,0,-1
256 64 m 1,32,-1
 320 64 l 1,33,-1
 320 128 l 1,34,-1
 256 128 l 1,35,-1
 192 128 l 1,36,-1
 192 64 l 1,37,-1
 256 64 l 1,32,-1
256 192 m 1,38,-1
 320 192 l 1,39,-1
 320 256 l 1,40,-1
 320 320 l 1,41,-1
 320 384 l 1,42,-1
 256 384 l 1,43,-1
 192 384 l 1,44,-1
 128 384 l 1,45,-1
 128 320 l 1,46,-1
 192 320 l 1,47,-1
 192 256 l 1,48,-1
 192 192 l 1,49,-1
 256 192 l 1,38,-1
EndSplineSet
EndChar

StartChar: C
Encoding: 67 67 38
Width: 448
GlyphClass: 1
Flags: W
LayerCount: 2
Fore
SplineSet
320 320 m 1,0,-1
 320 384 l 1,1,-1
 256 384 l 1,2,-1
 192 384 l 1,3,-1
 128 384 l 1,4,-1
 128 320 l 1,5,-1
 128 256 l 1,6,-1
 128 192 l 1,7,-1
 128 128 l 1,8,-1
 128 64 l 1,9,-1
 192 64 l 1,10,-1
 256 64 l 1,11,-1
 320 64 l 1,12,-1
 320 128 l 1,13,-1
 384 128 l 1,14,-1
 384 64 l 1,15,-1
 384 0 l 1,16,-1
 320 0 l 1,17,-1
 256 0 l 1,18,-1
 192 0 l 1,19,-1
 128 0 l 1,20,-1
 64 0 l 1,21,-1
 64 64 l 1,22,-1
 0 64 l 1,23,-1
 0 128 l 1,24,-1
 0 192 l 1,25,-1
 0 256 l 1,26,-1
 0 320 l 1,27,-1
 0 384 l 1,28,-1
 64 384 l 1,29,-1
 64 448 l 1,30,-1
 128 448 l 1,31,-1
 192 448 l 1,32,-1
 256 448 l 1,33,-1
 320 448 l 1,34,-1
 384 448 l 1,35,-1
 384 384 l 1,36,-1
 384 320 l 1,37,-1
 320 320 l 1,0,-1
EndSplineSet
EndChar

StartChar: D
Encoding: 68 68 39
Width: 512
GlyphClass: 1
Flags: W
LayerCount: 2
Fore
SplineSet
320 0 m 1,0,-1
 256 0 l 1,1,-1
 192 0 l 1,2,-1
 128 0 l 1,3,-1
 64 0 l 1,4,-1
 0 0 l 1,5,-1
 0 64 l 1,6,-1
 64 64 l 1,7,-1
 64 128 l 1,8,-1
 64 192 l 1,9,-1
 64 256 l 1,10,-1
 64 320 l 1,11,-1
 64 384 l 1,12,-1
 0 384 l 1,13,-1
 0 448 l 1,14,-1
 64 448 l 1,15,-1
 128 448 l 1,16,-1
 192 448 l 1,17,-1
 256 448 l 1,18,-1
 320 448 l 1,19,-1
 384 448 l 1,20,-1
 384 384 l 1,21,-1
 448 384 l 1,22,-1
 448 320 l 1,23,-1
 448 256 l 1,24,-1
 448 192 l 1,25,-1
 448 128 l 1,26,-1
 448 64 l 1,27,-1
 384 64 l 1,28,-1
 384 0 l 1,29,-1
 320 0 l 1,0,-1
256 64 m 1,30,-1
 320 64 l 1,31,-1
 320 128 l 1,32,-1
 320 192 l 1,33,-1
 320 256 l 1,34,-1
 320 320 l 1,35,-1
 320 384 l 1,36,-1
 256 384 l 1,37,-1
 192 384 l 1,38,-1
 128 384 l 1,39,-1
 128 320 l 1,40,-1
 192 320 l 1,41,-1
 192 256 l 1,42,-1
 192 192 l 1,43,-1
 192 128 l 1,44,-1
 192 64 l 1,45,-1
 256 64 l 1,30,-1
EndSplineSet
EndChar

StartChar: E
Encoding: 69 69 40
Width: 448
GlyphClass: 1
Flags: W
LayerCount: 2
Fore
SplineSet
320 64 m 1,0,-1
 384 64 l 1,1,-1
 384 0 l 1,2,-1
 320 0 l 1,3,-1
 256 0 l 1,4,-1
 192 0 l 1,5,-1
 128 0 l 1,6,-1
 64 0 l 1,7,-1
 0 0 l 1,8,-1
 0 64 l 1,9,-1
 0 128 l 1,10,-1
 0 192 l 1,11,-1
 0 256 l 1,12,-1
 0 320 l 1,13,-1
 0 384 l 1,14,-1
 0 448 l 1,15,-1
 64 448 l 1,16,-1
 128 448 l 1,17,-1
 192 448 l 1,18,-1
 256 448 l 1,19,-1
 320 448 l 1,20,-1
 384 448 l 1,21,-1
 384 384 l 1,22,-1
 320 384 l 1,23,-1
 256 384 l 1,24,-1
 192 384 l 1,25,-1
 128 384 l 1,26,-1
 64 384 l 1,27,-1
 64 320 l 1,28,-1
 128 320 l 1,29,-1
 128 256 l 1,30,-1
 128 192 l 1,31,-1
 192 192 l 1,32,-1
 256 192 l 1,33,-1
 320 192 l 1,34,-1
 320 128 l 1,35,-1
 256 128 l 1,36,-1
 192 128 l 1,37,-1
 128 128 l 1,38,-1
 128 64 l 1,39,-1
 192 64 l 1,40,-1
 256 64 l 1,41,-1
 320 64 l 1,0,-1
EndSplineSet
EndChar

StartChar: F
Encoding: 70 70 41
Width: 448
GlyphClass: 1
Flags: W
LayerCount: 2
Fore
SplineSet
64 0 m 1,0,-1
 0 0 l 1,1,-1
 0 64 l 1,2,-1
 0 128 l 1,3,-1
 0 192 l 1,4,-1
 0 256 l 1,5,-1
 0 320 l 1,6,-1
 0 384 l 1,7,-1
 0 448 l 1,8,-1
 64 448 l 1,9,-1
 128 448 l 1,10,-1
 192 448 l 1,11,-1
 256 448 l 1,12,-1
 320 448 l 1,13,-1
 384 448 l 1,14,-1
 384 384 l 1,15,-1
 320 384 l 1,16,-1
 256 384 l 1,17,-1
 192 384 l 1,18,-1
 128 384 l 1,19,-1
 64 384 l 1,20,-1
 64 320 l 1,21,-1
 128 320 l 1,22,-1
 128 256 l 1,23,-1
 128 192 l 1,24,-1
 192 192 l 1,25,-1
 256 192 l 1,26,-1
 320 192 l 1,27,-1
 320 128 l 1,28,-1
 256 128 l 1,29,-1
 192 128 l 1,30,-1
 128 128 l 1,31,-1
 128 64 l 1,32,-1
 128 0 l 1,33,-1
 64 0 l 1,0,-1
EndSplineSet
EndChar

StartChar: G
Encoding: 71 71 42
Width: 512
GlyphClass: 1
Flags: W
LayerCount: 2
Fore
SplineSet
320 320 m 1,0,-1
 320 384 l 1,1,-1
 256 384 l 1,2,-1
 192 384 l 1,3,-1
 128 384 l 1,4,-1
 128 320 l 1,5,-1
 128 256 l 1,6,-1
 128 192 l 1,7,-1
 128 128 l 1,8,-1
 128 64 l 1,9,-1
 192 64 l 1,10,-1
 256 64 l 1,11,-1
 320 64 l 1,12,-1
 320 128 l 1,13,-1
 256 128 l 1,14,-1
 192 128 l 1,15,-1
 192 192 l 1,16,-1
 256 192 l 1,17,-1
 320 192 l 1,18,-1
 384 192 l 1,19,-1
 384 128 l 1,20,-1
 448 128 l 1,21,-1
 448 64 l 1,22,-1
 384 64 l 1,23,-1
 384 0 l 1,24,-1
 320 0 l 1,25,-1
 256 0 l 1,26,-1
 192 0 l 1,27,-1
 128 0 l 1,28,-1
 64 0 l 1,29,-1
 64 64 l 1,30,-1
 0 64 l 1,31,-1
 0 128 l 1,32,-1
 0 192 l 1,33,-1
 0 256 l 1,34,-1
 0 320 l 1,35,-1
 0 384 l 1,36,-1
 64 384 l 1,37,-1
 64 448 l 1,38,-1
 128 448 l 1,39,-1
 192 448 l 1,40,-1
 256 448 l 1,41,-1
 320 448 l 1,42,-1
 384 448 l 1,43,-1
 384 384 l 1,44,-1
 384 320 l 1,45,-1
 320 320 l 1,0,-1
EndSplineSet
EndChar

StartChar: H
Encoding: 72 72 43
Width: 448
GlyphClass: 1
Flags: W
LayerCount: 2
Fore
SplineSet
320 0 m 1,0,-1
 256 0 l 1,1,-1
 256 64 l 1,2,-1
 256 128 l 1,3,-1
 192 128 l 1,4,-1
 128 128 l 1,5,-1
 64 128 l 1,6,-1
 64 64 l 1,7,-1
 128 64 l 1,8,-1
 128 0 l 1,9,-1
 64 0 l 1,10,-1
 0 0 l 1,11,-1
 0 64 l 1,12,-1
 0 128 l 1,13,-1
 0 192 l 1,14,-1
 0 256 l 1,15,-1
 0 320 l 1,16,-1
 0 384 l 1,17,-1
 0 448 l 1,18,-1
 64 448 l 1,19,-1
 128 448 l 1,20,-1
 128 384 l 1,21,-1
 128 320 l 1,22,-1
 128 256 l 1,23,-1
 128 192 l 1,24,-1
 192 192 l 1,25,-1
 256 192 l 1,26,-1
 256 256 l 1,27,-1
 256 320 l 1,28,-1
 256 384 l 1,29,-1
 256 448 l 1,30,-1
 320 448 l 1,31,-1
 384 448 l 1,32,-1
 384 384 l 1,33,-1
 384 320 l 1,34,-1
 384 256 l 1,35,-1
 384 192 l 1,36,-1
 384 128 l 1,37,-1
 384 64 l 1,38,-1
 384 0 l 1,39,-1
 320 0 l 1,0,-1
EndSplineSet
EndChar

StartChar: I
Encoding: 73 73 44
Width: 320
GlyphClass: 1
Flags: W
LayerCount: 2
Fore
SplineSet
192 0 m 1,0,-1
 128 0 l 1,1,-1
 64 0 l 1,2,-1
 0 0 l 1,3,-1
 0 64 l 1,4,-1
 64 64 l 1,5,-1
 64 128 l 1,6,-1
 64 192 l 1,7,-1
 64 256 l 1,8,-1
 64 320 l 1,9,-1
 64 384 l 1,10,-1
 0 384 l 1,11,-1
 0 448 l 1,12,-1
 64 448 l 1,13,-1
 128 448 l 1,14,-1
 192 448 l 1,15,-1
 256 448 l 1,16,-1
 256 384 l 1,17,-1
 192 384 l 1,18,-1
 128 384 l 1,19,-1
 128 320 l 1,20,-1
 192 320 l 1,21,-1
 192 256 l 1,22,-1
 192 192 l 1,23,-1
 192 128 l 1,24,-1
 192 64 l 1,25,-1
 256 64 l 1,26,-1
 256 0 l 1,27,-1
 192 0 l 1,0,-1
EndSplineSet
EndChar

StartChar: J
Encoding: 74 74 45
Width: 448
GlyphClass: 1
Flags: W
LayerCount: 2
Fore
SplineSet
256 0 m 1,0,-1
 192 0 l 1,1,-1
 128 0 l 1,2,-1
 64 0 l 1,3,-1
 0 0 l 1,4,-1
 0 64 l 1,5,-1
 0 128 l 1,6,-1
 64 128 l 1,7,-1
 64 64 l 1,8,-1
 128 64 l 1,9,-1
 192 64 l 1,10,-1
 256 64 l 1,11,-1
 256 128 l 1,12,-1
 256 192 l 1,13,-1
 256 256 l 1,14,-1
 256 320 l 1,15,-1
 256 384 l 1,16,-1
 192 384 l 1,17,-1
 192 448 l 1,18,-1
 256 448 l 1,19,-1
 320 448 l 1,20,-1
 384 448 l 1,21,-1
 384 384 l 1,22,-1
 320 384 l 1,23,-1
 320 320 l 1,24,-1
 384 320 l 1,25,-1
 384 256 l 1,26,-1
 384 192 l 1,27,-1
 384 128 l 1,28,-1
 384 64 l 1,29,-1
 320 64 l 1,30,-1
 320 0 l 1,31,-1
 256 0 l 1,0,-1
EndSplineSet
EndChar

StartChar: K
Encoding: 75 75 46
Width: 448
GlyphClass: 1
Flags: W
LayerCount: 2
Fore
SplineSet
320 0 m 1,0,-1
 256 0 l 1,1,-1
 256 64 l 1,2,-1
 256 128 l 1,3,-1
 256 192 l 1,4,-1
 320 192 l 1,5,-1
 320 128 l 1,6,-1
 384 128 l 1,7,-1
 384 64 l 1,8,-1
 384 0 l 1,9,-1
 320 0 l 1,0,-1
64 0 m 1,10,-1
 0 0 l 1,11,-1
 0 64 l 1,12,-1
 0 128 l 1,13,-1
 0 192 l 1,14,-1
 0 256 l 1,15,-1
 0 320 l 1,16,-1
 0 384 l 1,17,-1
 0 448 l 1,18,-1
 64 448 l 1,19,-1
 128 448 l 1,20,-1
 128 384 l 1,21,-1
 128 320 l 1,22,-1
 128 256 l 1,23,-1
 128 192 l 1,24,-1
 192 192 l 1,25,-1
 192 128 l 1,26,-1
 128 128 l 1,27,-1
 64 128 l 1,28,-1
 64 64 l 1,29,-1
 128 64 l 1,30,-1
 128 0 l 1,31,-1
 64 0 l 1,10,-1
256 192 m 1,32,-1
 192 192 l 1,33,-1
 192 256 l 1,34,-1
 256 256 l 1,35,-1
 256 192 l 1,32,-1
256 256 m 1,36,-1
 256 320 l 1,37,-1
 256 384 l 1,38,-1
 256 448 l 1,39,-1
 320 448 l 1,40,-1
 384 448 l 1,41,-1
 384 384 l 1,42,-1
 384 320 l 1,43,-1
 320 320 l 1,44,-1
 320 256 l 1,45,-1
 256 256 l 1,36,-1
EndSplineSet
EndChar

StartChar: L
Encoding: 76 76 47
Width: 448
GlyphClass: 1
Flags: W
LayerCount: 2
Fore
SplineSet
320 64 m 1,0,-1
 384 64 l 1,1,-1
 384 0 l 1,2,-1
 320 0 l 1,3,-1
 256 0 l 1,4,-1
 192 0 l 1,5,-1
 128 0 l 1,6,-1
 64 0 l 1,7,-1
 0 0 l 1,8,-1
 0 64 l 1,9,-1
 0 128 l 1,10,-1
 0 192 l 1,11,-1
 0 256 l 1,12,-1
 0 320 l 1,13,-1
 0 384 l 1,14,-1
 0 448 l 1,15,-1
 64 448 l 1,16,-1
 128 448 l 1,17,-1
 128 384 l 1,18,-1
 64 384 l 1,19,-1
 64 320 l 1,20,-1
 128 320 l 1,21,-1
 128 256 l 1,22,-1
 128 192 l 1,23,-1
 128 128 l 1,24,-1
 128 64 l 1,25,-1
 192 64 l 1,26,-1
 256 64 l 1,27,-1
 320 64 l 1,0,-1
EndSplineSet
EndChar

StartChar: M
Encoding: 77 77 48
Width: 448
GlyphClass: 1
Flags: W
LayerCount: 2
Fore
SplineSet
320 0 m 1,0,-1
 256 0 l 1,1,-1
 256 64 l 1,2,-1
 256 128 l 1,3,-1
 256 192 l 1,4,-1
 256 256 l 1,5,-1
 192 256 l 1,6,-1
 192 192 l 1,7,-1
 128 192 l 1,8,-1
 64 192 l 1,9,-1
 64 128 l 1,10,-1
 128 128 l 1,11,-1
 128 64 l 1,12,-1
 128 0 l 1,13,-1
 64 0 l 1,14,-1
 0 0 l 1,15,-1
 0 64 l 1,16,-1
 0 128 l 1,17,-1
 0 192 l 1,18,-1
 0 256 l 1,19,-1
 0 320 l 1,20,-1
 0 384 l 1,21,-1
 0 448 l 1,22,-1
 64 448 l 1,23,-1
 64 384 l 1,24,-1
 128 384 l 1,25,-1
 128 320 l 1,26,-1
 192 320 l 1,27,-1
 192 384 l 1,28,-1
 256 384 l 1,29,-1
 256 448 l 1,30,-1
 320 448 l 1,31,-1
 384 448 l 1,32,-1
 384 384 l 1,33,-1
 384 320 l 1,34,-1
 384 256 l 1,35,-1
 384 192 l 1,36,-1
 384 128 l 1,37,-1
 384 64 l 1,38,-1
 384 0 l 1,39,-1
 320 0 l 1,0,-1
EndSplineSet
EndChar

StartChar: N
Encoding: 78 78 49
Width: 448
GlyphClass: 1
Flags: W
LayerCount: 2
Fore
SplineSet
320 0 m 1,0,-1
 256 0 l 1,1,-1
 256 64 l 1,2,-1
 256 128 l 1,3,-1
 256 192 l 1,4,-1
 192 192 l 1,5,-1
 192 256 l 1,6,-1
 128 256 l 1,7,-1
 64 256 l 1,8,-1
 64 192 l 1,9,-1
 128 192 l 1,10,-1
 128 128 l 1,11,-1
 128 64 l 1,12,-1
 128 0 l 1,13,-1
 64 0 l 1,14,-1
 0 0 l 1,15,-1
 0 64 l 1,16,-1
 0 128 l 1,17,-1
 0 192 l 1,18,-1
 0 256 l 1,19,-1
 0 320 l 1,20,-1
 0 384 l 1,21,-1
 0 448 l 1,22,-1
 64 448 l 1,23,-1
 128 448 l 1,24,-1
 128 384 l 1,25,-1
 192 384 l 1,26,-1
 192 320 l 1,27,-1
 256 320 l 1,28,-1
 256 384 l 1,29,-1
 256 448 l 1,30,-1
 320 448 l 1,31,-1
 384 448 l 1,32,-1
 384 384 l 1,33,-1
 384 320 l 1,34,-1
 384 256 l 1,35,-1
 384 192 l 1,36,-1
 384 128 l 1,37,-1
 384 64 l 1,38,-1
 384 0 l 1,39,-1
 320 0 l 1,0,-1
EndSplineSet
EndChar

StartChar: O
Encoding: 79 79 50
Width: 448
GlyphClass: 1
Flags: W
LayerCount: 2
Fore
SplineSet
256 0 m 1,0,-1
 192 0 l 1,1,-1
 128 0 l 1,2,-1
 64 0 l 1,3,-1
 64 64 l 1,4,-1
 0 64 l 1,5,-1
 0 128 l 1,6,-1
 0 192 l 1,7,-1
 0 256 l 1,8,-1
 0 320 l 1,9,-1
 0 384 l 1,10,-1
 64 384 l 1,11,-1
 64 448 l 1,12,-1
 128 448 l 1,13,-1
 192 448 l 1,14,-1
 256 448 l 1,15,-1
 320 448 l 1,16,-1
 320 384 l 1,17,-1
 384 384 l 1,18,-1
 384 320 l 1,19,-1
 384 256 l 1,20,-1
 384 192 l 1,21,-1
 384 128 l 1,22,-1
 384 64 l 1,23,-1
 320 64 l 1,24,-1
 320 0 l 1,25,-1
 256 0 l 1,0,-1
192 64 m 1,26,-1
 256 64 l 1,27,-1
 256 128 l 1,28,-1
 256 192 l 1,29,-1
 256 256 l 1,30,-1
 256 320 l 1,31,-1
 256 384 l 1,32,-1
 192 384 l 1,33,-1
 128 384 l 1,34,-1
 128 320 l 1,35,-1
 128 256 l 1,36,-1
 128 192 l 1,37,-1
 128 128 l 1,38,-1
 128 64 l 1,39,-1
 192 64 l 1,26,-1
EndSplineSet
EndChar

StartChar: P
Encoding: 80 80 51
Width: 512
GlyphClass: 1
Flags: W
LayerCount: 2
Fore
SplineSet
64 0 m 1,0,-1
 0 0 l 1,1,-1
 0 64 l 1,2,-1
 64 64 l 1,3,-1
 64 128 l 1,4,-1
 64 192 l 1,5,-1
 64 256 l 1,6,-1
 64 320 l 1,7,-1
 64 384 l 1,8,-1
 0 384 l 1,9,-1
 0 448 l 1,10,-1
 64 448 l 1,11,-1
 128 448 l 1,12,-1
 192 448 l 1,13,-1
 256 448 l 1,14,-1
 320 448 l 1,15,-1
 384 448 l 1,16,-1
 384 384 l 1,17,-1
 448 384 l 1,18,-1
 448 320 l 1,19,-1
 448 256 l 1,20,-1
 448 192 l 1,21,-1
 384 192 l 1,22,-1
 384 128 l 1,23,-1
 320 128 l 1,24,-1
 256 128 l 1,25,-1
 192 128 l 1,26,-1
 192 64 l 1,27,-1
 128 64 l 1,28,-1
 128 0 l 1,29,-1
 64 0 l 1,0,-1
256 192 m 1,30,-1
 320 192 l 1,31,-1
 320 256 l 1,32,-1
 320 320 l 1,33,-1
 320 384 l 1,34,-1
 256 384 l 1,35,-1
 192 384 l 1,36,-1
 128 384 l 1,37,-1
 128 320 l 1,38,-1
 192 320 l 1,39,-1
 192 256 l 1,40,-1
 192 192 l 1,41,-1
 256 192 l 1,30,-1
EndSplineSet
EndChar

StartChar: Q
Encoding: 81 81 52
Width: 448
GlyphClass: 1
Flags: W
LayerCount: 2
Fore
SplineSet
320 -64 m 1,0,-1
 384 -64 l 1,1,-1
 384 -128 l 1,2,-1
 320 -128 l 1,3,-1
 256 -128 l 1,4,-1
 256 -64 l 1,5,-1
 320 -64 l 1,0,-1
128 -128 m 1,6,-1
 64 -128 l 1,7,-1
 64 -64 l 1,8,-1
 128 -64 l 1,9,-1
 128 0 l 1,10,-1
 64 0 l 1,11,-1
 64 64 l 1,12,-1
 0 64 l 1,13,-1
 0 128 l 1,14,-1
 0 192 l 1,15,-1
 0 256 l 1,16,-1
 0 320 l 1,17,-1
 0 384 l 1,18,-1
 64 384 l 1,19,-1
 64 448 l 1,20,-1
 128 448 l 1,21,-1
 192 448 l 1,22,-1
 256 448 l 1,23,-1
 320 448 l 1,24,-1
 320 384 l 1,25,-1
 384 384 l 1,26,-1
 384 320 l 1,27,-1
 384 256 l 1,28,-1
 384 192 l 1,29,-1
 384 128 l 1,30,-1
 384 64 l 1,31,-1
 320 64 l 1,32,-1
 320 0 l 1,33,-1
 256 0 l 1,34,-1
 256 -64 l 1,35,-1
 192 -64 l 1,36,-1
 192 -128 l 1,37,-1
 128 -128 l 1,6,-1
192 64 m 1,38,-1
 256 64 l 1,39,-1
 256 128 l 1,40,-1
 256 192 l 1,41,-1
 256 256 l 1,42,-1
 256 320 l 1,43,-1
 256 384 l 1,44,-1
 192 384 l 1,45,-1
 128 384 l 1,46,-1
 128 320 l 1,47,-1
 128 256 l 1,48,-1
 128 192 l 1,49,-1
 128 128 l 1,50,-1
 128 64 l 1,51,-1
 192 64 l 1,38,-1
EndSplineSet
EndChar

StartChar: R
Encoding: 82 82 53
Width: 512
GlyphClass: 1
Flags: W
LayerCount: 2
Fore
SplineSet
384 0 m 1,0,-1
 320 0 l 1,1,-1
 320 64 l 1,2,-1
 320 128 l 1,3,-1
 256 128 l 1,4,-1
 192 128 l 1,5,-1
 192 64 l 1,6,-1
 128 64 l 1,7,-1
 128 0 l 1,8,-1
 64 0 l 1,9,-1
 0 0 l 1,10,-1
 0 64 l 1,11,-1
 64 64 l 1,12,-1
 64 128 l 1,13,-1
 64 192 l 1,14,-1
 64 256 l 1,15,-1
 64 320 l 1,16,-1
 64 384 l 1,17,-1
 0 384 l 1,18,-1
 0 448 l 1,19,-1
 64 448 l 1,20,-1
 128 448 l 1,21,-1
 192 448 l 1,22,-1
 256 448 l 1,23,-1
 320 448 l 1,24,-1
 384 448 l 1,25,-1
 384 384 l 1,26,-1
 448 384 l 1,27,-1
 448 320 l 1,28,-1
 448 256 l 1,29,-1
 448 192 l 1,30,-1
 384 192 l 1,31,-1
 384 128 l 1,32,-1
 448 128 l 1,33,-1
 448 64 l 1,34,-1
 448 0 l 1,35,-1
 384 0 l 1,0,-1
256 192 m 1,36,-1
 320 192 l 1,37,-1
 320 256 l 1,38,-1
 320 320 l 1,39,-1
 320 384 l 1,40,-1
 256 384 l 1,41,-1
 192 384 l 1,42,-1
 128 384 l 1,43,-1
 128 320 l 1,44,-1
 192 320 l 1,45,-1
 192 256 l 1,46,-1
 192 192 l 1,47,-1
 256 192 l 1,36,-1
EndSplineSet
EndChar

StartChar: S
Encoding: 83 83 54
Width: 448
GlyphClass: 1
Flags: W
LayerCount: 2
Fore
SplineSet
320 320 m 1,0,-1
 320 384 l 1,1,-1
 256 384 l 1,2,-1
 192 384 l 1,3,-1
 128 384 l 1,4,-1
 128 320 l 1,5,-1
 128 256 l 1,6,-1
 192 256 l 1,7,-1
 256 256 l 1,8,-1
 320 256 l 1,9,-1
 384 256 l 1,10,-1
 384 192 l 1,11,-1
 384 128 l 1,12,-1
 384 64 l 1,13,-1
 320 64 l 1,14,-1
 320 0 l 1,15,-1
 256 0 l 1,16,-1
 192 0 l 1,17,-1
 128 0 l 1,18,-1
 64 0 l 1,19,-1
 0 0 l 1,20,-1
 0 64 l 1,21,-1
 0 128 l 1,22,-1
 64 128 l 1,23,-1
 64 64 l 1,24,-1
 128 64 l 1,25,-1
 192 64 l 1,26,-1
 256 64 l 1,27,-1
 256 128 l 1,28,-1
 256 192 l 1,29,-1
 192 192 l 1,30,-1
 128 192 l 1,31,-1
 64 192 l 1,32,-1
 0 192 l 1,33,-1
 0 256 l 1,34,-1
 0 320 l 1,35,-1
 0 384 l 1,36,-1
 64 384 l 1,37,-1
 64 448 l 1,38,-1
 128 448 l 1,39,-1
 192 448 l 1,40,-1
 256 448 l 1,41,-1
 320 448 l 1,42,-1
 384 448 l 1,43,-1
 384 384 l 1,44,-1
 384 320 l 1,45,-1
 320 320 l 1,0,-1
EndSplineSet
EndChar

StartChar: T
Encoding: 84 84 55
Width: 448
GlyphClass: 1
Flags: W
LayerCount: 2
Fore
SplineSet
192 0 m 1,0,-1
 128 0 l 1,1,-1
 128 64 l 1,2,-1
 128 128 l 1,3,-1
 128 192 l 1,4,-1
 128 256 l 1,5,-1
 128 320 l 1,6,-1
 128 384 l 1,7,-1
 64 384 l 1,8,-1
 0 384 l 1,9,-1
 0 448 l 1,10,-1
 64 448 l 1,11,-1
 128 448 l 1,12,-1
 192 448 l 1,13,-1
 256 448 l 1,14,-1
 320 448 l 1,15,-1
 384 448 l 1,16,-1
 384 384 l 1,17,-1
 320 384 l 1,18,-1
 256 384 l 1,19,-1
 192 384 l 1,20,-1
 192 320 l 1,21,-1
 256 320 l 1,22,-1
 256 256 l 1,23,-1
 256 192 l 1,24,-1
 256 128 l 1,25,-1
 256 64 l 1,26,-1
 256 0 l 1,27,-1
 192 0 l 1,0,-1
EndSplineSet
EndChar

StartChar: U
Encoding: 85 85 56
Width: 448
GlyphClass: 1
Flags: W
LayerCount: 2
Fore
SplineSet
256 0 m 1,0,-1
 192 0 l 1,1,-1
 128 0 l 1,2,-1
 64 0 l 1,3,-1
 64 64 l 1,4,-1
 0 64 l 1,5,-1
 0 128 l 1,6,-1
 0 192 l 1,7,-1
 0 256 l 1,8,-1
 0 320 l 1,9,-1
 0 384 l 1,10,-1
 0 448 l 1,11,-1
 64 448 l 1,12,-1
 128 448 l 1,13,-1
 128 384 l 1,14,-1
 128 320 l 1,15,-1
 128 256 l 1,16,-1
 128 192 l 1,17,-1
 128 128 l 1,18,-1
 128 64 l 1,19,-1
 192 64 l 1,20,-1
 256 64 l 1,21,-1
 256 128 l 1,22,-1
 256 192 l 1,23,-1
 256 256 l 1,24,-1
 256 320 l 1,25,-1
 256 384 l 1,26,-1
 256 448 l 1,27,-1
 320 448 l 1,28,-1
 320 384 l 1,29,-1
 384 384 l 1,30,-1
 384 320 l 1,31,-1
 384 256 l 1,32,-1
 384 192 l 1,33,-1
 384 128 l 1,34,-1
 384 64 l 1,35,-1
 320 64 l 1,36,-1
 320 0 l 1,37,-1
 256 0 l 1,0,-1
EndSplineSet
EndChar

StartChar: V
Encoding: 86 86 57
Width: 448
GlyphClass: 1
Flags: W
LayerCount: 2
Fore
SplineSet
128 0 m 1,0,-1
 64 0 l 1,1,-1
 0 0 l 1,2,-1
 0 64 l 1,3,-1
 0 128 l 1,4,-1
 0 192 l 1,5,-1
 0 256 l 1,6,-1
 0 320 l 1,7,-1
 0 384 l 1,8,-1
 0 448 l 1,9,-1
 64 448 l 1,10,-1
 128 448 l 1,11,-1
 128 384 l 1,12,-1
 128 320 l 1,13,-1
 128 256 l 1,14,-1
 128 192 l 1,15,-1
 128 128 l 1,16,-1
 128 64 l 1,17,-1
 192 64 l 1,18,-1
 192 0 l 1,19,-1
 128 0 l 1,0,-1
192 64 m 1,20,-1
 192 128 l 1,21,-1
 192 192 l 1,22,-1
 192 256 l 1,23,-1
 192 320 l 1,24,-1
 256 320 l 1,25,-1
 256 384 l 1,26,-1
 256 448 l 1,27,-1
 320 448 l 1,28,-1
 384 448 l 1,29,-1
 384 384 l 1,30,-1
 384 320 l 1,31,-1
 320 320 l 1,32,-1
 320 256 l 1,33,-1
 320 192 l 1,34,-1
 256 192 l 1,35,-1
 256 128 l 1,36,-1
 256 64 l 1,37,-1
 192 64 l 1,20,-1
EndSplineSet
EndChar

StartChar: W
Encoding: 87 87 58
Width: 512
GlyphClass: 1
Flags: W
LayerCount: 2
Fore
SplineSet
320 0 m 1,0,-1
 256 0 l 1,1,-1
 256 64 l 1,2,-1
 192 64 l 1,3,-1
 192 0 l 1,4,-1
 128 0 l 1,5,-1
 64 0 l 1,6,-1
 64 64 l 1,7,-1
 64 128 l 1,8,-1
 0 128 l 1,9,-1
 0 192 l 1,10,-1
 0 256 l 1,11,-1
 0 320 l 1,12,-1
 0 384 l 1,13,-1
 0 448 l 1,14,-1
 64 448 l 1,15,-1
 128 448 l 1,16,-1
 128 384 l 1,17,-1
 128 320 l 1,18,-1
 128 256 l 1,19,-1
 128 192 l 1,20,-1
 128 128 l 1,21,-1
 192 128 l 1,22,-1
 192 192 l 1,23,-1
 192 256 l 1,24,-1
 192 320 l 1,25,-1
 192 384 l 1,26,-1
 256 384 l 1,27,-1
 256 320 l 1,28,-1
 256 256 l 1,29,-1
 256 192 l 1,30,-1
 256 128 l 1,31,-1
 320 128 l 1,32,-1
 320 192 l 1,33,-1
 320 256 l 1,34,-1
 320 320 l 1,35,-1
 320 384 l 1,36,-1
 320 448 l 1,37,-1
 384 448 l 1,38,-1
 448 448 l 1,39,-1
 448 384 l 1,40,-1
 448 320 l 1,41,-1
 448 256 l 1,42,-1
 448 192 l 1,43,-1
 448 128 l 1,44,-1
 384 128 l 1,45,-1
 384 64 l 1,46,-1
 384 0 l 1,47,-1
 320 0 l 1,0,-1
EndSplineSet
EndChar

StartChar: X
Encoding: 88 88 59
Width: 448
GlyphClass: 1
Flags: W
LayerCount: 2
Fore
SplineSet
320 0 m 1,0,-1
 256 0 l 1,1,-1
 256 64 l 1,2,-1
 192 64 l 1,3,-1
 192 128 l 1,4,-1
 128 128 l 1,5,-1
 128 64 l 1,6,-1
 128 0 l 1,7,-1
 64 0 l 1,8,-1
 0 0 l 1,9,-1
 0 64 l 1,10,-1
 64 64 l 1,11,-1
 64 128 l 1,12,-1
 128 128 l 1,13,-1
 128 192 l 1,14,-1
 64 192 l 1,15,-1
 64 256 l 1,16,-1
 0 256 l 1,17,-1
 0 320 l 1,18,-1
 0 384 l 1,19,-1
 0 448 l 1,20,-1
 64 448 l 1,21,-1
 128 448 l 1,22,-1
 128 384 l 1,23,-1
 128 320 l 1,24,-1
 128 256 l 1,25,-1
 192 256 l 1,26,-1
 192 192 l 1,27,-1
 256 192 l 1,28,-1
 256 128 l 1,29,-1
 320 128 l 1,30,-1
 320 64 l 1,31,-1
 384 64 l 1,32,-1
 384 0 l 1,33,-1
 320 0 l 1,0,-1
256 192 m 1,34,-1
 256 256 l 1,35,-1
 256 320 l 1,36,-1
 256 384 l 1,37,-1
 256 448 l 1,38,-1
 320 448 l 1,39,-1
 384 448 l 1,40,-1
 384 384 l 1,41,-1
 384 320 l 1,42,-1
 384 256 l 1,43,-1
 320 256 l 1,44,-1
 320 192 l 1,45,-1
 256 192 l 1,34,-1
EndSplineSet
EndChar

StartChar: Y
Encoding: 89 89 60
Width: 448
GlyphClass: 1
Flags: W
LayerCount: 2
Fore
SplineSet
192 0 m 1,0,-1
 128 0 l 1,1,-1
 128 64 l 1,2,-1
 128 128 l 1,3,-1
 64 128 l 1,4,-1
 64 192 l 1,5,-1
 0 192 l 1,6,-1
 0 256 l 1,7,-1
 0 320 l 1,8,-1
 0 384 l 1,9,-1
 0 448 l 1,10,-1
 64 448 l 1,11,-1
 128 448 l 1,12,-1
 128 384 l 1,13,-1
 128 320 l 1,14,-1
 128 256 l 1,15,-1
 128 192 l 1,16,-1
 192 192 l 1,17,-1
 192 128 l 1,18,-1
 256 128 l 1,19,-1
 256 64 l 1,20,-1
 256 0 l 1,21,-1
 192 0 l 1,0,-1
256 128 m 1,22,-1
 256 192 l 1,23,-1
 256 256 l 1,24,-1
 256 320 l 1,25,-1
 256 384 l 1,26,-1
 256 448 l 1,27,-1
 320 448 l 1,28,-1
 384 448 l 1,29,-1
 384 384 l 1,30,-1
 384 320 l 1,31,-1
 384 256 l 1,32,-1
 384 192 l 1,33,-1
 320 192 l 1,34,-1
 320 128 l 1,35,-1
 256 128 l 1,22,-1
EndSplineSet
EndChar

StartChar: Z
Encoding: 90 90 61
Width: 448
GlyphClass: 1
Flags: W
LayerCount: 2
Fore
SplineSet
320 64 m 1,0,-1
 384 64 l 1,1,-1
 384 0 l 1,2,-1
 320 0 l 1,3,-1
 256 0 l 1,4,-1
 192 0 l 1,5,-1
 128 0 l 1,6,-1
 64 0 l 1,7,-1
 0 0 l 1,8,-1
 0 64 l 1,9,-1
 0 128 l 1,10,-1
 64 128 l 1,11,-1
 64 192 l 1,12,-1
 128 192 l 1,13,-1
 128 256 l 1,14,-1
 192 256 l 1,15,-1
 192 320 l 1,16,-1
 256 320 l 1,17,-1
 256 384 l 1,18,-1
 192 384 l 1,19,-1
 128 384 l 1,20,-1
 64 384 l 1,21,-1
 0 384 l 1,22,-1
 0 448 l 1,23,-1
 64 448 l 1,24,-1
 128 448 l 1,25,-1
 192 448 l 1,26,-1
 256 448 l 1,27,-1
 320 448 l 1,28,-1
 384 448 l 1,29,-1
 384 384 l 1,30,-1
 384 320 l 1,31,-1
 320 320 l 1,32,-1
 320 256 l 1,33,-1
 256 256 l 1,34,-1
 256 192 l 1,35,-1
 192 192 l 1,36,-1
 192 128 l 1,37,-1
 128 128 l 1,38,-1
 128 64 l 1,39,-1
 192 64 l 1,40,-1
 256 64 l 1,41,-1
 320 64 l 1,0,-1
EndSplineSet
EndChar

StartChar: bracketleft
Encoding: 91 91 62
Width: 256
GlyphClass: 1
Flags: W
LayerCount: 2
Fore
SplineSet
128 -64 m 1,0,-1
 64 -64 l 1,1,-1
 0 -64 l 1,2,-1
 0 0 l 1,3,-1
 0 64 l 1,4,-1
 0 128 l 1,5,-1
 0 192 l 1,6,-1
 0 256 l 1,7,-1
 0 320 l 1,8,-1
 0 384 l 1,9,-1
 0 448 l 1,10,-1
 64 448 l 1,11,-1
 128 448 l 1,12,-1
 192 448 l 1,13,-1
 192 384 l 1,14,-1
 128 384 l 1,15,-1
 128 320 l 1,16,-1
 128 256 l 1,17,-1
 128 192 l 1,18,-1
 128 128 l 1,19,-1
 128 64 l 1,20,-1
 128 0 l 1,21,-1
 192 0 l 1,22,-1
 192 -64 l 1,23,-1
 128 -64 l 1,0,-1
EndSplineSet
EndChar

StartChar: backslash
Encoding: 92 92 63
Width: 384
GlyphClass: 1
Flags: W
LayerCount: 2
Fore
SplineSet
256 64 m 1,0,-1
 192 64 l 1,1,-1
 192 128 l 1,2,-1
 128 128 l 1,3,-1
 128 192 l 1,4,-1
 64 192 l 1,5,-1
 64 256 l 1,6,-1
 0 256 l 1,7,-1
 0 320 l 1,8,-1
 0 384 l 1,9,-1
 64 384 l 1,10,-1
 128 384 l 1,11,-1
 128 320 l 1,12,-1
 192 320 l 1,13,-1
 192 256 l 1,14,-1
 256 256 l 1,15,-1
 256 192 l 1,16,-1
 320 192 l 1,17,-1
 320 128 l 1,18,-1
 320 64 l 1,19,-1
 256 64 l 1,0,-1
EndSplineSet
EndChar

StartChar: bracketright
Encoding: 93 93 64
Width: 256
GlyphClass: 1
Flags: W
LayerCount: 2
Fore
SplineSet
128 -64 m 1,0,-1
 64 -64 l 1,1,-1
 0 -64 l 1,2,-1
 0 0 l 1,3,-1
 64 0 l 1,4,-1
 64 64 l 1,5,-1
 64 128 l 1,6,-1
 64 192 l 1,7,-1
 64 256 l 1,8,-1
 64 320 l 1,9,-1
 64 384 l 1,10,-1
 0 384 l 1,11,-1
 0 448 l 1,12,-1
 64 448 l 1,13,-1
 128 448 l 1,14,-1
 192 448 l 1,15,-1
 192 384 l 1,16,-1
 192 320 l 1,17,-1
 192 256 l 1,18,-1
 192 192 l 1,19,-1
 192 128 l 1,20,-1
 192 64 l 1,21,-1
 192 0 l 1,22,-1
 192 -64 l 1,23,-1
 128 -64 l 1,0,-1
EndSplineSet
EndChar

StartChar: underscore
Encoding: 95 95 65
Width: 320
GlyphClass: 1
Flags: W
LayerCount: 2
Fore
SplineSet
192 0 m 1,0,-1
 256 0 l 1,1,-1
 256 -64 l 1,2,-1
 192 -64 l 1,3,-1
 128 -64 l 1,4,-1
 64 -64 l 1,5,-1
 0 -64 l 1,6,-1
 0 0 l 1,7,-1
 64 0 l 1,8,-1
 128 0 l 1,9,-1
 192 0 l 1,0,-1
EndSplineSet
EndChar

StartChar: grave
Encoding: 96 96 66
Width: 256
GlyphClass: 1
Flags: W
LayerCount: 2
Fore
SplineSet
128 320 m 1,0,-1
 64 320 l 1,1,-1
 64 384 l 1,2,-1
 0 384 l 1,3,-1
 0 448 l 1,4,-1
 64 448 l 1,5,-1
 128 448 l 1,6,-1
 128 384 l 1,7,-1
 192 384 l 1,8,-1
 192 320 l 1,9,-1
 128 320 l 1,0,-1
EndSplineSet
EndChar

StartChar: a
Encoding: 97 97 67
Width: 512
GlyphClass: 1
Flags: W
LayerCount: 2
Fore
SplineSet
384 0 m 1,0,-1
 320 0 l 1,1,-1
 320 64 l 1,2,-1
 256 64 l 1,3,-1
 256 128 l 1,4,-1
 192 128 l 1,5,-1
 128 128 l 1,6,-1
 128 64 l 1,7,-1
 192 64 l 1,8,-1
 256 64 l 1,9,-1
 256 0 l 1,10,-1
 192 0 l 1,11,-1
 128 0 l 1,12,-1
 64 0 l 1,13,-1
 64 64 l 1,14,-1
 0 64 l 1,15,-1
 0 128 l 1,16,-1
 64 128 l 1,17,-1
 64 192 l 1,18,-1
 128 192 l 1,19,-1
 192 192 l 1,20,-1
 256 192 l 1,21,-1
 256 256 l 1,22,-1
 192 256 l 1,23,-1
 128 256 l 1,24,-1
 64 256 l 1,25,-1
 64 320 l 1,26,-1
 128 320 l 1,27,-1
 192 320 l 1,28,-1
 256 320 l 1,29,-1
 320 320 l 1,30,-1
 320 256 l 1,31,-1
 384 256 l 1,32,-1
 384 192 l 1,33,-1
 384 128 l 1,34,-1
 384 64 l 1,35,-1
 448 64 l 1,36,-1
 448 0 l 1,37,-1
 384 0 l 1,0,-1
EndSplineSet
EndChar

StartChar: b
Encoding: 98 98 68
Width: 448
GlyphClass: 1
Flags: W
LayerCount: 2
Fore
SplineSet
0 0 m 1,0,-1
 0 64 l 1,1,-1
 0 128 l 1,2,-1
 0 192 l 1,3,-1
 0 256 l 1,4,-1
 0 320 l 1,5,-1
 0 384 l 1,6,-1
 64 384 l 1,7,-1
 64 448 l 1,8,-1
 128 448 l 1,9,-1
 128 384 l 1,10,-1
 128 320 l 1,11,-1
 128 256 l 1,12,-1
 192 256 l 1,13,-1
 192 320 l 1,14,-1
 256 320 l 1,15,-1
 320 320 l 1,16,-1
 320 256 l 1,17,-1
 384 256 l 1,18,-1
 384 192 l 1,19,-1
 384 128 l 1,20,-1
 384 64 l 1,21,-1
 320 64 l 1,22,-1
 320 0 l 1,23,-1
 256 0 l 1,24,-1
 192 0 l 1,25,-1
 128 0 l 1,26,-1
 128 64 l 1,27,-1
 64 64 l 1,28,-1
 64 0 l 1,29,-1
 0 0 l 1,0,-1
192 64 m 1,30,-1
 256 64 l 1,31,-1
 256 128 l 1,32,-1
 256 192 l 1,33,-1
 256 256 l 1,34,-1
 192 256 l 1,35,-1
 192 192 l 1,36,-1
 128 192 l 1,37,-1
 128 128 l 1,38,-1
 128 64 l 1,39,-1
 192 64 l 1,30,-1
EndSplineSet
EndChar

StartChar: c
Encoding: 99 99 69
Width: 384
GlyphClass: 1
Flags: W
LayerCount: 2
Fore
SplineSet
256 192 m 1,0,-1
 256 256 l 1,1,-1
 192 256 l 1,2,-1
 128 256 l 1,3,-1
 128 192 l 1,4,-1
 128 128 l 1,5,-1
 128 64 l 1,6,-1
 192 64 l 1,7,-1
 256 64 l 1,8,-1
 256 128 l 1,9,-1
 320 128 l 1,10,-1
 320 64 l 1,11,-1
 320 0 l 1,12,-1
 256 0 l 1,13,-1
 192 0 l 1,14,-1
 128 0 l 1,15,-1
 64 0 l 1,16,-1
 64 64 l 1,17,-1
 0 64 l 1,18,-1
 0 128 l 1,19,-1
 0 192 l 1,20,-1
 0 256 l 1,21,-1
 64 256 l 1,22,-1
 64 320 l 1,23,-1
 128 320 l 1,24,-1
 192 320 l 1,25,-1
 256 320 l 1,26,-1
 320 320 l 1,27,-1
 320 256 l 1,28,-1
 320 192 l 1,29,-1
 256 192 l 1,0,-1
EndSplineSet
EndChar

StartChar: d
Encoding: 100 100 70
Width: 448
GlyphClass: 1
Flags: W
LayerCount: 2
Fore
SplineSet
320 0 m 1,0,-1
 256 0 l 1,1,-1
 256 64 l 1,2,-1
 192 64 l 1,3,-1
 192 128 l 1,4,-1
 256 128 l 1,5,-1
 256 192 l 1,6,-1
 256 256 l 1,7,-1
 192 256 l 1,8,-1
 128 256 l 1,9,-1
 128 192 l 1,10,-1
 128 128 l 1,11,-1
 128 64 l 1,12,-1
 192 64 l 1,13,-1
 192 0 l 1,14,-1
 128 0 l 1,15,-1
 64 0 l 1,16,-1
 64 64 l 1,17,-1
 0 64 l 1,18,-1
 0 128 l 1,19,-1
 0 192 l 1,20,-1
 0 256 l 1,21,-1
 64 256 l 1,22,-1
 64 320 l 1,23,-1
 128 320 l 1,24,-1
 192 320 l 1,25,-1
 256 320 l 1,26,-1
 256 384 l 1,27,-1
 256 448 l 1,28,-1
 320 448 l 1,29,-1
 320 384 l 1,30,-1
 384 384 l 1,31,-1
 384 320 l 1,32,-1
 384 256 l 1,33,-1
 384 192 l 1,34,-1
 384 128 l 1,35,-1
 384 64 l 1,36,-1
 384 0 l 1,37,-1
 320 0 l 1,0,-1
EndSplineSet
EndChar

StartChar: e
Encoding: 101 101 71
Width: 448
GlyphClass: 1
Flags: W
LayerCount: 2
Fore
SplineSet
256 64 m 1,0,-1
 320 64 l 1,1,-1
 320 0 l 1,2,-1
 256 0 l 1,3,-1
 192 0 l 1,4,-1
 128 0 l 1,5,-1
 64 0 l 1,6,-1
 64 64 l 1,7,-1
 0 64 l 1,8,-1
 0 128 l 1,9,-1
 0 192 l 1,10,-1
 0 256 l 1,11,-1
 64 256 l 1,12,-1
 64 320 l 1,13,-1
 128 320 l 1,14,-1
 192 320 l 1,15,-1
 256 320 l 1,16,-1
 320 320 l 1,17,-1
 320 256 l 1,18,-1
 384 256 l 1,19,-1
 384 192 l 1,20,-1
 320 192 l 1,21,-1
 320 128 l 1,22,-1
 256 128 l 1,23,-1
 192 128 l 1,24,-1
 128 128 l 1,25,-1
 128 64 l 1,26,-1
 192 64 l 1,27,-1
 256 64 l 1,0,-1
192 192 m 1,28,-1
 256 192 l 1,29,-1
 256 256 l 1,30,-1
 192 256 l 1,31,-1
 128 256 l 1,32,-1
 128 192 l 1,33,-1
 192 192 l 1,28,-1
EndSplineSet
EndChar

StartChar: f
Encoding: 102 102 72
Width: 384
GlyphClass: 1
Flags: W
LayerCount: 2
Fore
SplineSet
128 0 m 1,0,-1
 64 0 l 1,1,-1
 64 64 l 1,2,-1
 64 128 l 1,3,-1
 64 192 l 1,4,-1
 64 256 l 1,5,-1
 0 256 l 1,6,-1
 0 320 l 1,7,-1
 64 320 l 1,8,-1
 64 384 l 1,9,-1
 128 384 l 1,10,-1
 128 448 l 1,11,-1
 192 448 l 1,12,-1
 256 448 l 1,13,-1
 320 448 l 1,14,-1
 320 384 l 1,15,-1
 256 384 l 1,16,-1
 192 384 l 1,17,-1
 192 320 l 1,18,-1
 256 320 l 1,19,-1
 320 320 l 1,20,-1
 320 256 l 1,21,-1
 256 256 l 1,22,-1
 192 256 l 1,23,-1
 128 256 l 1,24,-1
 128 192 l 1,25,-1
 192 192 l 1,26,-1
 192 128 l 1,27,-1
 192 64 l 1,28,-1
 192 0 l 1,29,-1
 128 0 l 1,0,-1
EndSplineSet
EndChar

StartChar: g
Encoding: 103 103 73
Width: 448
GlyphClass: 1
Flags: W
LayerCount: 2
Fore
SplineSet
256 -128 m 1,0,-1
 192 -128 l 1,1,-1
 128 -128 l 1,2,-1
 64 -128 l 1,3,-1
 64 -64 l 1,4,-1
 64 0 l 1,5,-1
 128 0 l 1,6,-1
 128 -64 l 1,7,-1
 192 -64 l 1,8,-1
 256 -64 l 1,9,-1
 256 0 l 1,10,-1
 256 64 l 1,11,-1
 192 64 l 1,12,-1
 128 64 l 1,13,-1
 64 64 l 1,14,-1
 64 128 l 1,15,-1
 0 128 l 1,16,-1
 0 192 l 1,17,-1
 0 256 l 1,18,-1
 64 256 l 1,19,-1
 64 320 l 1,20,-1
 128 320 l 1,21,-1
 192 320 l 1,22,-1
 256 320 l 1,23,-1
 320 320 l 1,24,-1
 320 256 l 1,25,-1
 384 256 l 1,26,-1
 384 192 l 1,27,-1
 384 128 l 1,28,-1
 384 64 l 1,29,-1
 384 0 l 1,30,-1
 384 -64 l 1,31,-1
 320 -64 l 1,32,-1
 320 -128 l 1,33,-1
 256 -128 l 1,0,-1
192 128 m 1,34,-1
 256 128 l 1,35,-1
 256 192 l 1,36,-1
 256 256 l 1,37,-1
 192 256 l 1,38,-1
 128 256 l 1,39,-1
 128 192 l 1,40,-1
 128 128 l 1,41,-1
 192 128 l 1,34,-1
EndSplineSet
EndChar

StartChar: h
Encoding: 104 104 74
Width: 448
GlyphClass: 1
Flags: W
LayerCount: 2
Fore
SplineSet
256 0 m 1,0,-1
 256 64 l 1,1,-1
 256 128 l 1,2,-1
 256 192 l 1,3,-1
 256 256 l 1,4,-1
 192 256 l 1,5,-1
 128 256 l 1,6,-1
 128 192 l 1,7,-1
 128 128 l 1,8,-1
 128 64 l 1,9,-1
 128 0 l 1,10,-1
 64 0 l 1,11,-1
 0 0 l 1,12,-1
 0 64 l 1,13,-1
 0 128 l 1,14,-1
 0 192 l 1,15,-1
 0 256 l 1,16,-1
 0 320 l 1,17,-1
 0 384 l 1,18,-1
 64 384 l 1,19,-1
 64 448 l 1,20,-1
 128 448 l 1,21,-1
 128 384 l 1,22,-1
 128 320 l 1,23,-1
 192 320 l 1,24,-1
 256 320 l 1,25,-1
 320 320 l 1,26,-1
 320 256 l 1,27,-1
 384 256 l 1,28,-1
 384 192 l 1,29,-1
 384 128 l 1,30,-1
 384 64 l 1,31,-1
 320 64 l 1,32,-1
 320 0 l 1,33,-1
 256 0 l 1,0,-1
EndSplineSet
EndChar

StartChar: i
Encoding: 105 105 75
Width: 192
GlyphClass: 1
Flags: W
LayerCount: 2
Fore
SplineSet
64 0 m 1,0,-1
 0 0 l 1,1,-1
 0 64 l 1,2,-1
 0 128 l 1,3,-1
 0 192 l 1,4,-1
 0 256 l 1,5,-1
 64 256 l 1,6,-1
 64 320 l 1,7,-1
 128 320 l 1,8,-1
 128 256 l 1,9,-1
 128 192 l 1,10,-1
 128 128 l 1,11,-1
 128 64 l 1,12,-1
 128 0 l 1,13,-1
 64 0 l 1,0,-1
64 448 m 1,14,-1
 128 448 l 1,15,-1
 128 384 l 1,16,-1
 64 384 l 1,17,-1
 0 384 l 1,18,-1
 0 448 l 1,19,-1
 64 448 l 1,14,-1
EndSplineSet
EndChar

StartChar: j
Encoding: 106 106 76
Width: 192
GlyphClass: 1
Flags: W
LayerCount: 2
Fore
SplineSet
0 -128 m 1,0,-1
 0 -64 l 1,1,-1
 0 0 l 1,2,-1
 0 64 l 1,3,-1
 0 128 l 1,4,-1
 0 192 l 1,5,-1
 0 256 l 1,6,-1
 64 256 l 1,7,-1
 64 320 l 1,8,-1
 128 320 l 1,9,-1
 128 256 l 1,10,-1
 128 192 l 1,11,-1
 128 128 l 1,12,-1
 128 64 l 1,13,-1
 128 0 l 1,14,-1
 128 -64 l 1,15,-1
 64 -64 l 1,16,-1
 64 -128 l 1,17,-1
 0 -128 l 1,0,-1
64 448 m 1,18,-1
 128 448 l 1,19,-1
 128 384 l 1,20,-1
 64 384 l 1,21,-1
 0 384 l 1,22,-1
 0 448 l 1,23,-1
 64 448 l 1,18,-1
EndSplineSet
EndChar

StartChar: k
Encoding: 107 107 77
Width: 448
GlyphClass: 1
Flags: W
LayerCount: 2
Fore
SplineSet
0 0 m 1,0,-1
 0 64 l 1,1,-1
 0 128 l 1,2,-1
 0 192 l 1,3,-1
 0 256 l 1,4,-1
 0 320 l 1,5,-1
 0 384 l 1,6,-1
 64 384 l 1,7,-1
 64 448 l 1,8,-1
 128 448 l 1,9,-1
 128 384 l 1,10,-1
 128 320 l 1,11,-1
 128 256 l 1,12,-1
 128 192 l 1,13,-1
 192 192 l 1,14,-1
 192 128 l 1,15,-1
 128 128 l 1,16,-1
 128 64 l 1,17,-1
 64 64 l 1,18,-1
 64 0 l 1,19,-1
 0 0 l 1,0,-1
320 0 m 1,20,-1
 256 0 l 1,21,-1
 256 64 l 1,22,-1
 256 128 l 1,23,-1
 256 192 l 1,24,-1
 320 192 l 1,25,-1
 320 128 l 1,26,-1
 384 128 l 1,27,-1
 384 64 l 1,28,-1
 384 0 l 1,29,-1
 320 0 l 1,20,-1
256 192 m 1,30,-1
 192 192 l 1,31,-1
 192 256 l 1,32,-1
 256 256 l 1,33,-1
 256 192 l 1,30,-1
256 256 m 1,34,-1
 256 320 l 1,35,-1
 320 320 l 1,36,-1
 320 256 l 1,37,-1
 256 256 l 1,34,-1
EndSplineSet
EndChar

StartChar: l
Encoding: 108 108 78
Width: 192
GlyphClass: 1
Flags: W
LayerCount: 2
Fore
SplineSet
64 0 m 1,0,-1
 0 0 l 1,1,-1
 0 64 l 1,2,-1
 0 128 l 1,3,-1
 0 192 l 1,4,-1
 0 256 l 1,5,-1
 0 320 l 1,6,-1
 0 384 l 1,7,-1
 64 384 l 1,8,-1
 64 448 l 1,9,-1
 128 448 l 1,10,-1
 128 384 l 1,11,-1
 128 320 l 1,12,-1
 128 256 l 1,13,-1
 128 192 l 1,14,-1
 128 128 l 1,15,-1
 128 64 l 1,16,-1
 128 0 l 1,17,-1
 64 0 l 1,0,-1
EndSplineSet
EndChar

StartChar: m
Encoding: 109 109 79
Width: 576
GlyphClass: 1
Flags: W
LayerCount: 2
Fore
SplineSet
384 0 m 1,0,-1
 384 64 l 1,1,-1
 384 128 l 1,2,-1
 384 192 l 1,3,-1
 384 256 l 1,4,-1
 320 256 l 1,5,-1
 320 192 l 1,6,-1
 320 128 l 1,7,-1
 320 64 l 1,8,-1
 256 64 l 1,9,-1
 256 0 l 1,10,-1
 192 0 l 1,11,-1
 192 64 l 1,12,-1
 192 128 l 1,13,-1
 192 192 l 1,14,-1
 192 256 l 1,15,-1
 128 256 l 1,16,-1
 128 192 l 1,17,-1
 128 128 l 1,18,-1
 128 64 l 1,19,-1
 128 0 l 1,20,-1
 64 0 l 1,21,-1
 0 0 l 1,22,-1
 0 64 l 1,23,-1
 0 128 l 1,24,-1
 0 192 l 1,25,-1
 0 256 l 1,26,-1
 0 320 l 1,27,-1
 64 320 l 1,28,-1
 64 256 l 1,29,-1
 128 256 l 1,30,-1
 128 320 l 1,31,-1
 192 320 l 1,32,-1
 256 320 l 1,33,-1
 256 256 l 1,34,-1
 320 256 l 1,35,-1
 320 320 l 1,36,-1
 384 320 l 1,37,-1
 448 320 l 1,38,-1
 448 256 l 1,39,-1
 512 256 l 1,40,-1
 512 192 l 1,41,-1
 512 128 l 1,42,-1
 512 64 l 1,43,-1
 448 64 l 1,44,-1
 448 0 l 1,45,-1
 384 0 l 1,0,-1
EndSplineSet
EndChar

StartChar: n
Encoding: 110 110 80
Width: 448
GlyphClass: 1
Flags: W
LayerCount: 2
Fore
SplineSet
256 0 m 1,0,-1
 256 64 l 1,1,-1
 256 128 l 1,2,-1
 256 192 l 1,3,-1
 256 256 l 1,4,-1
 192 256 l 1,5,-1
 128 256 l 1,6,-1
 128 192 l 1,7,-1
 128 128 l 1,8,-1
 128 64 l 1,9,-1
 128 0 l 1,10,-1
 64 0 l 1,11,-1
 0 0 l 1,12,-1
 0 64 l 1,13,-1
 0 128 l 1,14,-1
 0 192 l 1,15,-1
 0 256 l 1,16,-1
 0 320 l 1,17,-1
 64 320 l 1,18,-1
 64 256 l 1,19,-1
 128 256 l 1,20,-1
 128 320 l 1,21,-1
 192 320 l 1,22,-1
 256 320 l 1,23,-1
 320 320 l 1,24,-1
 320 256 l 1,25,-1
 384 256 l 1,26,-1
 384 192 l 1,27,-1
 384 128 l 1,28,-1
 384 64 l 1,29,-1
 320 64 l 1,30,-1
 320 0 l 1,31,-1
 256 0 l 1,0,-1
EndSplineSet
EndChar

StartChar: o
Encoding: 111 111 81
Width: 448
GlyphClass: 1
Flags: W
LayerCount: 2
Fore
SplineSet
256 0 m 1,0,-1
 192 0 l 1,1,-1
 128 0 l 1,2,-1
 64 0 l 1,3,-1
 64 64 l 1,4,-1
 0 64 l 1,5,-1
 0 128 l 1,6,-1
 0 192 l 1,7,-1
 0 256 l 1,8,-1
 64 256 l 1,9,-1
 64 320 l 1,10,-1
 128 320 l 1,11,-1
 192 320 l 1,12,-1
 256 320 l 1,13,-1
 320 320 l 1,14,-1
 320 256 l 1,15,-1
 384 256 l 1,16,-1
 384 192 l 1,17,-1
 384 128 l 1,18,-1
 384 64 l 1,19,-1
 320 64 l 1,20,-1
 320 0 l 1,21,-1
 256 0 l 1,0,-1
192 64 m 1,22,-1
 256 64 l 1,23,-1
 256 128 l 1,24,-1
 256 192 l 1,25,-1
 256 256 l 1,26,-1
 192 256 l 1,27,-1
 128 256 l 1,28,-1
 128 192 l 1,29,-1
 128 128 l 1,30,-1
 128 64 l 1,31,-1
 192 64 l 1,22,-1
EndSplineSet
EndChar

StartChar: p
Encoding: 112 112 82
Width: 448
GlyphClass: 1
Flags: W
LayerCount: 2
Fore
SplineSet
64 -128 m 1,0,-1
 64 -64 l 1,1,-1
 0 -64 l 1,2,-1
 0 0 l 1,3,-1
 0 64 l 1,4,-1
 0 128 l 1,5,-1
 0 192 l 1,6,-1
 0 256 l 1,7,-1
 64 256 l 1,8,-1
 64 320 l 1,9,-1
 128 320 l 1,10,-1
 128 256 l 1,11,-1
 192 256 l 1,12,-1
 192 320 l 1,13,-1
 256 320 l 1,14,-1
 320 320 l 1,15,-1
 320 256 l 1,16,-1
 384 256 l 1,17,-1
 384 192 l 1,18,-1
 384 128 l 1,19,-1
 384 64 l 1,20,-1
 320 64 l 1,21,-1
 320 0 l 1,22,-1
 256 0 l 1,23,-1
 192 0 l 1,24,-1
 128 0 l 1,25,-1
 128 -64 l 1,26,-1
 128 -128 l 1,27,-1
 64 -128 l 1,0,-1
192 64 m 1,28,-1
 256 64 l 1,29,-1
 256 128 l 1,30,-1
 256 192 l 1,31,-1
 256 256 l 1,32,-1
 192 256 l 1,33,-1
 192 192 l 1,34,-1
 128 192 l 1,35,-1
 128 128 l 1,36,-1
 128 64 l 1,37,-1
 192 64 l 1,28,-1
EndSplineSet
EndChar

StartChar: q
Encoding: 113 113 83
Width: 448
GlyphClass: 1
Flags: W
LayerCount: 2
Fore
SplineSet
320 -128 m 1,0,-1
 256 -128 l 1,1,-1
 256 -64 l 1,2,-1
 256 0 l 1,3,-1
 256 64 l 1,4,-1
 192 64 l 1,5,-1
 192 128 l 1,6,-1
 256 128 l 1,7,-1
 256 192 l 1,8,-1
 256 256 l 1,9,-1
 192 256 l 1,10,-1
 128 256 l 1,11,-1
 128 192 l 1,12,-1
 128 128 l 1,13,-1
 128 64 l 1,14,-1
 192 64 l 1,15,-1
 192 0 l 1,16,-1
 128 0 l 1,17,-1
 64 0 l 1,18,-1
 64 64 l 1,19,-1
 0 64 l 1,20,-1
 0 128 l 1,21,-1
 0 192 l 1,22,-1
 0 256 l 1,23,-1
 64 256 l 1,24,-1
 64 320 l 1,25,-1
 128 320 l 1,26,-1
 192 320 l 1,27,-1
 256 320 l 1,28,-1
 320 320 l 1,29,-1
 320 256 l 1,30,-1
 384 256 l 1,31,-1
 384 192 l 1,32,-1
 384 128 l 1,33,-1
 384 64 l 1,34,-1
 384 0 l 1,35,-1
 384 -64 l 1,36,-1
 384 -128 l 1,37,-1
 320 -128 l 1,0,-1
EndSplineSet
EndChar

StartChar: r
Encoding: 114 114 84
Width: 320
GlyphClass: 1
Flags: W
LayerCount: 2
Fore
SplineSet
192 192 m 1,0,-1
 192 256 l 1,1,-1
 128 256 l 1,2,-1
 128 192 l 1,3,-1
 128 128 l 1,4,-1
 128 64 l 1,5,-1
 128 0 l 1,6,-1
 64 0 l 1,7,-1
 0 0 l 1,8,-1
 0 64 l 1,9,-1
 0 128 l 1,10,-1
 0 192 l 1,11,-1
 0 256 l 1,12,-1
 0 320 l 1,13,-1
 64 320 l 1,14,-1
 64 256 l 1,15,-1
 128 256 l 1,16,-1
 128 320 l 1,17,-1
 192 320 l 1,18,-1
 256 320 l 1,19,-1
 256 256 l 1,20,-1
 256 192 l 1,21,-1
 192 192 l 1,0,-1
EndSplineSet
EndChar

StartChar: s
Encoding: 115 115 85
Width: 384
GlyphClass: 1
Flags: W
LayerCount: 2
Fore
SplineSet
192 0 m 1,0,-1
 128 0 l 1,1,-1
 64 0 l 1,2,-1
 0 0 l 1,3,-1
 0 64 l 1,4,-1
 64 64 l 1,5,-1
 128 64 l 1,6,-1
 192 64 l 1,7,-1
 192 128 l 1,8,-1
 128 128 l 1,9,-1
 64 128 l 1,10,-1
 0 128 l 1,11,-1
 0 192 l 1,12,-1
 0 256 l 1,13,-1
 64 256 l 1,14,-1
 64 320 l 1,15,-1
 128 320 l 1,16,-1
 192 320 l 1,17,-1
 256 320 l 1,18,-1
 320 320 l 1,19,-1
 320 256 l 1,20,-1
 256 256 l 1,21,-1
 192 256 l 1,22,-1
 128 256 l 1,23,-1
 128 192 l 1,24,-1
 192 192 l 1,25,-1
 256 192 l 1,26,-1
 320 192 l 1,27,-1
 320 128 l 1,28,-1
 320 64 l 1,29,-1
 256 64 l 1,30,-1
 256 0 l 1,31,-1
 192 0 l 1,0,-1
EndSplineSet
EndChar

StartChar: t
Encoding: 116 116 86
Width: 384
GlyphClass: 1
Flags: W
LayerCount: 2
Fore
SplineSet
128 0 m 1,0,-1
 64 0 l 1,1,-1
 64 64 l 1,2,-1
 64 128 l 1,3,-1
 64 192 l 1,4,-1
 64 256 l 1,5,-1
 0 256 l 1,6,-1
 0 320 l 1,7,-1
 64 320 l 1,8,-1
 64 384 l 1,9,-1
 128 384 l 1,10,-1
 128 448 l 1,11,-1
 192 448 l 1,12,-1
 192 384 l 1,13,-1
 192 320 l 1,14,-1
 256 320 l 1,15,-1
 320 320 l 1,16,-1
 320 256 l 1,17,-1
 256 256 l 1,18,-1
 192 256 l 1,19,-1
 128 256 l 1,20,-1
 128 192 l 1,21,-1
 192 192 l 1,22,-1
 192 128 l 1,23,-1
 192 64 l 1,24,-1
 192 0 l 1,25,-1
 128 0 l 1,0,-1
EndSplineSet
EndChar

StartChar: u
Encoding: 117 117 87
Width: 448
GlyphClass: 1
Flags: W
LayerCount: 2
Fore
SplineSet
256 0 m 1,0,-1
 192 0 l 1,1,-1
 128 0 l 1,2,-1
 64 0 l 1,3,-1
 64 64 l 1,4,-1
 0 64 l 1,5,-1
 0 128 l 1,6,-1
 0 192 l 1,7,-1
 0 256 l 1,8,-1
 0 320 l 1,9,-1
 64 320 l 1,10,-1
 128 320 l 1,11,-1
 128 256 l 1,12,-1
 128 192 l 1,13,-1
 128 128 l 1,14,-1
 128 64 l 1,15,-1
 192 64 l 1,16,-1
 256 64 l 1,17,-1
 256 128 l 1,18,-1
 256 192 l 1,19,-1
 256 256 l 1,20,-1
 256 320 l 1,21,-1
 320 320 l 1,22,-1
 320 256 l 1,23,-1
 384 256 l 1,24,-1
 384 192 l 1,25,-1
 384 128 l 1,26,-1
 384 64 l 1,27,-1
 320 64 l 1,28,-1
 320 0 l 1,29,-1
 256 0 l 1,0,-1
EndSplineSet
EndChar

StartChar: v
Encoding: 118 118 88
Width: 384
GlyphClass: 1
Flags: W
LayerCount: 2
Fore
SplineSet
64 0 m 1,0,-1
 0 0 l 1,1,-1
 0 64 l 1,2,-1
 0 128 l 1,3,-1
 0 192 l 1,4,-1
 0 256 l 1,5,-1
 0 320 l 1,6,-1
 64 320 l 1,7,-1
 128 320 l 1,8,-1
 128 256 l 1,9,-1
 128 192 l 1,10,-1
 128 128 l 1,11,-1
 192 128 l 1,12,-1
 192 64 l 1,13,-1
 128 64 l 1,14,-1
 128 0 l 1,15,-1
 64 0 l 1,0,-1
192 128 m 1,16,-1
 192 192 l 1,17,-1
 192 256 l 1,18,-1
 192 320 l 1,19,-1
 256 320 l 1,20,-1
 320 320 l 1,21,-1
 320 256 l 1,22,-1
 320 192 l 1,23,-1
 256 192 l 1,24,-1
 256 128 l 1,25,-1
 192 128 l 1,16,-1
EndSplineSet
EndChar

StartChar: w
Encoding: 119 119 89
Width: 512
GlyphClass: 1
Flags: W
LayerCount: 2
Fore
SplineSet
320 0 m 1,0,-1
 256 0 l 1,1,-1
 256 64 l 1,2,-1
 192 64 l 1,3,-1
 192 0 l 1,4,-1
 128 0 l 1,5,-1
 64 0 l 1,6,-1
 64 64 l 1,7,-1
 64 128 l 1,8,-1
 0 128 l 1,9,-1
 0 192 l 1,10,-1
 0 256 l 1,11,-1
 0 320 l 1,12,-1
 64 320 l 1,13,-1
 128 320 l 1,14,-1
 128 256 l 1,15,-1
 128 192 l 1,16,-1
 128 128 l 1,17,-1
 192 128 l 1,18,-1
 192 192 l 1,19,-1
 192 256 l 1,20,-1
 256 256 l 1,21,-1
 256 192 l 1,22,-1
 256 128 l 1,23,-1
 320 128 l 1,24,-1
 320 192 l 1,25,-1
 320 256 l 1,26,-1
 320 320 l 1,27,-1
 384 320 l 1,28,-1
 448 320 l 1,29,-1
 448 256 l 1,30,-1
 448 192 l 1,31,-1
 448 128 l 1,32,-1
 384 128 l 1,33,-1
 384 64 l 1,34,-1
 384 0 l 1,35,-1
 320 0 l 1,0,-1
EndSplineSet
EndChar

StartChar: x
Encoding: 120 120 90
Width: 448
GlyphClass: 1
Flags: W
LayerCount: 2
Fore
SplineSet
320 0 m 1,0,-1
 256 0 l 1,1,-1
 256 64 l 1,2,-1
 192 64 l 1,3,-1
 192 128 l 1,4,-1
 128 128 l 1,5,-1
 128 64 l 1,6,-1
 128 0 l 1,7,-1
 64 0 l 1,8,-1
 0 0 l 1,9,-1
 0 64 l 1,10,-1
 64 64 l 1,11,-1
 64 128 l 1,12,-1
 128 128 l 1,13,-1
 128 192 l 1,14,-1
 64 192 l 1,15,-1
 64 256 l 1,16,-1
 0 256 l 1,17,-1
 0 320 l 1,18,-1
 64 320 l 1,19,-1
 128 320 l 1,20,-1
 128 256 l 1,21,-1
 192 256 l 1,22,-1
 192 192 l 1,23,-1
 256 192 l 1,24,-1
 256 128 l 1,25,-1
 320 128 l 1,26,-1
 320 64 l 1,27,-1
 384 64 l 1,28,-1
 384 0 l 1,29,-1
 320 0 l 1,0,-1
256 192 m 1,30,-1
 256 256 l 1,31,-1
 256 320 l 1,32,-1
 320 320 l 1,33,-1
 384 320 l 1,34,-1
 384 256 l 1,35,-1
 320 256 l 1,36,-1
 320 192 l 1,37,-1
 256 192 l 1,30,-1
EndSplineSet
EndChar

StartChar: y
Encoding: 121 121 91
Width: 384
GlyphClass: 1
Flags: W
LayerCount: 2
Fore
SplineSet
192 -128 m 1,0,-1
 128 -128 l 1,1,-1
 64 -128 l 1,2,-1
 0 -128 l 1,3,-1
 0 -64 l 1,4,-1
 0 0 l 1,5,-1
 64 0 l 1,6,-1
 64 -64 l 1,7,-1
 128 -64 l 1,8,-1
 192 -64 l 1,9,-1
 192 0 l 1,10,-1
 128 0 l 1,11,-1
 128 64 l 1,12,-1
 192 64 l 1,13,-1
 192 128 l 1,14,-1
 192 192 l 1,15,-1
 192 256 l 1,16,-1
 192 320 l 1,17,-1
 256 320 l 1,18,-1
 320 320 l 1,19,-1
 320 256 l 1,20,-1
 320 192 l 1,21,-1
 320 128 l 1,22,-1
 320 64 l 1,23,-1
 320 0 l 1,24,-1
 320 -64 l 1,25,-1
 256 -64 l 1,26,-1
 256 -128 l 1,27,-1
 192 -128 l 1,0,-1
128 64 m 1,28,-1
 64 64 l 1,29,-1
 64 128 l 1,30,-1
 64 192 l 1,31,-1
 0 192 l 1,32,-1
 0 256 l 1,33,-1
 0 320 l 1,34,-1
 64 320 l 1,35,-1
 128 320 l 1,36,-1
 128 256 l 1,37,-1
 128 192 l 1,38,-1
 128 128 l 1,39,-1
 128 64 l 1,28,-1
EndSplineSet
EndChar

StartChar: z
Encoding: 122 122 92
Width: 384
GlyphClass: 1
Flags: W
LayerCount: 2
Fore
SplineSet
256 64 m 1,0,-1
 320 64 l 1,1,-1
 320 0 l 1,2,-1
 256 0 l 1,3,-1
 192 0 l 1,4,-1
 128 0 l 1,5,-1
 64 0 l 1,6,-1
 0 0 l 1,7,-1
 0 64 l 1,8,-1
 0 128 l 1,9,-1
 64 128 l 1,10,-1
 64 192 l 1,11,-1
 128 192 l 1,12,-1
 192 192 l 1,13,-1
 192 256 l 1,14,-1
 128 256 l 1,15,-1
 64 256 l 1,16,-1
 0 256 l 1,17,-1
 0 320 l 1,18,-1
 64 320 l 1,19,-1
 128 320 l 1,20,-1
 192 320 l 1,21,-1
 256 320 l 1,22,-1
 320 320 l 1,23,-1
 320 256 l 1,24,-1
 320 192 l 1,25,-1
 256 192 l 1,26,-1
 256 128 l 1,27,-1
 192 128 l 1,28,-1
 128 128 l 1,29,-1
 128 64 l 1,30,-1
 192 64 l 1,31,-1
 256 64 l 1,0,-1
EndSplineSet
EndChar

StartChar: bar
Encoding: 124 124 93
Width: 192
GlyphClass: 1
Flags: W
LayerCount: 2
Fore
SplineSet
64 0 m 1,0,-1
 0 0 l 1,1,-1
 0 64 l 1,2,-1
 0 128 l 1,3,-1
 0 192 l 1,4,-1
 0 256 l 1,5,-1
 0 320 l 1,6,-1
 0 384 l 1,7,-1
 0 448 l 1,8,-1
 64 448 l 1,9,-1
 128 448 l 1,10,-1
 128 384 l 1,11,-1
 128 320 l 1,12,-1
 128 256 l 1,13,-1
 128 192 l 1,14,-1
 128 128 l 1,15,-1
 128 64 l 1,16,-1
 128 0 l 1,17,-1
 64 0 l 1,0,-1
EndSplineSet
EndChar

StartChar: asciitilde
Encoding: 126 126 94
Width: 384
GlyphClass: 1
Flags: W
LayerCount: 2
Fore
SplineSet
192 64 m 1,0,-1
 192 128 l 1,1,-1
 128 128 l 1,2,-1
 128 64 l 1,3,-1
 64 64 l 1,4,-1
 0 64 l 1,5,-1
 0 128 l 1,6,-1
 0 192 l 1,7,-1
 64 192 l 1,8,-1
 64 256 l 1,9,-1
 128 256 l 1,10,-1
 128 192 l 1,11,-1
 192 192 l 1,12,-1
 192 256 l 1,13,-1
 256 256 l 1,14,-1
 320 256 l 1,15,-1
 320 192 l 1,16,-1
 320 128 l 1,17,-1
 256 128 l 1,18,-1
 256 64 l 1,19,-1
 192 64 l 1,0,-1
EndSplineSet
EndChar

StartChar: cent
Encoding: 162 162 96
Width: 384
GlyphClass: 1
Flags: W
LayerCount: 2
Fore
SplineSet
128 0 m 1,0,-1
 128 64 l 1,1,-1
 64 64 l 1,2,-1
 64 128 l 1,3,-1
 0 128 l 1,4,-1
 0 192 l 1,5,-1
 0 256 l 1,6,-1
 0 320 l 1,7,-1
 64 320 l 1,8,-1
 64 384 l 1,9,-1
 128 384 l 1,10,-1
 128 448 l 1,11,-1
 192 448 l 1,12,-1
 192 384 l 1,13,-1
 256 384 l 1,14,-1
 320 384 l 1,15,-1
 320 320 l 1,16,-1
 320 256 l 1,17,-1
 256 256 l 1,18,-1
 256 320 l 1,19,-1
 192 320 l 1,20,-1
 128 320 l 1,21,-1
 128 256 l 1,22,-1
 128 192 l 1,23,-1
 128 128 l 1,24,-1
 192 128 l 1,25,-1
 256 128 l 1,26,-1
 256 192 l 1,27,-1
 320 192 l 1,28,-1
 320 128 l 1,29,-1
 320 64 l 1,30,-1
 256 64 l 1,31,-1
 192 64 l 1,32,-1
 192 0 l 1,33,-1
 128 0 l 1,0,-1
EndSplineSet
EndChar

StartChar: sterling
Encoding: 163 163 97
Width: 448
GlyphClass: 1
Flags: W
LayerCount: 2
Fore
SplineSet
320 64 m 1,0,-1
 384 64 l 1,1,-1
 384 0 l 1,2,-1
 320 0 l 1,3,-1
 256 0 l 1,4,-1
 192 0 l 1,5,-1
 128 0 l 1,6,-1
 64 0 l 1,7,-1
 0 0 l 1,8,-1
 0 64 l 1,9,-1
 64 64 l 1,10,-1
 64 128 l 1,11,-1
 64 192 l 1,12,-1
 0 192 l 1,13,-1
 0 256 l 1,14,-1
 64 256 l 1,15,-1
 64 320 l 1,16,-1
 128 320 l 1,17,-1
 128 384 l 1,18,-1
 128 448 l 1,19,-1
 192 448 l 1,20,-1
 256 448 l 1,21,-1
 320 448 l 1,22,-1
 384 448 l 1,23,-1
 384 384 l 1,24,-1
 384 320 l 1,25,-1
 320 320 l 1,26,-1
 256 320 l 1,27,-1
 256 384 l 1,28,-1
 192 384 l 1,29,-1
 192 320 l 1,30,-1
 192 256 l 1,31,-1
 256 256 l 1,32,-1
 256 192 l 1,33,-1
 192 192 l 1,34,-1
 192 128 l 1,35,-1
 192 64 l 1,36,-1
 256 64 l 1,37,-1
 320 64 l 1,0,-1
EndSplineSet
EndChar

StartChar: copyright
Encoding: 169 169 98
Width: 640
GlyphClass: 1
Flags: W
LayerCount: 2
Fore
SplineSet
384 0 m 1,0,-1
 320 0 l 1,1,-1
 256 0 l 1,2,-1
 192 0 l 1,3,-1
 128 0 l 1,4,-1
 128 64 l 1,5,-1
 64 64 l 1,6,-1
 64 128 l 1,7,-1
 0 128 l 1,8,-1
 0 192 l 1,9,-1
 0 256 l 1,10,-1
 0 320 l 1,11,-1
 64 320 l 1,12,-1
 64 384 l 1,13,-1
 128 384 l 1,14,-1
 128 448 l 1,15,-1
 192 448 l 1,16,-1
 256 448 l 1,17,-1
 320 448 l 1,18,-1
 384 448 l 1,19,-1
 448 448 l 1,20,-1
 448 384 l 1,21,-1
 512 384 l 1,22,-1
 512 320 l 1,23,-1
 576 320 l 1,24,-1
 576 256 l 1,25,-1
 576 192 l 1,26,-1
 576 128 l 1,27,-1
 512 128 l 1,28,-1
 512 64 l 1,29,-1
 448 64 l 1,30,-1
 448 0 l 1,31,-1
 384 0 l 1,0,-1
320 64 m 1,32,-1
 384 64 l 1,33,-1
 384 128 l 1,34,-1
 320 128 l 1,35,-1
 256 128 l 1,36,-1
 192 128 l 1,37,-1
 192 192 l 1,38,-1
 192 256 l 1,39,-1
 192 320 l 1,40,-1
 128 320 l 1,41,-1
 128 256 l 1,42,-1
 128 192 l 1,43,-1
 128 128 l 1,44,-1
 192 128 l 1,45,-1
 192 64 l 1,46,-1
 256 64 l 1,47,-1
 320 64 l 1,32,-1
448 128 m 1,48,-1
 448 192 l 1,49,-1
 448 256 l 1,50,-1
 448 320 l 1,51,-1
 384 320 l 1,52,-1
 384 384 l 1,53,-1
 320 384 l 1,54,-1
 256 384 l 1,55,-1
 192 384 l 1,56,-1
 192 320 l 1,57,-1
 256 320 l 1,58,-1
 320 320 l 1,59,-1
 384 320 l 1,60,-1
 384 256 l 1,61,-1
 320 256 l 1,62,-1
 256 256 l 1,63,-1
 256 192 l 1,64,-1
 320 192 l 1,65,-1
 384 192 l 1,66,-1
 384 128 l 1,67,-1
 448 128 l 1,48,-1
EndSplineSet
EndChar

StartChar: registered
Encoding: 174 174 99
Width: 640
GlyphClass: 1
Flags: W
LayerCount: 2
Fore
SplineSet
384 0 m 1,0,-1
 320 0 l 1,1,-1
 256 0 l 1,2,-1
 192 0 l 1,3,-1
 128 0 l 1,4,-1
 128 64 l 1,5,-1
 64 64 l 1,6,-1
 64 128 l 1,7,-1
 0 128 l 1,8,-1
 0 192 l 1,9,-1
 0 256 l 1,10,-1
 0 320 l 1,11,-1
 64 320 l 1,12,-1
 64 384 l 1,13,-1
 128 384 l 1,14,-1
 128 448 l 1,15,-1
 192 448 l 1,16,-1
 256 448 l 1,17,-1
 320 448 l 1,18,-1
 384 448 l 1,19,-1
 448 448 l 1,20,-1
 448 384 l 1,21,-1
 512 384 l 1,22,-1
 512 320 l 1,23,-1
 576 320 l 1,24,-1
 576 256 l 1,25,-1
 576 192 l 1,26,-1
 576 128 l 1,27,-1
 512 128 l 1,28,-1
 512 64 l 1,29,-1
 448 64 l 1,30,-1
 448 0 l 1,31,-1
 384 0 l 1,0,-1
320 64 m 1,32,-1
 384 64 l 1,33,-1
 384 128 l 1,34,-1
 320 128 l 1,35,-1
 320 192 l 1,36,-1
 256 192 l 1,37,-1
 256 128 l 1,38,-1
 192 128 l 1,39,-1
 192 192 l 1,40,-1
 192 256 l 1,41,-1
 192 320 l 1,42,-1
 128 320 l 1,43,-1
 128 256 l 1,44,-1
 128 192 l 1,45,-1
 128 128 l 1,46,-1
 192 128 l 1,47,-1
 192 64 l 1,48,-1
 256 64 l 1,49,-1
 320 64 l 1,32,-1
448 128 m 1,50,-1
 448 192 l 1,51,-1
 448 256 l 1,52,-1
 448 320 l 1,53,-1
 384 320 l 1,54,-1
 384 384 l 1,55,-1
 320 384 l 1,56,-1
 256 384 l 1,57,-1
 192 384 l 1,58,-1
 192 320 l 1,59,-1
 256 320 l 1,60,-1
 320 320 l 1,61,-1
 384 320 l 1,62,-1
 384 256 l 1,63,-1
 320 256 l 1,64,-1
 320 192 l 1,65,-1
 384 192 l 1,66,-1
 384 128 l 1,67,-1
 448 128 l 1,50,-1
EndSplineSet
EndChar

StartChar: degree
Encoding: 176 176 100
Width: 320
GlyphClass: 1
Flags: W
LayerCount: 2
Fore
SplineSet
128 256 m 1,0,-1
 64 256 l 1,1,-1
 64 320 l 1,2,-1
 0 320 l 1,3,-1
 0 384 l 1,4,-1
 64 384 l 1,5,-1
 64 448 l 1,6,-1
 128 448 l 1,7,-1
 192 448 l 1,8,-1
 192 384 l 1,9,-1
 256 384 l 1,10,-1
 256 320 l 1,11,-1
 192 320 l 1,12,-1
 192 384 l 1,13,-1
 128 384 l 1,14,-1
 128 320 l 1,15,-1
 192 320 l 1,16,-1
 192 256 l 1,17,-1
 128 256 l 1,0,-1
EndSplineSet
EndChar

StartChar: Euro
Encoding: 8364 8364 101
Width: 512
GlyphClass: 1
Flags: W
LayerCount: 2
Fore
SplineSet
384 320 m 1,0,-1
 384 384 l 1,1,-1
 320 384 l 1,2,-1
 256 384 l 1,3,-1
 192 384 l 1,4,-1
 192 320 l 1,5,-1
 256 320 l 1,6,-1
 320 320 l 1,7,-1
 320 256 l 1,8,-1
 256 256 l 1,9,-1
 192 256 l 1,10,-1
 192 192 l 1,11,-1
 256 192 l 1,12,-1
 320 192 l 1,13,-1
 320 128 l 1,14,-1
 256 128 l 1,15,-1
 192 128 l 1,16,-1
 192 64 l 1,17,-1
 256 64 l 1,18,-1
 320 64 l 1,19,-1
 384 64 l 1,20,-1
 384 128 l 1,21,-1
 448 128 l 1,22,-1
 448 64 l 1,23,-1
 448 0 l 1,24,-1
 384 0 l 1,25,-1
 320 0 l 1,26,-1
 256 0 l 1,27,-1
 192 0 l 1,28,-1
 128 0 l 1,29,-1
 128 64 l 1,30,-1
 64 64 l 1,31,-1
 64 128 l 1,32,-1
 0 128 l 1,33,-1
 0 192 l 1,34,-1
 64 192 l 1,35,-1
 64 256 l 1,36,-1
 0 256 l 1,37,-1
 0 320 l 1,38,-1
 64 320 l 1,39,-1
 64 384 l 1,40,-1
 128 384 l 1,41,-1
 128 448 l 1,42,-1
 192 448 l 1,43,-1
 256 448 l 1,44,-1
 320 448 l 1,45,-1
 384 448 l 1,46,-1
 448 448 l 1,47,-1
 448 384 l 1,48,-1
 448 320 l 1,49,-1
 384 320 l 1,0,-1
EndSplineSet
EndChar

StartChar: uni0410
Encoding: 1040 1040 103
Width: 448
GlyphClass: 1
Flags: W
LayerCount: 2
Fore
SplineSet
320 0 m 1,0,-1
 256 0 l 1,1,-1
 256 64 l 1,2,-1
 256 128 l 1,3,-1
 192 128 l 1,4,-1
 128 128 l 1,5,-1
 128 64 l 1,6,-1
 128 0 l 1,7,-1
 64 0 l 1,8,-1
 0 0 l 1,9,-1
 0 64 l 1,10,-1
 0 128 l 1,11,-1
 64 128 l 1,12,-1
 64 192 l 1,13,-1
 64 256 l 1,14,-1
 128 256 l 1,15,-1
 128 320 l 1,16,-1
 128 384 l 1,17,-1
 192 384 l 1,18,-1
 192 448 l 1,19,-1
 256 448 l 1,20,-1
 320 448 l 1,21,-1
 384 448 l 1,22,-1
 384 384 l 1,23,-1
 384 320 l 1,24,-1
 384 256 l 1,25,-1
 384 192 l 1,26,-1
 384 128 l 1,27,-1
 384 64 l 1,28,-1
 384 0 l 1,29,-1
 320 0 l 1,0,-1
256 192 m 1,30,-1
 256 256 l 1,31,-1
 256 320 l 1,32,-1
 256 384 l 1,33,-1
 192 384 l 1,34,-1
 192 320 l 1,35,-1
 192 256 l 1,36,-1
 192 192 l 1,37,-1
 256 192 l 1,30,-1
EndSplineSet
EndChar

StartChar: uni0411
Encoding: 1041 1041 104
Width: 512
GlyphClass: 1
Flags: W
LayerCount: 2
Fore
SplineSet
128 384 m 1,0,-1
 128 320 l 1,1,-1
 192 320 l 1,2,-1
 192 192 l 1,3,-1
 384 192 l 1,4,-1
 384 128 l 1,5,-1
 448 128 l 1,6,-1
 448 64 l 1,7,-1
 384 64 l 1,8,-1
 384 0 l 1,9,-1
 0 0 l 1,10,-1
 0 64 l 1,11,-1
 64 64 l 1,12,-1
 64 384 l 1,13,-1
 0 384 l 1,14,-1
 0 448 l 1,15,-1
 384 448 l 1,16,-1
 384 384 l 1,17,-1
 128 384 l 1,0,-1
320 64 m 1,18,-1
 320 128 l 1,19,-1
 192 128 l 1,20,-1
 192 64 l 1,21,-1
 320 64 l 1,18,-1
EndSplineSet
EndChar

StartChar: uni0412
Encoding: 1042 1042 105
Width: 512
GlyphClass: 1
Flags: W
LayerCount: 2
Fore
SplineSet
320 0 m 1,0,-1
 256 0 l 1,1,-1
 192 0 l 1,2,-1
 128 0 l 1,3,-1
 64 0 l 1,4,-1
 0 0 l 1,5,-1
 0 64 l 1,6,-1
 64 64 l 1,7,-1
 64 128 l 1,8,-1
 64 192 l 1,9,-1
 64 256 l 1,10,-1
 64 320 l 1,11,-1
 64 384 l 1,12,-1
 0 384 l 1,13,-1
 0 448 l 1,14,-1
 64 448 l 1,15,-1
 128 448 l 1,16,-1
 192 448 l 1,17,-1
 256 448 l 1,18,-1
 320 448 l 1,19,-1
 384 448 l 1,20,-1
 384 384 l 1,21,-1
 448 384 l 1,22,-1
 448 320 l 1,23,-1
 448 256 l 1,24,-1
 448 192 l 1,25,-1
 384 192 l 1,26,-1
 384 128 l 1,27,-1
 448 128 l 1,28,-1
 448 64 l 1,29,-1
 384 64 l 1,30,-1
 384 0 l 1,31,-1
 320 0 l 1,0,-1
256 64 m 1,32,-1
 320 64 l 1,33,-1
 320 128 l 1,34,-1
 256 128 l 1,35,-1
 192 128 l 1,36,-1
 192 64 l 1,37,-1
 256 64 l 1,32,-1
256 192 m 1,38,-1
 320 192 l 1,39,-1
 320 256 l 1,40,-1
 320 320 l 1,41,-1
 320 384 l 1,42,-1
 256 384 l 1,43,-1
 192 384 l 1,44,-1
 128 384 l 1,45,-1
 128 320 l 1,46,-1
 192 320 l 1,47,-1
 192 256 l 1,48,-1
 192 192 l 1,49,-1
 256 192 l 1,38,-1
EndSplineSet
EndChar

StartChar: uni0413
Encoding: 1043 1043 106
Width: 448
GlyphClass: 1
Flags: W
LayerCount: 2
Fore
SplineSet
128 0 m 1,0,-1
 0 0 l 1,1,-1
 0 448 l 1,2,-1
 128 448 l 1,3,-1
 128 384 l 1,4,-1
 64 384 l 1,5,-1
 64 320 l 1,6,-1
 128 320 l 1,7,-1
 128 0 l 1,0,-1
128 448 m 1,8,-1
 384 448 l 1,9,-1
 384 384 l 1,10,-1
 128 384 l 1,11,-1
 128 448 l 1,8,-1
EndSplineSet
EndChar

StartChar: uni0414
Encoding: 1044 1044 107
Width: 576
GlyphClass: 1
Flags: W
LayerCount: 2
Fore
SplineSet
256 384 m 1,0,-1
 256 128 l 1,1,-1
 192 128 l 1,2,-1
 192 64 l 1,3,-1
 320 64 l 1,4,-1
 320 384 l 1,5,-1
 256 384 l 1,0,-1
256 384 m 1,6,-1
 256 448 l 1,7,-1
 448 448 l 1,8,-1
 448 64 l 1,9,-1
 512 64 l 1,10,-1
 512 -64 l 1,11,-1
 384 -64 l 1,12,-1
 384 0 l 1,13,-1
 128 0 l 1,14,-1
 128 -64 l 1,15,-1
 0 -64 l 1,16,-1
 0 64 l 1,17,-1
 64 64 l 1,18,-1
 64 128 l 1,19,-1
 128 128 l 1,20,-1
 128 256 l 1,21,-1
 192 256 l 1,22,-1
 192 384 l 1,23,-1
 256 384 l 1,6,-1
EndSplineSet
EndChar

StartChar: uni0415
Encoding: 1045 1045 108
Width: 448
GlyphClass: 1
Flags: W
LayerCount: 2
Fore
SplineSet
320 64 m 1,0,-1
 384 64 l 1,1,-1
 384 0 l 1,2,-1
 320 0 l 1,3,-1
 256 0 l 1,4,-1
 192 0 l 1,5,-1
 128 0 l 1,6,-1
 64 0 l 1,7,-1
 0 0 l 1,8,-1
 0 64 l 1,9,-1
 0 128 l 1,10,-1
 0 192 l 1,11,-1
 0 256 l 1,12,-1
 0 320 l 1,13,-1
 0 384 l 1,14,-1
 0 448 l 1,15,-1
 64 448 l 1,16,-1
 128 448 l 1,17,-1
 192 448 l 1,18,-1
 256 448 l 1,19,-1
 320 448 l 1,20,-1
 384 448 l 1,21,-1
 384 384 l 1,22,-1
 320 384 l 1,23,-1
 256 384 l 1,24,-1
 192 384 l 1,25,-1
 128 384 l 1,26,-1
 64 384 l 1,27,-1
 64 320 l 1,28,-1
 128 320 l 1,29,-1
 128 256 l 1,30,-1
 128 192 l 1,31,-1
 192 192 l 1,32,-1
 256 192 l 1,33,-1
 320 192 l 1,34,-1
 320 128 l 1,35,-1
 256 128 l 1,36,-1
 192 128 l 1,37,-1
 128 128 l 1,38,-1
 128 64 l 1,39,-1
 192 64 l 1,40,-1
 256 64 l 1,41,-1
 320 64 l 1,0,-1
EndSplineSet
EndChar

StartChar: uni0416
Encoding: 1046 1046 109
Width: 708
GlyphClass: 1
Flags: W
LayerCount: 2
Fore
SplineSet
0 0 m 1,0,-1
 0 128 l 1,1,-1
 64 128 l 1,2,-1
 64 192 l 1,3,-1
 128 192 l 1,4,-1
 128 0 l 1,5,-1
 0 0 l 1,0,-1
256 128 m 1,6,-1
 192 128 l 1,7,-1
 192 256 l 1,8,-1
 256 256 l 1,9,-1
 256 128 l 1,6,-1
128 320 m 1,10,-1
 192 320 l 1,11,-1
 192 192 l 1,12,-1
 128 192 l 1,13,-1
 128 320 l 1,10,-1
64 256 m 1,14,-1
 64 320 l 1,15,-1
 0 320 l 1,16,-1
 0 448 l 1,17,-1
 128 448 l 1,18,-1
 128 256 l 1,19,-1
 64 256 l 1,14,-1
512 0 m 1,20,-1
 512 192 l 1,21,-1
 576 192 l 1,22,-1
 576 128 l 1,23,-1
 640 128 l 1,24,-1
 640 0 l 1,25,-1
 512 0 l 1,20,-1
384 192 m 1,26,-1
 448 192 l 1,27,-1
 448 128 l 1,28,-1
 384 128 l 1,29,-1
 384 192 l 1,26,-1
384 128 m 1,30,-1
 320 128 l 1,31,-1
 320 64 l 1,32,-1
 384 64 l 1,33,-1
 384 0 l 1,34,-1
 256 0 l 1,35,-1
 256 448 l 1,36,-1
 384 448 l 1,37,-1
 384 128 l 1,30,-1
512 192 m 1,38,-1
 448 192 l 1,39,-1
 448 256 l 1,40,-1
 512 256 l 1,41,-1
 512 192 l 1,38,-1
512 256 m 1,42,-1
 512 448 l 1,43,-1
 640 448 l 1,44,-1
 640 320 l 1,45,-1
 576 320 l 1,46,-1
 576 256 l 1,47,-1
 512 256 l 1,42,-1
EndSplineSet
EndChar

StartChar: uni0417
Encoding: 1047 1047 110
Width: 448
GlyphClass: 1
Flags: W
LayerCount: 2
Fore
SplineSet
192 128 m 1,0,-1
 256 128 l 1,1,-1
 256 64 l 1,2,-1
 0 64 l 1,3,-1
 0 0 l 1,4,-1
 320 0 l 1,5,-1
 320 64 l 1,6,-1
 384 64 l 1,7,-1
 384 128 l 1,8,-1
 320 128 l 1,9,-1
 320 192 l 1,10,-1
 384 192 l 1,11,-1
 384 384 l 1,12,-1
 320 384 l 1,13,-1
 320 448 l 1,14,-1
 0 448 l 1,15,-1
 0 384 l 1,16,-1
 256 384 l 1,17,-1
 256 192 l 1,18,-1
 192 192 l 1,19,-1
 192 128 l 1,0,-1
64 320 m 1,20,-1
 64 384 l 1,21,-1
 0 384 l 1,22,-1
 0 320 l 1,23,-1
 64 320 l 1,20,-1
192 128 m 1,24,-1
 192 192 l 1,25,-1
 128 192 l 1,26,-1
 128 128 l 1,27,-1
 192 128 l 1,24,-1
EndSplineSet
EndChar

StartChar: uni0418
Encoding: 1048 1048 111
Width: 448
GlyphClass: 1
Flags: W
LayerCount: 2
Fore
SplineSet
256 384 m 1,0,-1
 256 448 l 1,1,-1
 384 448 l 1,2,-1
 384 0 l 1,3,-1
 256 0 l 1,4,-1
 256 256 l 1,5,-1
 192 256 l 1,6,-1
 192 192 l 1,7,-1
 64 192 l 1,8,-1
 64 128 l 1,9,-1
 128 128 l 1,10,-1
 128 0 l 1,11,-1
 0 0 l 1,12,-1
 0 448 l 1,13,-1
 128 448 l 1,14,-1
 128 320 l 1,15,-1
 192 320 l 1,16,-1
 192 384 l 1,17,-1
 256 384 l 1,0,-1
EndSplineSet
EndChar

StartChar: uni0419
Encoding: 1049 1049 112
Width: 448
GlyphClass: 1
Flags: W
LayerCount: 2
Fore
SplineSet
256 384 m 1,0,-1
 256 448 l 1,1,-1
 384 448 l 1,2,-1
 384 0 l 1,3,-1
 256 0 l 1,4,-1
 256 256 l 1,5,-1
 192 256 l 1,6,-1
 192 192 l 1,7,-1
 64 192 l 1,8,-1
 64 128 l 1,9,-1
 128 128 l 1,10,-1
 128 0 l 1,11,-1
 0 0 l 1,12,-1
 0 448 l 1,13,-1
 128 448 l 1,14,-1
 128 320 l 1,15,-1
 192 320 l 1,16,-1
 192 384 l 1,17,-1
 256 384 l 1,0,-1
192 576 m 1,18,-1
 192 640 l 1,19,-1
 64 640 l 1,20,-1
 64 576 l 1,21,-1
 128 576 l 1,22,-1
 128 512 l 1,23,-1
 320 512 l 1,24,-1
 320 576 l 1,25,-1
 384 576 l 1,26,-1
 384 640 l 1,27,-1
 256 640 l 1,28,-1
 256 576 l 1,29,-1
 192 576 l 1,18,-1
EndSplineSet
EndChar

StartChar: uni041A
Encoding: 1050 1050 113
Width: 448
GlyphClass: 1
Flags: W
LayerCount: 2
Fore
SplineSet
320 0 m 1,0,-1
 256 0 l 1,1,-1
 256 64 l 1,2,-1
 256 128 l 1,3,-1
 256 192 l 1,4,-1
 320 192 l 1,5,-1
 320 128 l 1,6,-1
 384 128 l 1,7,-1
 384 64 l 1,8,-1
 384 0 l 1,9,-1
 320 0 l 1,0,-1
64 0 m 1,10,-1
 0 0 l 1,11,-1
 0 64 l 1,12,-1
 0 128 l 1,13,-1
 0 192 l 1,14,-1
 0 256 l 1,15,-1
 0 320 l 1,16,-1
 0 384 l 1,17,-1
 0 448 l 1,18,-1
 64 448 l 1,19,-1
 128 448 l 1,20,-1
 128 384 l 1,21,-1
 128 320 l 1,22,-1
 128 256 l 1,23,-1
 128 192 l 1,24,-1
 192 192 l 1,25,-1
 192 128 l 1,26,-1
 128 128 l 1,27,-1
 64 128 l 1,28,-1
 64 64 l 1,29,-1
 128 64 l 1,30,-1
 128 0 l 1,31,-1
 64 0 l 1,10,-1
256 192 m 1,32,-1
 192 192 l 1,33,-1
 192 256 l 1,34,-1
 256 256 l 1,35,-1
 256 192 l 1,32,-1
256 256 m 1,36,-1
 256 320 l 1,37,-1
 256 384 l 1,38,-1
 256 448 l 1,39,-1
 320 448 l 1,40,-1
 384 448 l 1,41,-1
 384 384 l 1,42,-1
 384 320 l 1,43,-1
 320 320 l 1,44,-1
 320 256 l 1,45,-1
 256 256 l 1,36,-1
EndSplineSet
EndChar

StartChar: uni041B
Encoding: 1051 1051 114
Width: 512
GlyphClass: 1
Flags: W
LayerCount: 2
Fore
SplineSet
256 448 m 1,0,-1
 320 448 l 1,1,-1
 384 448 l 1,2,-1
 384 384 l 1,3,-1
 384 320 l 1,4,-1
 384 256 l 1,5,-1
 384 192 l 1,6,-1
 384 128 l 1,7,-1
 384 64 l 1,8,-1
 384 0 l 1,9,-1
 320 0 l 1,10,-1
 256 0 l 1,11,-1
 256 64 l 1,12,-1
 256 128 l 1,13,-1
 256 192 l 1,14,-1
 256 256 l 1,15,-1
 256 320 l 1,16,-1
 256 384 l 1,17,-1
 192 384 l 1,18,-1
 192 448 l 1,19,-1
 256 448 l 1,0,-1
192 384 m 1,20,-1
 192 320 l 1,21,-1
 192 256 l 1,22,-1
 192 192 l 1,23,-1
 192 128 l 1,24,-1
 128 128 l 1,25,-1
 128 64 l 1,26,-1
 128 0 l 1,27,-1
 64 0 l 1,28,-1
 0 0 l 1,29,-1
 0 64 l 1,30,-1
 0 128 l 1,31,-1
 64 128 l 1,32,-1
 64 192 l 1,33,-1
 64 256 l 1,34,-1
 128 256 l 1,35,-1
 128 320 l 1,36,-1
 128 384 l 1,37,-1
 192 384 l 1,20,-1
EndSplineSet
EndChar

StartChar: uni041C
Encoding: 1052 1052 115
Width: 448
GlyphClass: 1
Flags: W
LayerCount: 2
Fore
SplineSet
320 0 m 1,0,-1
 256 0 l 1,1,-1
 256 64 l 1,2,-1
 256 128 l 1,3,-1
 256 192 l 1,4,-1
 256 256 l 1,5,-1
 192 256 l 1,6,-1
 192 192 l 1,7,-1
 128 192 l 1,8,-1
 64 192 l 1,9,-1
 64 128 l 1,10,-1
 128 128 l 1,11,-1
 128 64 l 1,12,-1
 128 0 l 1,13,-1
 64 0 l 1,14,-1
 0 0 l 1,15,-1
 0 64 l 1,16,-1
 0 128 l 1,17,-1
 0 192 l 1,18,-1
 0 256 l 1,19,-1
 0 320 l 1,20,-1
 0 384 l 1,21,-1
 0 448 l 1,22,-1
 64 448 l 1,23,-1
 64 384 l 1,24,-1
 128 384 l 1,25,-1
 128 320 l 1,26,-1
 192 320 l 1,27,-1
 192 384 l 1,28,-1
 256 384 l 1,29,-1
 256 448 l 1,30,-1
 320 448 l 1,31,-1
 384 448 l 1,32,-1
 384 384 l 1,33,-1
 384 320 l 1,34,-1
 384 256 l 1,35,-1
 384 192 l 1,36,-1
 384 128 l 1,37,-1
 384 64 l 1,38,-1
 384 0 l 1,39,-1
 320 0 l 1,0,-1
EndSplineSet
EndChar

StartChar: uni041D
Encoding: 1053 1053 116
Width: 448
GlyphClass: 1
Flags: W
LayerCount: 2
Fore
SplineSet
320 0 m 1,0,-1
 256 0 l 1,1,-1
 256 64 l 1,2,-1
 256 128 l 1,3,-1
 192 128 l 1,4,-1
 128 128 l 1,5,-1
 64 128 l 1,6,-1
 64 64 l 1,7,-1
 128 64 l 1,8,-1
 128 0 l 1,9,-1
 64 0 l 1,10,-1
 0 0 l 1,11,-1
 0 64 l 1,12,-1
 0 128 l 1,13,-1
 0 192 l 1,14,-1
 0 256 l 1,15,-1
 0 320 l 1,16,-1
 0 384 l 1,17,-1
 0 448 l 1,18,-1
 64 448 l 1,19,-1
 128 448 l 1,20,-1
 128 384 l 1,21,-1
 128 320 l 1,22,-1
 128 256 l 1,23,-1
 128 192 l 1,24,-1
 192 192 l 1,25,-1
 256 192 l 1,26,-1
 256 256 l 1,27,-1
 256 320 l 1,28,-1
 256 384 l 1,29,-1
 256 448 l 1,30,-1
 320 448 l 1,31,-1
 384 448 l 1,32,-1
 384 384 l 1,33,-1
 384 320 l 1,34,-1
 384 256 l 1,35,-1
 384 192 l 1,36,-1
 384 128 l 1,37,-1
 384 64 l 1,38,-1
 384 0 l 1,39,-1
 320 0 l 1,0,-1
EndSplineSet
EndChar

StartChar: uni041E
Encoding: 1054 1054 117
Width: 448
GlyphClass: 1
Flags: W
LayerCount: 2
Fore
SplineSet
256 0 m 1,0,-1
 192 0 l 1,1,-1
 128 0 l 1,2,-1
 64 0 l 1,3,-1
 64 64 l 1,4,-1
 0 64 l 1,5,-1
 0 128 l 1,6,-1
 0 192 l 1,7,-1
 0 256 l 1,8,-1
 0 320 l 1,9,-1
 0 384 l 1,10,-1
 64 384 l 1,11,-1
 64 448 l 1,12,-1
 128 448 l 1,13,-1
 192 448 l 1,14,-1
 256 448 l 1,15,-1
 320 448 l 1,16,-1
 320 384 l 1,17,-1
 384 384 l 1,18,-1
 384 320 l 1,19,-1
 384 256 l 1,20,-1
 384 192 l 1,21,-1
 384 128 l 1,22,-1
 384 64 l 1,23,-1
 320 64 l 1,24,-1
 320 0 l 1,25,-1
 256 0 l 1,0,-1
192 64 m 1,26,-1
 256 64 l 1,27,-1
 256 128 l 1,28,-1
 256 192 l 1,29,-1
 256 256 l 1,30,-1
 256 320 l 1,31,-1
 256 384 l 1,32,-1
 192 384 l 1,33,-1
 128 384 l 1,34,-1
 128 320 l 1,35,-1
 128 256 l 1,36,-1
 128 192 l 1,37,-1
 128 128 l 1,38,-1
 128 64 l 1,39,-1
 192 64 l 1,26,-1
EndSplineSet
EndChar

StartChar: uni041F
Encoding: 1055 1055 118
Width: 448
GlyphClass: 1
Flags: W
LayerCount: 2
Fore
SplineSet
128 384 m 1,0,-1
 128 384 l 1,1,-1
 64 384 l 1,2,-1
 64 320 l 1,3,-1
 128 320 l 1,4,-1
 128 0 l 1,5,-1
 0 0 l 1,6,-1
 0 448 l 1,7,-1
 384 448 l 1,8,-1
 384 0 l 1,9,-1
 256 0 l 1,10,-1
 256 384 l 1,11,-1
 128 384 l 1,0,-1
EndSplineSet
EndChar

StartChar: uni0420
Encoding: 1056 1056 119
Width: 512
GlyphClass: 1
Flags: W
LayerCount: 2
Fore
SplineSet
64 0 m 1,0,-1
 0 0 l 1,1,-1
 0 64 l 1,2,-1
 64 64 l 1,3,-1
 64 128 l 1,4,-1
 64 192 l 1,5,-1
 64 256 l 1,6,-1
 64 320 l 1,7,-1
 64 384 l 1,8,-1
 0 384 l 1,9,-1
 0 448 l 1,10,-1
 64 448 l 1,11,-1
 128 448 l 1,12,-1
 192 448 l 1,13,-1
 256 448 l 1,14,-1
 320 448 l 1,15,-1
 384 448 l 1,16,-1
 384 384 l 1,17,-1
 448 384 l 1,18,-1
 448 320 l 1,19,-1
 448 256 l 1,20,-1
 448 192 l 1,21,-1
 384 192 l 1,22,-1
 384 128 l 1,23,-1
 320 128 l 1,24,-1
 256 128 l 1,25,-1
 192 128 l 1,26,-1
 192 64 l 1,27,-1
 128 64 l 1,28,-1
 128 0 l 1,29,-1
 64 0 l 1,0,-1
256 192 m 1,30,-1
 320 192 l 1,31,-1
 320 256 l 1,32,-1
 320 320 l 1,33,-1
 320 384 l 1,34,-1
 256 384 l 1,35,-1
 192 384 l 1,36,-1
 128 384 l 1,37,-1
 128 320 l 1,38,-1
 192 320 l 1,39,-1
 192 256 l 1,40,-1
 192 192 l 1,41,-1
 256 192 l 1,30,-1
EndSplineSet
EndChar

StartChar: uni0421
Encoding: 1057 1057 120
Width: 448
GlyphClass: 1
Flags: W
LayerCount: 2
Fore
SplineSet
320 320 m 1,0,-1
 320 384 l 1,1,-1
 256 384 l 1,2,-1
 192 384 l 1,3,-1
 128 384 l 1,4,-1
 128 320 l 1,5,-1
 128 256 l 1,6,-1
 128 192 l 1,7,-1
 128 128 l 1,8,-1
 128 64 l 1,9,-1
 192 64 l 1,10,-1
 256 64 l 1,11,-1
 320 64 l 1,12,-1
 320 128 l 1,13,-1
 384 128 l 1,14,-1
 384 64 l 1,15,-1
 384 0 l 1,16,-1
 320 0 l 1,17,-1
 256 0 l 1,18,-1
 192 0 l 1,19,-1
 128 0 l 1,20,-1
 64 0 l 1,21,-1
 64 64 l 1,22,-1
 0 64 l 1,23,-1
 0 128 l 1,24,-1
 0 192 l 1,25,-1
 0 256 l 1,26,-1
 0 320 l 1,27,-1
 0 384 l 1,28,-1
 64 384 l 1,29,-1
 64 448 l 1,30,-1
 128 448 l 1,31,-1
 192 448 l 1,32,-1
 256 448 l 1,33,-1
 320 448 l 1,34,-1
 384 448 l 1,35,-1
 384 384 l 1,36,-1
 384 320 l 1,37,-1
 320 320 l 1,0,-1
EndSplineSet
EndChar

StartChar: uni0422
Encoding: 1058 1058 121
Width: 448
GlyphClass: 1
Flags: W
LayerCount: 2
Fore
SplineSet
192 0 m 1,0,-1
 128 0 l 1,1,-1
 128 64 l 1,2,-1
 128 128 l 1,3,-1
 128 192 l 1,4,-1
 128 256 l 1,5,-1
 128 320 l 1,6,-1
 128 384 l 1,7,-1
 64 384 l 1,8,-1
 0 384 l 1,9,-1
 0 448 l 1,10,-1
 64 448 l 1,11,-1
 128 448 l 1,12,-1
 192 448 l 1,13,-1
 256 448 l 1,14,-1
 320 448 l 1,15,-1
 384 448 l 1,16,-1
 384 384 l 1,17,-1
 320 384 l 1,18,-1
 256 384 l 1,19,-1
 192 384 l 1,20,-1
 192 320 l 1,21,-1
 256 320 l 1,22,-1
 256 256 l 1,23,-1
 256 192 l 1,24,-1
 256 128 l 1,25,-1
 256 64 l 1,26,-1
 256 0 l 1,27,-1
 192 0 l 1,0,-1
EndSplineSet
EndChar

StartChar: uni0423
Encoding: 1059 1059 122
Width: 448
GlyphClass: 1
Flags: W
LayerCount: 2
Fore
SplineSet
192 128 m 1,0,-1
 128 128 l 1,1,-1
 128 128 l 1,2,-1
 128 192 l 1,3,-1
 64 192 l 1,4,-1
 64 256 l 1,5,-1
 0 256 l 1,6,-1
 0 256 l 1,7,-1
 0 320 l 1,8,-1
 0 384 l 1,9,-1
 0 448 l 1,10,-1
 64 448 l 1,11,-1
 128 448 l 1,12,-1
 128 384 l 1,13,-1
 128 320 l 1,14,-1
 128 256 l 1,15,-1
 128 256 l 1,16,-1
 192 256 l 1,17,-1
 192 192 l 1,18,-1
 256 192 l 1,19,-1
 256 128 l 1,20,-1
 256 128 l 1,21,-1
 192 128 l 1,0,-1
64 0 m 1,22,-1
 64 128 l 1,23,-1
 128 128 l 1,24,-1
 128 64 l 1,25,-1
 256 64 l 1,26,-1
 256 384 l 1,27,-1
 256 384 l 1,28,-1
 256 448 l 1,29,-1
 384 448 l 1,30,-1
 384 384 l 1,31,-1
 320 384 l 1,32,-1
 320 390 l 1,33,-1
 384 390 l 1,34,-1
 384 64 l 1,35,-1
 320 64 l 1,36,-1
 320 0 l 1,37,-1
 64 0 l 1,22,-1
EndSplineSet
EndChar

StartChar: uni0424
Encoding: 1060 1060 123
Width: 708
GlyphClass: 1
Flags: W
LayerCount: 2
Fore
SplineSet
256 0 m 1,0,-1
 256 0 l 1,1,-1
 256 0 l 1,2,-1
 256 0 l 1,3,-1
 256 64 l 1,4,-1
 256 128 l 1,5,-1
 256 192 l 1,6,-1
 256 256 l 1,7,-1
 256 320 l 1,8,-1
 192 320 l 1,9,-1
 192 384 l 1,10,-1
 256 384 l 1,11,-1
 320 384 l 1,12,-1
 384 384 l 1,13,-1
 448 384 l 1,14,-1
 512 384 l 1,15,-1
 576 384 l 1,16,-1
 576 320 l 1,17,-1
 640 320 l 1,18,-1
 640 256 l 1,19,-1
 640 192 l 1,20,-1
 640 128 l 1,21,-1
 576 128 l 1,22,-1
 576 64 l 1,23,-1
 512 64 l 1,24,-1
 448 64 l 1,25,-1
 384 64 l 1,26,-1
 384 0 l 1,27,-1
 320 0 l 1,28,-1
 320 0 l 1,29,-1
 256 0 l 1,0,-1
448 128 m 1,30,-1
 512 128 l 1,31,-1
 512 192 l 1,32,-1
 512 256 l 1,33,-1
 512 320 l 1,34,-1
 448 320 l 1,35,-1
 314 320 l 1,36,-1
 320 320 l 1,37,-1
 320 256 l 1,38,-1
 384 256 l 1,39,-1
 384 192 l 1,40,-1
 384 128 l 1,41,-1
 448 128 l 1,30,-1
384 448 m 1,42,-1
 384 448 l 1,43,-1
 384 448 l 1,44,-1
 384 448 l 1,45,-1
 384 384 l 1,46,-1
 314 320 l 1,47,-1
 314 256 l 1,48,-1
 384 192 l 1,49,-1
 384 128 l 1,50,-1
 448 128 l 1,51,-1
 448 64 l 1,52,-1
 384 64 l 1,53,-1
 320 64 l 1,54,-1
 256 64 l 1,55,-1
 192 64 l 1,56,-1
 128 64 l 1,57,-1
 64 64 l 1,58,-1
 64 128 l 1,59,-1
 0 128 l 1,60,-1
 0 192 l 1,61,-1
 0 256 l 1,62,-1
 0 320 l 1,63,-1
 64 320 l 1,64,-1
 64 384 l 1,65,-1
 128 384 l 1,66,-1
 192 384 l 1,67,-1
 256 384 l 1,68,-1
 256 448 l 1,69,-1
 320 448 l 1,70,-1
 320 448 l 1,71,-1
 384 448 l 1,42,-1
192 320 m 1,72,-1
 128 320 l 1,73,-1
 128 256 l 1,74,-1
 128 192 l 1,75,-1
 128 128 l 1,76,-1
 192 128 l 1,77,-1
 256 128 l 1,78,-1
 320 128 l 1,79,-1
 320 192 l 1,80,-1
 256 192 l 1,81,-1
 256 256 l 1,82,-1
 256 320 l 1,83,-1
 192 320 l 1,72,-1
EndSplineSet
EndChar

StartChar: uni0425
Encoding: 1061 1061 124
Width: 448
GlyphClass: 1
Flags: W
LayerCount: 2
Fore
SplineSet
320 0 m 1,0,-1
 256 0 l 1,1,-1
 256 64 l 1,2,-1
 192 64 l 1,3,-1
 192 128 l 1,4,-1
 128 128 l 1,5,-1
 128 64 l 1,6,-1
 128 0 l 1,7,-1
 64 0 l 1,8,-1
 0 0 l 1,9,-1
 0 64 l 1,10,-1
 64 64 l 1,11,-1
 64 128 l 1,12,-1
 128 128 l 1,13,-1
 128 192 l 1,14,-1
 64 192 l 1,15,-1
 64 256 l 1,16,-1
 0 256 l 1,17,-1
 0 320 l 1,18,-1
 0 384 l 1,19,-1
 0 448 l 1,20,-1
 64 448 l 1,21,-1
 128 448 l 1,22,-1
 128 384 l 1,23,-1
 128 320 l 1,24,-1
 128 256 l 1,25,-1
 192 256 l 1,26,-1
 192 192 l 1,27,-1
 256 192 l 1,28,-1
 256 128 l 1,29,-1
 320 128 l 1,30,-1
 320 64 l 1,31,-1
 384 64 l 1,32,-1
 384 0 l 1,33,-1
 320 0 l 1,0,-1
256 192 m 1,34,-1
 256 256 l 1,35,-1
 256 320 l 1,36,-1
 256 384 l 1,37,-1
 256 448 l 1,38,-1
 320 448 l 1,39,-1
 384 448 l 1,40,-1
 384 384 l 1,41,-1
 384 320 l 1,42,-1
 384 256 l 1,43,-1
 320 256 l 1,44,-1
 320 192 l 1,45,-1
 256 192 l 1,34,-1
EndSplineSet
EndChar

StartChar: uni0426
Encoding: 1062 1062 125
Width: 480
GlyphClass: 1
Flags: W
LayerCount: 2
Fore
SplineSet
320 64 m 1,0,-1
 448 64 l 1,1,-1
 448 -64 l 1,2,-1
 320 -64 l 1,3,-1
 320 64 l 1,0,-1
128 64 m 1,4,-1
 256 64 l 1,5,-1
 256 448 l 1,6,-1
 384 448 l 1,7,-1
 384 0 l 1,8,-1
 0 0 l 1,9,-1
 0 448 l 1,10,-1
 128 448 l 1,11,-1
 128 384 l 1,12,-1
 64 384 l 1,13,-1
 64 320 l 1,14,-1
 128 320 l 1,15,-1
 128 64 l 1,4,-1
EndSplineSet
EndChar

StartChar: uni0427
Encoding: 1063 1063 126
Width: 448
GlyphClass: 1
Flags: W
LayerCount: 2
Fore
SplineSet
256 192 m 1,0,-1
 64 192 l 1,1,-1
 64 256 l 1,2,-1
 0 256 l 1,3,-1
 0 448 l 1,4,-1
 128 448 l 1,5,-1
 128 256 l 1,6,-1
 256 256 l 1,7,-1
 256 448 l 1,8,-1
 320 448 l 1,9,-1
 320 384 l 1,10,-1
 384 384 l 1,11,-1
 384 0 l 1,12,-1
 256 0 l 1,13,-1
 256 192 l 1,0,-1
EndSplineSet
EndChar

StartChar: uni0428
Encoding: 1064 1064 127
Width: 704
GlyphClass: 1
Flags: W
LayerCount: 2
Fore
SplineSet
0 0 m 1,0,-1
 0 448 l 1,1,-1
 128 448 l 1,2,-1
 128 384 l 1,3,-1
 64 384 l 1,4,-1
 64 320 l 1,5,-1
 128 320 l 1,6,-1
 128 64 l 1,7,-1
 256 64 l 1,8,-1
 256 448 l 1,9,-1
 384 448 l 1,10,-1
 384 384 l 1,11,-1
 320 384 l 1,12,-1
 320 420 l 1,13,-1
 384 420 l 1,14,-1
 384 64 l 1,15,-1
 512 64 l 1,16,-1
 512 448 l 1,17,-1
 640 448 l 1,18,-1
 640 0 l 1,19,-1
 0 0 l 1,0,-1
EndSplineSet
EndChar

StartChar: uni0429
Encoding: 1065 1065 128
Width: 736
GlyphClass: 1
Flags: W
LayerCount: 2
Fore
SplineSet
576 64 m 1,0,-1
 640 64 l 1,1,-1
 640 64 l 1,2,-1
 704 64 l 1,3,-1
 704 -64 l 1,4,-1
 640 -64 l 1,5,-1
 640 -64 l 1,6,-1
 576 -64 l 1,7,-1
 576 64 l 1,0,-1
0 0 m 1,8,-1
 0 448 l 1,9,-1
 128 448 l 1,10,-1
 128 384 l 1,11,-1
 64 384 l 1,12,-1
 64 320 l 1,13,-1
 128 320 l 1,14,-1
 128 64 l 1,15,-1
 256 64 l 1,16,-1
 256 448 l 1,17,-1
 384 448 l 1,18,-1
 384 384 l 1,19,-1
 320 384 l 1,20,-1
 320 420 l 1,21,-1
 384 420 l 1,22,-1
 384 64 l 1,23,-1
 512 64 l 1,24,-1
 512 448 l 1,25,-1
 640 448 l 1,26,-1
 640 0 l 1,27,-1
 0 0 l 1,8,-1
EndSplineSet
EndChar

StartChar: uni042A
Encoding: 1066 1066 129
Width: 640
GlyphClass: 1
Flags: W
LayerCount: 2
Fore
SplineSet
320 64 m 1,0,-1
 320 128 l 1,1,-1
 448 128 l 1,2,-1
 448 64 l 1,3,-1
 320 64 l 1,0,-1
64 448 m 1,4,-1
 64 384 l 1,5,-1
 0 384 l 1,6,-1
 0 320 l 1,7,-1
 128 320 l 1,8,-1
 128 384 l 1,9,-1
 192 384 l 1,10,-1
 192 64 l 1,11,-1
 128 64 l 1,12,-1
 128 0 l 1,13,-1
 512 0 l 1,14,-1
 512 64 l 1,15,-1
 576 64 l 1,16,-1
 576 128 l 1,17,-1
 512 128 l 1,18,-1
 512 192 l 1,19,-1
 320 192 l 1,20,-1
 320 320 l 1,21,-1
 256 320 l 1,22,-1
 256 384 l 1,23,-1
 320 384 l 1,24,-1
 320 448 l 1,25,-1
 64 448 l 1,4,-1
EndSplineSet
EndChar

StartChar: uni042B
Encoding: 1067 1067 130
Width: 768
GlyphClass: 1
Flags: W
LayerCount: 2
Fore
SplineSet
192 192 m 1,0,-1
 192 320 l 1,1,-1
 128 320 l 1,2,-1
 128 384 l 1,3,-1
 192 384 l 1,4,-1
 192 448 l 1,5,-1
 0 448 l 1,6,-1
 0 384 l 1,7,-1
 64 384 l 1,8,-1
 64 64 l 1,9,-1
 0 64 l 1,10,-1
 0 0 l 1,11,-1
 384 0 l 1,12,-1
 384 64 l 1,13,-1
 448 64 l 1,14,-1
 448 128 l 1,15,-1
 384 128 l 1,16,-1
 384 192 l 1,17,-1
 192 192 l 1,0,-1
192 64 m 1,18,-1
 192 128 l 1,19,-1
 320 128 l 1,20,-1
 320 64 l 1,21,-1
 192 64 l 1,18,-1
704 0 m 1,22,-1
 704 64 l 1,23,-1
 640 64 l 1,24,-1
 640 420 l 1,25,-1
 576 420 l 1,26,-1
 576 384 l 1,27,-1
 640 384 l 1,28,-1
 640 448 l 1,29,-1
 448 448 l 1,30,-1
 448 384 l 1,31,-1
 512 384 l 1,32,-1
 512 64 l 1,33,-1
 448 64 l 1,34,-1
 448 0 l 1,35,-1
 704 0 l 1,22,-1
EndSplineSet
EndChar

StartChar: uni042C
Encoding: 1068 1068 131
Width: 512
GlyphClass: 1
Flags: W
LayerCount: 2
Fore
SplineSet
192 192 m 1,0,-1
 192 320 l 1,1,-1
 128 320 l 1,2,-1
 128 384 l 1,3,-1
 192 384 l 1,4,-1
 192 448 l 1,5,-1
 0 448 l 1,6,-1
 0 384 l 1,7,-1
 64 384 l 1,8,-1
 64 64 l 1,9,-1
 0 64 l 1,10,-1
 0 0 l 1,11,-1
 384 0 l 1,12,-1
 384 64 l 1,13,-1
 448 64 l 1,14,-1
 448 128 l 1,15,-1
 384 128 l 1,16,-1
 384 192 l 1,17,-1
 192 192 l 1,0,-1
192 64 m 1,18,-1
 192 128 l 1,19,-1
 320 128 l 1,20,-1
 320 64 l 1,21,-1
 192 64 l 1,18,-1
EndSplineSet
EndChar

StartChar: uni042D
Encoding: 1069 1069 132
Width: 448
GlyphClass: 1
Flags: W
LayerCount: 2
Fore
SplineSet
0 320 m 1,0,-1
 0 448 l 1,1,-1
 320 448 l 1,2,-1
 320 384 l 1,3,-1
 384 384 l 1,4,-1
 384 64 l 1,5,-1
 320 64 l 1,6,-1
 320 0 l 1,7,-1
 0 0 l 1,8,-1
 0 128 l 1,9,-1
 64 128 l 1,10,-1
 64 64 l 1,11,-1
 256 64 l 1,12,-1
 256 384 l 1,13,-1
 64 384 l 1,14,-1
 64 320 l 1,15,-1
 0 320 l 1,0,-1
256 128 m 1,16,-1
 64 128 l 1,17,-1
 64 192 l 1,18,-1
 256 192 l 1,19,-1
 256 128 l 1,16,-1
EndSplineSet
EndChar

StartChar: uni042E
Encoding: 1070 1070 133
Width: 768
GlyphClass: 1
Flags: W
LayerCount: 2
Fore
SplineSet
448 64 m 1,0,-1
 448 384 l 1,1,-1
 576 384 l 1,2,-1
 576 64 l 1,3,-1
 448 64 l 1,0,-1
320 128 m 1,4,-1
 320 64 l 1,5,-1
 384 64 l 1,6,-1
 384 0 l 1,7,-1
 640 0 l 1,8,-1
 640 64 l 1,9,-1
 704 64 l 1,10,-1
 704 384 l 1,11,-1
 640 384 l 1,12,-1
 640 448 l 1,13,-1
 384 448 l 1,14,-1
 384 384 l 1,15,-1
 320 384 l 1,16,-1
 320 192 l 1,17,-1
 192 192 l 1,18,-1
 192 320 l 1,19,-1
 128 320 l 1,20,-1
 128 384 l 1,21,-1
 256 384 l 1,22,-1
 256 448 l 1,23,-1
 0 448 l 1,24,-1
 0 384 l 1,25,-1
 64 384 l 1,26,-1
 64 64 l 1,27,-1
 0 64 l 1,28,-1
 0 0 l 1,29,-1
 256 0 l 1,30,-1
 256 64 l 1,31,-1
 192 64 l 1,32,-1
 192 128 l 1,33,-1
 320 128 l 1,4,-1
EndSplineSet
EndChar

StartChar: uni042F
Encoding: 1071 1071 134
Width: 512
GlyphClass: 1
Flags: W
LayerCount: 2
Fore
SplineSet
320 192 m 1,0,-1
 320 384 l 1,1,-1
 128 384 l 1,2,-1
 128 320 l 1,3,-1
 192 320 l 1,4,-1
 192 192 l 1,5,-1
 320 192 l 1,0,-1
320 0 m 1,6,-1
 320 128 l 1,7,-1
 192 128 l 1,8,-1
 192 64 l 1,9,-1
 128 64 l 1,10,-1
 128 0 l 1,11,-1
 0 0 l 1,12,-1
 0 64 l 1,13,-1
 64 64 l 1,14,-1
 64 128 l 1,15,-1
 128 128 l 1,16,-1
 128 192 l 1,17,-1
 64 192 l 1,18,-1
 64 384 l 1,19,-1
 128 384 l 1,20,-1
 128 448 l 1,21,-1
 448 448 l 1,22,-1
 448 0 l 1,23,-1
 320 0 l 1,6,-1
EndSplineSet
EndChar

StartChar: uni0430
Encoding: 1072 1072 135
Width: 512
GlyphClass: 1
Flags: W
LayerCount: 2
Fore
SplineSet
384 0 m 1,0,-1
 320 0 l 1,1,-1
 320 64 l 1,2,-1
 256 64 l 1,3,-1
 256 128 l 1,4,-1
 192 128 l 1,5,-1
 128 128 l 1,6,-1
 128 64 l 1,7,-1
 192 64 l 1,8,-1
 256 64 l 1,9,-1
 256 0 l 1,10,-1
 192 0 l 1,11,-1
 128 0 l 1,12,-1
 64 0 l 1,13,-1
 64 64 l 1,14,-1
 0 64 l 1,15,-1
 0 128 l 1,16,-1
 64 128 l 1,17,-1
 64 192 l 1,18,-1
 128 192 l 1,19,-1
 192 192 l 1,20,-1
 256 192 l 1,21,-1
 256 256 l 1,22,-1
 192 256 l 1,23,-1
 128 256 l 1,24,-1
 64 256 l 1,25,-1
 64 320 l 1,26,-1
 128 320 l 1,27,-1
 192 320 l 1,28,-1
 256 320 l 1,29,-1
 320 320 l 1,30,-1
 320 256 l 1,31,-1
 384 256 l 1,32,-1
 384 192 l 1,33,-1
 384 128 l 1,34,-1
 384 64 l 1,35,-1
 448 64 l 1,36,-1
 448 0 l 1,37,-1
 384 0 l 1,0,-1
EndSplineSet
EndChar

StartChar: uni0431
Encoding: 1073 1073 136
Width: 448
GlyphClass: 1
Flags: W
LayerCount: 2
Fore
SplineSet
192 192 m 1,0,-1
 192 256 l 1,1,-1
 320 256 l 1,2,-1
 320 192 l 1,3,-1
 384 192 l 1,4,-1
 384 64 l 1,5,-1
 320 64 l 1,6,-1
 320 0 l 1,7,-1
 128 0 l 1,8,-1
 128 64 l 1,9,-1
 256 64 l 1,10,-1
 256 192 l 1,11,-1
 192 192 l 1,0,-1
128 192 m 1,12,-1
 192 192 l 1,13,-1
 192 128 l 1,14,-1
 128 128 l 1,15,-1
 128 64 l 1,16,-1
 64 64 l 1,17,-1
 64 0 l 1,18,-1
 0 0 l 1,19,-1
 0 384 l 1,20,-1
 64 384 l 1,21,-1
 64 448 l 1,22,-1
 320 448 l 1,23,-1
 320 384 l 1,24,-1
 192 384 l 1,25,-1
 192 320 l 1,26,-1
 128 320 l 1,27,-1
 128 192 l 1,12,-1
EndSplineSet
EndChar

StartChar: uni0432
Encoding: 1074 1074 137
Width: 448
GlyphClass: 1
Flags: W
LayerCount: 2
Fore
SplineSet
128 64 m 1,0,-1
 256 64 l 1,1,-1
 256 192 l 1,2,-1
 192 192 l 1,3,-1
 192 128 l 1,4,-1
 128 128 l 1,5,-1
 128 192 l 1,6,-1
 192 192 l 1,7,-1
 192 256 l 1,8,-1
 320 256 l 1,9,-1
 320 192 l 1,10,-1
 384 192 l 1,11,-1
 384 64 l 1,12,-1
 320 64 l 1,13,-1
 320 0 l 1,14,-1
 128 0 l 1,15,-1
 128 64 l 1,0,-1
128 256 m 1,16,-1
 192 256 l 1,17,-1
 192 384 l 1,18,-1
 128 384 l 1,19,-1
 128 256 l 1,16,-1
256 384 m 1,20,-1
 320 384 l 1,21,-1
 320 320 l 1,22,-1
 256 320 l 1,23,-1
 256 192 l 1,24,-1
 128 192 l 1,25,-1
 128 64 l 1,26,-1
 64 64 l 1,27,-1
 64 0 l 1,28,-1
 0 0 l 1,29,-1
 0 384 l 1,30,-1
 64 384 l 1,31,-1
 64 448 l 1,32,-1
 256 448 l 1,33,-1
 256 384 l 1,20,-1
EndSplineSet
EndChar

StartChar: uni0433
Encoding: 1075 1075 138
Width: 384
GlyphClass: 1
Flags: W
LayerCount: 2
Fore
SplineSet
64 0 m 1,0,-1
 64 64 l 1,1,-1
 0 64 l 1,2,-1
 0 128 l 1,3,-1
 0 192 l 1,4,-1
 64 192 l 1,5,-1
 128 192 l 1,6,-1
 192 192 l 1,7,-1
 192 256 l 1,8,-1
 128 256 l 1,9,-1
 64 256 l 1,10,-1
 0 256 l 1,11,-1
 0 320 l 1,12,-1
 64 320 l 1,13,-1
 128 320 l 1,14,-1
 192 320 l 1,15,-1
 256 320 l 1,16,-1
 256 256 l 1,17,-1
 320 256 l 1,18,-1
 320 192 l 1,19,-1
 320 128 l 1,20,-1
 256 128 l 1,21,-1
 192 128 l 1,22,-1
 128 128 l 1,23,-1
 128 64 l 1,24,-1
 192 64 l 1,25,-1
 256 64 l 1,26,-1
 320 64 l 1,27,-1
 320 0 l 1,28,-1
 256 0 l 1,29,-1
 192 0 l 1,30,-1
 128 0 l 1,31,-1
 64 0 l 1,0,-1
EndSplineSet
EndChar

StartChar: uni0434
Encoding: 1076 1076 139
Width: 448
GlyphClass: 1
Flags: W
LayerCount: 2
Fore
SplineSet
256 -128 m 1,0,-1
 192 -128 l 1,1,-1
 128 -128 l 1,2,-1
 64 -128 l 1,3,-1
 64 -64 l 1,4,-1
 64 0 l 1,5,-1
 128 0 l 1,6,-1
 128 -64 l 1,7,-1
 192 -64 l 1,8,-1
 256 -64 l 1,9,-1
 256 0 l 1,10,-1
 256 64 l 1,11,-1
 192 64 l 1,12,-1
 128 64 l 1,13,-1
 64 64 l 1,14,-1
 64 128 l 1,15,-1
 0 128 l 1,16,-1
 0 192 l 1,17,-1
 0 256 l 1,18,-1
 64 256 l 1,19,-1
 64 320 l 1,20,-1
 128 320 l 1,21,-1
 192 320 l 1,22,-1
 256 320 l 1,23,-1
 320 320 l 1,24,-1
 320 256 l 1,25,-1
 384 256 l 1,26,-1
 384 192 l 1,27,-1
 384 128 l 1,28,-1
 384 64 l 1,29,-1
 384 0 l 1,30,-1
 384 -64 l 1,31,-1
 320 -64 l 1,32,-1
 320 -128 l 1,33,-1
 256 -128 l 1,0,-1
192 128 m 1,34,-1
 256 128 l 1,35,-1
 256 192 l 1,36,-1
 256 256 l 1,37,-1
 192 256 l 1,38,-1
 128 256 l 1,39,-1
 128 192 l 1,40,-1
 128 128 l 1,41,-1
 192 128 l 1,34,-1
EndSplineSet
EndChar

StartChar: uni0435
Encoding: 1077 1077 140
Width: 448
GlyphClass: 1
Flags: W
LayerCount: 2
Fore
SplineSet
256 64 m 1,0,-1
 320 64 l 1,1,-1
 320 0 l 1,2,-1
 256 0 l 1,3,-1
 192 0 l 1,4,-1
 128 0 l 1,5,-1
 64 0 l 1,6,-1
 64 64 l 1,7,-1
 0 64 l 1,8,-1
 0 128 l 1,9,-1
 0 192 l 1,10,-1
 0 256 l 1,11,-1
 64 256 l 1,12,-1
 64 320 l 1,13,-1
 128 320 l 1,14,-1
 192 320 l 1,15,-1
 256 320 l 1,16,-1
 320 320 l 1,17,-1
 320 256 l 1,18,-1
 384 256 l 1,19,-1
 384 192 l 1,20,-1
 320 192 l 1,21,-1
 320 128 l 1,22,-1
 256 128 l 1,23,-1
 192 128 l 1,24,-1
 128 128 l 1,25,-1
 128 64 l 1,26,-1
 192 64 l 1,27,-1
 256 64 l 1,0,-1
192 192 m 1,28,-1
 256 192 l 1,29,-1
 256 256 l 1,30,-1
 192 256 l 1,31,-1
 128 256 l 1,32,-1
 128 192 l 1,33,-1
 192 192 l 1,28,-1
EndSplineSet
EndChar

StartChar: uni0436
Encoding: 1078 1078 141
Width: 576
GlyphClass: 1
Flags: W
LayerCount: 2
Fore
SplineSet
384 128 m 1,0,-1
 448 128 l 1,1,-1
 448 64 l 1,2,-1
 512 64 l 1,3,-1
 512 0 l 1,4,-1
 384 0 l 1,5,-1
 384 128 l 1,0,-1
320 192 m 1,6,-1
 384 192 l 1,7,-1
 384 128 l 1,8,-1
 320 128 l 1,9,-1
 320 64 l 1,10,-1
 256 64 l 1,11,-1
 256 0 l 1,12,-1
 192 0 l 1,13,-1
 192 128 l 1,14,-1
 128 128 l 1,15,-1
 128 192 l 1,16,-1
 64 192 l 1,17,-1
 64 256 l 1,18,-1
 0 256 l 1,19,-1
 0 320 l 1,20,-1
 128 320 l 1,21,-1
 128 256 l 1,22,-1
 192 256 l 1,23,-1
 192 320 l 1,24,-1
 320 320 l 1,25,-1
 320 192 l 1,6,-1
384 192 m 1,26,-1
 384 320 l 1,27,-1
 512 320 l 1,28,-1
 512 256 l 1,29,-1
 448 256 l 1,30,-1
 448 192 l 1,31,-1
 384 192 l 1,26,-1
128 128 m 1,32,-1
 128 0 l 1,33,-1
 0 0 l 1,34,-1
 0 64 l 1,35,-1
 64 64 l 1,36,-1
 64 128 l 1,37,-1
 128 128 l 1,32,-1
EndSplineSet
EndChar

StartChar: uni0437
Encoding: 1079 1079 142
Width: 384
GlyphClass: 1
Flags: W
LayerCount: 2
Fore
SplineSet
0 192 m 1,0,-1
 0 256 l 1,1,-1
 0 320 l 1,2,-1
 64 320 l 1,3,-1
 128 320 l 1,4,-1
 192 320 l 1,5,-1
 256 320 l 1,6,-1
 256 256 l 1,7,-1
 320 256 l 1,8,-1
 320 192 l 1,9,-1
 320 192 l 1,10,-1
 256 192 l 1,11,-1
 256 128 l 1,12,-1
 320 128 l 1,13,-1
 320 64 l 1,14,-1
 256 64 l 1,15,-1
 256 0 l 1,16,-1
 192 0 l 1,17,-1
 128 0 l 1,18,-1
 64 0 l 1,19,-1
 0 0 l 1,20,-1
 0 64 l 1,21,-1
 64 64 l 1,22,-1
 128 64 l 1,23,-1
 192 64 l 1,24,-1
 192 128 l 1,25,-1
 128 128 l 1,26,-1
 64 128 l 1,27,-1
 64 192 l 1,28,-1
 128 192 l 1,29,-1
 192 192 l 1,30,-1
 192 192 l 1,31,-1
 192 256 l 1,32,-1
 128 256 l 1,33,-1
 64 256 l 1,34,-1
 64 192 l 1,35,-1
 0 192 l 1,0,-1
EndSplineSet
EndChar

StartChar: uni0438
Encoding: 1080 1080 143
Width: 448
GlyphClass: 1
Flags: W
LayerCount: 2
Fore
SplineSet
128 320 m 1,0,-1
 128 256 l 1,1,-1
 128 192 l 1,2,-1
 128 128 l 1,3,-1
 128 64 l 1,4,-1
 192 64 l 1,5,-1
 256 64 l 1,6,-1
 256 128 l 1,7,-1
 256 192 l 1,8,-1
 256 256 l 1,9,-1
 256 320 l 1,10,-1
 320 320 l 1,11,-1
 384 320 l 1,12,-1
 384 256 l 1,13,-1
 384 192 l 1,14,-1
 384 128 l 1,15,-1
 384 64 l 1,16,-1
 384 0 l 1,17,-1
 320 0 l 1,18,-1
 320 64 l 1,19,-1
 256 64 l 1,20,-1
 256 0 l 1,21,-1
 192 0 l 1,22,-1
 128 0 l 1,23,-1
 64 0 l 1,24,-1
 64 64 l 1,25,-1
 0 64 l 1,26,-1
 0 128 l 1,27,-1
 0 192 l 1,28,-1
 0 256 l 1,29,-1
 64 256 l 1,30,-1
 64 320 l 1,31,-1
 128 320 l 1,0,-1
EndSplineSet
EndChar

StartChar: uni0439
Encoding: 1081 1081 144
Width: 448
GlyphClass: 1
Flags: W
LayerCount: 2
Fore
SplineSet
128 320 m 1,0,-1
 128 256 l 1,1,-1
 128 192 l 1,2,-1
 128 128 l 1,3,-1
 128 64 l 1,4,-1
 192 64 l 1,5,-1
 256 64 l 1,6,-1
 256 128 l 1,7,-1
 256 192 l 1,8,-1
 256 256 l 1,9,-1
 256 320 l 1,10,-1
 320 320 l 1,11,-1
 384 320 l 1,12,-1
 384 256 l 1,13,-1
 384 192 l 1,14,-1
 384 128 l 1,15,-1
 384 64 l 1,16,-1
 384 0 l 1,17,-1
 320 0 l 1,18,-1
 320 64 l 1,19,-1
 256 64 l 1,20,-1
 256 0 l 1,21,-1
 192 0 l 1,22,-1
 128 0 l 1,23,-1
 64 0 l 1,24,-1
 64 64 l 1,25,-1
 0 64 l 1,26,-1
 0 128 l 1,27,-1
 0 192 l 1,28,-1
 0 256 l 1,29,-1
 64 256 l 1,30,-1
 64 320 l 1,31,-1
 128 320 l 1,0,-1
256 320 m 1,32,-1
 256 384 l 1,33,-1
 320 384 l 1,34,-1
 320 448 l 1,35,-1
 192 448 l 1,36,-1
 192 384 l 1,37,-1
 128 384 l 1,38,-1
 128 320 l 1,39,-1
 256 320 l 1,32,-1
EndSplineSet
EndChar

StartChar: uni043A
Encoding: 1082 1082 145
Width: 448
GlyphClass: 1
Flags: W
LayerCount: 2
Fore
SplineSet
128 320 m 1,0,-1
 128 192 l 1,1,-1
 192 192 l 1,2,-1
 192 128 l 1,3,-1
 128 128 l 1,4,-1
 128 64 l 1,5,-1
 64 64 l 1,6,-1
 64 0 l 1,7,-1
 0 0 l 1,8,-1
 0 320 l 1,9,-1
 128 320 l 1,0,-1
256 0 m 1,10,-1
 256 192 l 1,11,-1
 320 192 l 1,12,-1
 320 128 l 1,13,-1
 384 128 l 1,14,-1
 384 0 l 1,15,-1
 256 0 l 1,10,-1
256 192 m 1,16,-1
 192 192 l 1,17,-1
 192 256 l 1,18,-1
 256 256 l 1,19,-1
 256 192 l 1,16,-1
256 256 m 1,20,-1
 256 320 l 1,21,-1
 320 320 l 1,22,-1
 320 256 l 1,23,-1
 256 256 l 1,20,-1
EndSplineSet
EndChar

StartChar: uni043B
Encoding: 1083 1083 146
Width: 384
GlyphClass: 1
Flags: W
LayerCount: 2
Fore
SplineSet
256 320 m 1,0,-1
 320 320 l 1,1,-1
 320 256 l 1,2,-1
 320 192 l 1,3,-1
 320 128 l 1,4,-1
 320 64 l 1,5,-1
 320 0 l 1,6,-1
 256 0 l 1,7,-1
 192 0 l 1,8,-1
 192 64 l 1,9,-1
 192 128 l 1,10,-1
 192 192 l 1,11,-1
 128 192 l 1,12,-1
 128 256 l 1,13,-1
 192 256 l 1,14,-1
 192 320 l 1,15,-1
 256 320 l 1,0,-1
128 192 m 1,16,-1
 128 128 l 1,17,-1
 128 64 l 1,18,-1
 128 0 l 1,19,-1
 64 0 l 1,20,-1
 0 0 l 1,21,-1
 0 64 l 1,22,-1
 0 128 l 1,23,-1
 64 128 l 1,24,-1
 64 192 l 1,25,-1
 128 192 l 1,16,-1
EndSplineSet
EndChar

StartChar: uni043C
Encoding: 1084 1084 147
Width: 640
GlyphClass: 1
Flags: W
LayerCount: 2
Fore
SplineSet
128 192 m 1,0,-1
 128 0 l 1,1,-1
 0 0 l 1,2,-1
 0 128 l 1,3,-1
 64 128 l 1,4,-1
 64 192 l 1,5,-1
 128 192 l 1,0,-1
192 0 m 1,6,-1
 192 192 l 1,7,-1
 128 192 l 1,8,-1
 128 256 l 1,9,-1
 192 256 l 1,10,-1
 192 320 l 1,11,-1
 320 320 l 1,12,-1
 320 192 l 1,13,-1
 384 192 l 1,14,-1
 384 128 l 1,15,-1
 320 128 l 1,16,-1
 320 0 l 1,17,-1
 192 0 l 1,6,-1
576 320 m 1,18,-1
 576 0 l 1,19,-1
 448 0 l 1,20,-1
 448 192 l 1,21,-1
 384 192 l 1,22,-1
 384 256 l 1,23,-1
 448 256 l 1,24,-1
 448 320 l 1,25,-1
 576 320 l 1,18,-1
EndSplineSet
EndChar

StartChar: uni043D
Encoding: 1085 1085 148
Width: 448
GlyphClass: 1
Flags: W
LayerCount: 2
Fore
SplineSet
256 128 m 1,0,-1
 256 0 l 1,1,-1
 384 0 l 1,2,-1
 384 256 l 1,3,-1
 320 256 l 1,4,-1
 320 320 l 1,5,-1
 256 320 l 1,6,-1
 256 192 l 1,7,-1
 128 192 l 1,8,-1
 128 256 l 1,9,-1
 64 256 l 1,10,-1
 64 320 l 1,11,-1
 0 320 l 1,12,-1
 0 0 l 1,13,-1
 128 0 l 1,14,-1
 128 128 l 1,15,-1
 256 128 l 1,0,-1
EndSplineSet
EndChar

StartChar: uni043E
Encoding: 1086 1086 149
Width: 448
GlyphClass: 1
Flags: W
LayerCount: 2
Fore
SplineSet
256 0 m 1,0,-1
 192 0 l 1,1,-1
 128 0 l 1,2,-1
 64 0 l 1,3,-1
 64 64 l 1,4,-1
 0 64 l 1,5,-1
 0 128 l 1,6,-1
 0 192 l 1,7,-1
 0 256 l 1,8,-1
 64 256 l 1,9,-1
 64 320 l 1,10,-1
 128 320 l 1,11,-1
 192 320 l 1,12,-1
 256 320 l 1,13,-1
 320 320 l 1,14,-1
 320 256 l 1,15,-1
 384 256 l 1,16,-1
 384 192 l 1,17,-1
 384 128 l 1,18,-1
 384 64 l 1,19,-1
 320 64 l 1,20,-1
 320 0 l 1,21,-1
 256 0 l 1,0,-1
192 64 m 1,22,-1
 256 64 l 1,23,-1
 256 128 l 1,24,-1
 256 192 l 1,25,-1
 256 256 l 1,26,-1
 192 256 l 1,27,-1
 128 256 l 1,28,-1
 128 192 l 1,29,-1
 128 128 l 1,30,-1
 128 64 l 1,31,-1
 192 64 l 1,22,-1
EndSplineSet
EndChar

StartChar: uni043F
Encoding: 1087 1087 150
Width: 448
GlyphClass: 1
Flags: W
LayerCount: 2
Fore
SplineSet
256 0 m 1,0,-1
 256 64 l 1,1,-1
 256 128 l 1,2,-1
 256 192 l 1,3,-1
 256 256 l 1,4,-1
 192 256 l 1,5,-1
 128 256 l 1,6,-1
 128 192 l 1,7,-1
 128 128 l 1,8,-1
 128 64 l 1,9,-1
 128 0 l 1,10,-1
 64 0 l 1,11,-1
 0 0 l 1,12,-1
 0 64 l 1,13,-1
 0 128 l 1,14,-1
 0 192 l 1,15,-1
 0 256 l 1,16,-1
 0 320 l 1,17,-1
 64 320 l 1,18,-1
 64 256 l 1,19,-1
 128 256 l 1,20,-1
 128 320 l 1,21,-1
 192 320 l 1,22,-1
 256 320 l 1,23,-1
 320 320 l 1,24,-1
 320 256 l 1,25,-1
 384 256 l 1,26,-1
 384 192 l 1,27,-1
 384 128 l 1,28,-1
 384 64 l 1,29,-1
 320 64 l 1,30,-1
 320 0 l 1,31,-1
 256 0 l 1,0,-1
EndSplineSet
EndChar

StartChar: uni0440
Encoding: 1088 1088 151
Width: 448
GlyphClass: 1
Flags: W
LayerCount: 2
Fore
SplineSet
64 -128 m 1,0,-1
 64 -64 l 1,1,-1
 0 -64 l 1,2,-1
 0 0 l 1,3,-1
 0 64 l 1,4,-1
 0 128 l 1,5,-1
 0 192 l 1,6,-1
 0 256 l 1,7,-1
 64 256 l 1,8,-1
 64 320 l 1,9,-1
 128 320 l 1,10,-1
 128 256 l 1,11,-1
 192 256 l 1,12,-1
 192 320 l 1,13,-1
 256 320 l 1,14,-1
 320 320 l 1,15,-1
 320 256 l 1,16,-1
 384 256 l 1,17,-1
 384 192 l 1,18,-1
 384 128 l 1,19,-1
 384 64 l 1,20,-1
 320 64 l 1,21,-1
 320 0 l 1,22,-1
 256 0 l 1,23,-1
 192 0 l 1,24,-1
 128 0 l 1,25,-1
 128 -64 l 1,26,-1
 128 -128 l 1,27,-1
 64 -128 l 1,0,-1
192 64 m 1,28,-1
 256 64 l 1,29,-1
 256 128 l 1,30,-1
 256 192 l 1,31,-1
 256 256 l 1,32,-1
 192 256 l 1,33,-1
 192 192 l 1,34,-1
 128 192 l 1,35,-1
 128 128 l 1,36,-1
 128 64 l 1,37,-1
 192 64 l 1,28,-1
EndSplineSet
EndChar

StartChar: uni0441
Encoding: 1089 1089 152
Width: 384
GlyphClass: 1
Flags: W
LayerCount: 2
Fore
SplineSet
256 192 m 1,0,-1
 256 256 l 1,1,-1
 192 256 l 1,2,-1
 128 256 l 1,3,-1
 128 192 l 1,4,-1
 128 128 l 1,5,-1
 128 64 l 1,6,-1
 192 64 l 1,7,-1
 256 64 l 1,8,-1
 256 128 l 1,9,-1
 320 128 l 1,10,-1
 320 64 l 1,11,-1
 320 0 l 1,12,-1
 256 0 l 1,13,-1
 192 0 l 1,14,-1
 128 0 l 1,15,-1
 64 0 l 1,16,-1
 64 64 l 1,17,-1
 0 64 l 1,18,-1
 0 128 l 1,19,-1
 0 192 l 1,20,-1
 0 256 l 1,21,-1
 64 256 l 1,22,-1
 64 320 l 1,23,-1
 128 320 l 1,24,-1
 192 320 l 1,25,-1
 256 320 l 1,26,-1
 320 320 l 1,27,-1
 320 256 l 1,28,-1
 320 192 l 1,29,-1
 256 192 l 1,0,-1
EndSplineSet
EndChar

StartChar: uni0442
Encoding: 1090 1090 153
Width: 384
GlyphClass: 1
Flags: W
LayerCount: 2
Fore
SplineSet
320 320 m 1,0,-1
 320 256 l 1,1,-1
 128 256 l 1,2,-1
 128 192 l 1,3,-1
 192 192 l 1,4,-1
 192 0 l 1,5,-1
 64 0 l 1,6,-1
 64 256 l 1,7,-1
 0 256 l 1,8,-1
 0 320 l 1,9,-1
 320 320 l 1,0,-1
EndSplineSet
EndChar

StartChar: uni0443
Encoding: 1091 1091 154
Width: 384
GlyphClass: 1
Flags: W
LayerCount: 2
Fore
SplineSet
192 -128 m 1,0,-1
 128 -128 l 1,1,-1
 64 -128 l 1,2,-1
 0 -128 l 1,3,-1
 0 -64 l 1,4,-1
 0 0 l 1,5,-1
 64 0 l 1,6,-1
 64 -64 l 1,7,-1
 128 -64 l 1,8,-1
 192 -64 l 1,9,-1
 192 0 l 1,10,-1
 128 0 l 1,11,-1
 128 64 l 1,12,-1
 192 64 l 1,13,-1
 192 128 l 1,14,-1
 192 192 l 1,15,-1
 192 256 l 1,16,-1
 192 320 l 1,17,-1
 256 320 l 1,18,-1
 320 320 l 1,19,-1
 320 256 l 1,20,-1
 320 192 l 1,21,-1
 320 128 l 1,22,-1
 320 64 l 1,23,-1
 320 0 l 1,24,-1
 320 -64 l 1,25,-1
 256 -64 l 1,26,-1
 256 -128 l 1,27,-1
 192 -128 l 1,0,-1
128 64 m 1,28,-1
 64 64 l 1,29,-1
 64 128 l 1,30,-1
 64 192 l 1,31,-1
 0 192 l 1,32,-1
 0 256 l 1,33,-1
 0 320 l 1,34,-1
 64 320 l 1,35,-1
 128 320 l 1,36,-1
 128 256 l 1,37,-1
 128 192 l 1,38,-1
 128 128 l 1,39,-1
 128 64 l 1,28,-1
EndSplineSet
EndChar

StartChar: uni0444
Encoding: 1092 1092 155
Width: 704
GlyphClass: 1
Flags: W
LayerCount: 2
Fore
SplineSet
256 64 m 1,0,-1
 256 192 l 1,1,-1
 192 192 l 1,2,-1
 192 256 l 1,3,-1
 128 256 l 1,4,-1
 128 64 l 1,5,-1
 256 64 l 1,0,-1
448 256 m 1,6,-1
 448 320 l 1,7,-1
 576 320 l 1,8,-1
 576 256 l 1,9,-1
 640 256 l 1,10,-1
 640 64 l 1,11,-1
 576 64 l 1,12,-1
 576 0 l 1,13,-1
 384 0 l 1,14,-1
 384 -64 l 1,15,-1
 320 -64 l 1,16,-1
 320 -128 l 1,17,-1
 256 -128 l 1,18,-1
 256 0 l 1,19,-1
 64 0 l 1,20,-1
 64 64 l 1,21,-1
 0 64 l 1,22,-1
 0 256 l 1,23,-1
 64 256 l 1,24,-1
 64 320 l 1,25,-1
 192 320 l 1,26,-1
 192 256 l 1,27,-1
 256 256 l 1,28,-1
 256 448 l 1,29,-1
 320 448 l 1,30,-1
 320 384 l 1,31,-1
 384 384 l 1,32,-1
 384 256 l 1,33,-1
 448 256 l 1,6,-1
448 256 m 1,34,-1
 448 192 l 1,35,-1
 384 192 l 1,36,-1
 384 64 l 1,37,-1
 512 64 l 1,38,-1
 512 256 l 1,39,-1
 448 256 l 1,34,-1
EndSplineSet
EndChar

StartChar: uni0445
Encoding: 1093 1093 156
Width: 448
GlyphClass: 1
Flags: W
LayerCount: 2
Fore
SplineSet
320 0 m 1,0,-1
 256 0 l 1,1,-1
 256 64 l 1,2,-1
 192 64 l 1,3,-1
 192 128 l 1,4,-1
 128 128 l 1,5,-1
 128 64 l 1,6,-1
 128 0 l 1,7,-1
 64 0 l 1,8,-1
 0 0 l 1,9,-1
 0 64 l 1,10,-1
 64 64 l 1,11,-1
 64 128 l 1,12,-1
 128 128 l 1,13,-1
 128 192 l 1,14,-1
 64 192 l 1,15,-1
 64 256 l 1,16,-1
 0 256 l 1,17,-1
 0 320 l 1,18,-1
 64 320 l 1,19,-1
 128 320 l 1,20,-1
 128 256 l 1,21,-1
 192 256 l 1,22,-1
 192 192 l 1,23,-1
 256 192 l 1,24,-1
 256 128 l 1,25,-1
 320 128 l 1,26,-1
 320 64 l 1,27,-1
 384 64 l 1,28,-1
 384 0 l 1,29,-1
 320 0 l 1,0,-1
256 192 m 1,30,-1
 256 256 l 1,31,-1
 256 320 l 1,32,-1
 320 320 l 1,33,-1
 384 320 l 1,34,-1
 384 256 l 1,35,-1
 320 256 l 1,36,-1
 320 192 l 1,37,-1
 256 192 l 1,30,-1
EndSplineSet
EndChar

StartChar: uni0446
Encoding: 1094 1094 157
Width: 416
GlyphClass: 1
Flags: W
LayerCount: 2
Fore
SplineSet
128 64 m 1,0,-1
 192 64 l 1,1,-1
 192 0 l 1,2,-1
 64 0 l 1,3,-1
 64 64 l 1,4,-1
 0 64 l 1,5,-1
 0 256 l 1,6,-1
 64 256 l 1,7,-1
 64 320 l 1,8,-1
 128 320 l 1,9,-1
 128 64 l 1,0,-1
384 -64 m 1,10,-1
 320 -64 l 1,11,-1
 320 0 l 1,12,-1
 256 0 l 1,13,-1
 256 64 l 1,14,-1
 192 64 l 1,15,-1
 192 256 l 1,16,-1
 256 256 l 1,17,-1
 256 320 l 1,18,-1
 320 320 l 1,19,-1
 320 64 l 1,20,-1
 384 64 l 1,21,-1
 384 -64 l 1,10,-1
EndSplineSet
EndChar

StartChar: uni0447
Encoding: 1095 1095 158
Width: 448
GlyphClass: 1
Flags: W
LayerCount: 2
Fore
SplineSet
256 128 m 1,0,-1
 64 128 l 1,1,-1
 64 192 l 1,2,-1
 0 192 l 1,3,-1
 0 256 l 1,4,-1
 64 256 l 1,5,-1
 64 320 l 1,6,-1
 128 320 l 1,7,-1
 128 192 l 1,8,-1
 256 192 l 1,9,-1
 256 320 l 1,10,-1
 384 320 l 1,11,-1
 384 0 l 1,12,-1
 256 0 l 1,13,-1
 256 128 l 1,0,-1
EndSplineSet
EndChar

StartChar: uni0448
Encoding: 1096 1096 159
Width: 576
GlyphClass: 1
Flags: W
LayerCount: 2
Fore
SplineSet
512 64 m 1,0,-1
 512 0 l 1,1,-1
 448 0 l 1,2,-1
 448 64 l 1,3,-1
 512 64 l 1,0,-1
384 64 m 1,4,-1
 384 0 l 1,5,-1
 256 0 l 1,6,-1
 256 64 l 1,7,-1
 384 64 l 1,4,-1
192 64 m 1,8,-1
 192 0 l 1,9,-1
 64 0 l 1,10,-1
 64 64 l 1,11,-1
 192 64 l 1,8,-1
192 64 m 1,12,-1
 192 256 l 1,13,-1
 256 256 l 1,14,-1
 256 320 l 1,15,-1
 320 320 l 1,16,-1
 320 64 l 1,17,-1
 192 64 l 1,12,-1
0 64 m 1,18,-1
 0 256 l 1,19,-1
 64 256 l 1,20,-1
 64 320 l 1,21,-1
 128 320 l 1,22,-1
 128 64 l 1,23,-1
 0 64 l 1,18,-1
384 64 m 1,24,-1
 384 256 l 1,25,-1
 448 256 l 1,26,-1
 448 320 l 1,27,-1
 512 320 l 1,28,-1
 512 64 l 1,29,-1
 384 64 l 1,24,-1
EndSplineSet
EndChar

StartChar: uni0449
Encoding: 1097 1097 160
Width: 608
GlyphClass: 1
Flags: W
LayerCount: 2
Fore
SplineSet
320 64 m 1,0,-1
 384 64 l 1,1,-1
 384 0 l 1,2,-1
 256 0 l 1,3,-1
 256 64 l 1,4,-1
 192 64 l 1,5,-1
 192 256 l 1,6,-1
 256 256 l 1,7,-1
 256 320 l 1,8,-1
 320 320 l 1,9,-1
 320 64 l 1,0,-1
448 64 m 1,10,-1
 384 64 l 1,11,-1
 384 256 l 1,12,-1
 448 256 l 1,13,-1
 448 320 l 1,14,-1
 512 320 l 1,15,-1
 512 64 l 1,16,-1
 576 64 l 1,17,-1
 576 -64 l 1,18,-1
 512 -64 l 1,19,-1
 512 0 l 1,20,-1
 448 0 l 1,21,-1
 448 64 l 1,10,-1
128 64 m 1,22,-1
 192 64 l 1,23,-1
 192 0 l 1,24,-1
 64 0 l 1,25,-1
 64 64 l 1,26,-1
 0 64 l 1,27,-1
 0 256 l 1,28,-1
 64 256 l 1,29,-1
 64 320 l 1,30,-1
 128 320 l 1,31,-1
 128 64 l 1,22,-1
EndSplineSet
EndChar

StartChar: uni044A
Encoding: 1098 1098 161
Width: 512
GlyphClass: 1
Flags: W
LayerCount: 2
Fore
SplineSet
192 64 m 1,0,-1
 320 64 l 1,1,-1
 320 128 l 1,2,-1
 192 128 l 1,3,-1
 192 64 l 1,0,-1
192 192 m 1,4,-1
 384 192 l 1,5,-1
 384 128 l 1,6,-1
 448 128 l 1,7,-1
 448 64 l 1,8,-1
 384 64 l 1,9,-1
 384 0 l 1,10,-1
 128 0 l 1,11,-1
 128 64 l 1,12,-1
 64 64 l 1,13,-1
 64 256 l 1,14,-1
 0 256 l 1,15,-1
 0 320 l 1,16,-1
 192 320 l 1,17,-1
 192 192 l 1,4,-1
EndSplineSet
EndChar

StartChar: uni044B
Encoding: 1099 1099 162
Width: 576
GlyphClass: 1
Flags: W
LayerCount: 2
Fore
SplineSet
64 0 m 1,0,-1
 64 64 l 1,1,-1
 0 64 l 1,2,-1
 0 256 l 1,3,-1
 64 256 l 1,4,-1
 64 320 l 1,5,-1
 128 320 l 1,6,-1
 128 192 l 1,7,-1
 320 192 l 1,8,-1
 320 128 l 1,9,-1
 384 128 l 1,10,-1
 384 64 l 1,11,-1
 320 64 l 1,12,-1
 320 0 l 1,13,-1
 64 0 l 1,0,-1
128 64 m 1,14,-1
 256 64 l 1,15,-1
 256 128 l 1,16,-1
 128 128 l 1,17,-1
 128 64 l 1,14,-1
512 0 m 1,18,-1
 512 320 l 1,19,-1
 448 320 l 1,20,-1
 448 256 l 1,21,-1
 384 256 l 1,22,-1
 384 0 l 1,23,-1
 512 0 l 1,18,-1
EndSplineSet
EndChar

StartChar: uni044C
Encoding: 1100 1100 163
Width: 448
GlyphClass: 1
Flags: W
LayerCount: 2
Fore
SplineSet
64 0 m 1,0,-1
 64 64 l 1,1,-1
 0 64 l 1,2,-1
 0 256 l 1,3,-1
 64 256 l 1,4,-1
 64 320 l 1,5,-1
 128 320 l 1,6,-1
 128 192 l 1,7,-1
 320 192 l 1,8,-1
 320 128 l 1,9,-1
 384 128 l 1,10,-1
 384 64 l 1,11,-1
 320 64 l 1,12,-1
 320 0 l 1,13,-1
 64 0 l 1,0,-1
128 64 m 1,14,-1
 256 64 l 1,15,-1
 256 128 l 1,16,-1
 128 128 l 1,17,-1
 128 64 l 1,14,-1
EndSplineSet
EndChar

StartChar: uni044D
Encoding: 1101 1101 164
Width: 384
GlyphClass: 1
Flags: W
LayerCount: 2
Fore
SplineSet
192 192 m 1,0,-1
 192 256 l 1,1,-1
 64 256 l 1,2,-1
 64 192 l 1,3,-1
 0 192 l 1,4,-1
 0 320 l 1,5,-1
 256 320 l 1,6,-1
 256 256 l 1,7,-1
 320 256 l 1,8,-1
 320 64 l 1,9,-1
 256 64 l 1,10,-1
 256 0 l 1,11,-1
 0 0 l 1,12,-1
 0 128 l 1,13,-1
 64 128 l 1,14,-1
 64 64 l 1,15,-1
 192 64 l 1,16,-1
 192 128 l 1,17,-1
 128 128 l 1,18,-1
 128 192 l 1,19,-1
 192 192 l 1,0,-1
EndSplineSet
EndChar

StartChar: uni044E
Encoding: 1102 1102 165
Width: 640
GlyphClass: 1
Flags: W
LayerCount: 2
Fore
SplineSet
320 64 m 1,0,-1
 320 256 l 1,1,-1
 448 256 l 1,2,-1
 448 64 l 1,3,-1
 320 64 l 1,0,-1
192 128 m 1,4,-1
 192 64 l 1,5,-1
 256 64 l 1,6,-1
 256 0 l 1,7,-1
 512 0 l 1,8,-1
 512 64 l 1,9,-1
 576 64 l 1,10,-1
 576 256 l 1,11,-1
 512 256 l 1,12,-1
 512 320 l 1,13,-1
 256 320 l 1,14,-1
 256 256 l 1,15,-1
 192 256 l 1,16,-1
 192 192 l 1,17,-1
 128 192 l 1,18,-1
 128 320 l 1,19,-1
 64 320 l 1,20,-1
 64 256 l 1,21,-1
 0 256 l 1,22,-1
 0 0 l 1,23,-1
 128 0 l 1,24,-1
 128 128 l 1,25,-1
 192 128 l 1,4,-1
EndSplineSet
EndChar

StartChar: uni044F
Encoding: 1103 1103 166
Width: 448
GlyphClass: 1
Flags: W
LayerCount: 2
Fore
SplineSet
256 193 m 1,0,-1
 256 256 l 1,1,-1
 128 256 l 1,2,-1
 128 193 l 1,3,-1
 256 193 l 1,0,-1
64 193 m 1,4,-1
 0 193 l 1,5,-1
 0 256 l 1,6,-1
 64 256 l 1,7,-1
 64 320 l 1,8,-1
 320 320 l 1,9,-1
 320 256 l 1,10,-1
 384 256 l 1,11,-1
 384 65 l 1,12,-1
 320 65 l 1,13,-1
 320 1 l 1,14,-1
 256 1 l 1,15,-1
 256 129 l 1,16,-1
 128 129 l 1,17,-1
 128 0 l 1,18,-1
 0 0 l 1,19,-1
 0 128 l 1,20,-1
 64 128 l 1,21,-1
 64 193 l 1,4,-1
EndSplineSet
EndChar

StartChar: uni0401
Encoding: 1025 1025 167
Width: 448
GlyphClass: 1
Flags: W
LayerCount: 2
Fore
SplineSet
320 64 m 1,0,-1
 384 64 l 1,1,-1
 384 0 l 1,2,-1
 320 0 l 1,3,-1
 256 0 l 1,4,-1
 192 0 l 1,5,-1
 128 0 l 1,6,-1
 64 0 l 1,7,-1
 0 0 l 1,8,-1
 0 64 l 1,9,-1
 0 128 l 1,10,-1
 0 192 l 1,11,-1
 0 256 l 1,12,-1
 0 320 l 1,13,-1
 0 384 l 1,14,-1
 0 448 l 1,15,-1
 64 448 l 1,16,-1
 128 448 l 1,17,-1
 192 448 l 1,18,-1
 256 448 l 1,19,-1
 320 448 l 1,20,-1
 384 448 l 1,21,-1
 384 384 l 1,22,-1
 320 384 l 1,23,-1
 256 384 l 1,24,-1
 192 384 l 1,25,-1
 128 384 l 1,26,-1
 64 384 l 1,27,-1
 64 320 l 1,28,-1
 128 320 l 1,29,-1
 128 256 l 1,30,-1
 128 192 l 1,31,-1
 192 192 l 1,32,-1
 256 192 l 1,33,-1
 320 192 l 1,34,-1
 320 128 l 1,35,-1
 256 128 l 1,36,-1
 192 128 l 1,37,-1
 128 128 l 1,38,-1
 128 64 l 1,39,-1
 192 64 l 1,40,-1
 256 64 l 1,41,-1
 320 64 l 1,0,-1
156 576 m 1,42,-1
 92 576 l 1,43,-1
 92 512 l 1,44,-1
 156 512 l 1,45,-1
 156 576 l 1,42,-1
284 576 m 1,46,-1
 220 576 l 1,47,-1
 220 512 l 1,48,-1
 284 512 l 1,49,-1
 284 576 l 1,46,-1
EndSplineSet
EndChar

StartChar: uni0451
Encoding: 1105 1105 168
Width: 448
GlyphClass: 1
Flags: W
LayerCount: 2
Fore
SplineSet
256 64 m 1,0,-1
 320 64 l 1,1,-1
 320 0 l 1,2,-1
 256 0 l 1,3,-1
 192 0 l 1,4,-1
 128 0 l 1,5,-1
 64 0 l 1,6,-1
 64 64 l 1,7,-1
 0 64 l 1,8,-1
 0 128 l 1,9,-1
 0 192 l 1,10,-1
 0 256 l 1,11,-1
 64 256 l 1,12,-1
 64 320 l 1,13,-1
 128 320 l 1,14,-1
 192 320 l 1,15,-1
 256 320 l 1,16,-1
 320 320 l 1,17,-1
 320 256 l 1,18,-1
 384 256 l 1,19,-1
 384 192 l 1,20,-1
 320 192 l 1,21,-1
 320 128 l 1,22,-1
 256 128 l 1,23,-1
 192 128 l 1,24,-1
 128 128 l 1,25,-1
 128 64 l 1,26,-1
 192 64 l 1,27,-1
 256 64 l 1,0,-1
192 192 m 1,28,-1
 256 192 l 1,29,-1
 256 256 l 1,30,-1
 192 256 l 1,31,-1
 128 256 l 1,32,-1
 128 192 l 1,33,-1
 192 192 l 1,28,-1
156 448 m 1,34,-1
 92 448 l 1,35,-1
 92 384 l 1,36,-1
 156 384 l 1,37,-1
 156 448 l 1,34,-1
284 448 m 1,38,-1
 220 448 l 1,39,-1
 220 384 l 1,40,-1
 284 384 l 1,41,-1
 284 448 l 1,38,-1
EndSplineSet
EndChar

StartChar: uni0490
Encoding: 1168 1168 169
Width: 448
GlyphClass: 1
Flags: W
LayerCount: 2
Fore
SplineSet
64 384 m 1,0,-1
 64 320 l 1,1,-1
 128 320 l 1,2,-1
 128 0 l 1,3,-1
 0 0 l 1,4,-1
 0 448 l 1,5,-1
 320 448 l 1,6,-1
 320 574 l 1,7,-1
 384 574 l 1,8,-1
 384 384 l 1,9,-1
 64 384 l 1,0,-1
EndSplineSet
EndChar

StartChar: uni0491
Encoding: 1169 1169 170
Width: 384
GlyphClass: 1
Flags: W
LayerCount: 2
Fore
SplineSet
128 256 m 1,0,-1
 128 0 l 1,1,-1
 0 0 l 1,2,-1
 0 256 l 1,3,-1
 64 256 l 1,4,-1
 64 320 l 1,5,-1
 256 320 l 1,6,-1
 256 384 l 1,7,-1
 320 384 l 1,8,-1
 320 256 l 1,9,-1
 128 256 l 1,0,-1
EndSplineSet
EndChar

StartChar: uni0404
Encoding: 1028 1028 171
Width: 448
GlyphClass: 1
Flags: W
LayerCount: 2
Fore
SplineSet
320 128 m 1,0,-1
 128 128 l 1,1,-1
 128 64 l 1,2,-1
 320 64 l 1,3,-1
 320 128 l 1,0,-1
320 128 m 1,4,-1
 384 128 l 1,5,-1
 384 0 l 1,6,-1
 64 0 l 1,7,-1
 64 64 l 1,8,-1
 0 64 l 1,9,-1
 0 384 l 1,10,-1
 64 384 l 1,11,-1
 64 448 l 1,12,-1
 384 448 l 1,13,-1
 384 320 l 1,14,-1
 320 320 l 1,15,-1
 320 384 l 1,16,-1
 128 384 l 1,17,-1
 128 192 l 1,18,-1
 320 192 l 1,19,-1
 320 128 l 1,4,-1
EndSplineSet
EndChar

StartChar: uni0454
Encoding: 1108 1108 172
Width: 384
GlyphClass: 1
Flags: W
LayerCount: 2
Fore
SplineSet
128 128 m 1,0,-1
 128 64 l 1,1,-1
 256 64 l 1,2,-1
 256 128 l 1,3,-1
 320 128 l 1,4,-1
 320 0 l 1,5,-1
 64 0 l 1,6,-1
 64 64 l 1,7,-1
 0 64 l 1,8,-1
 0 256 l 1,9,-1
 64 256 l 1,10,-1
 64 320 l 1,11,-1
 320 320 l 1,12,-1
 320 192 l 1,13,-1
 256 192 l 1,14,-1
 256 256 l 1,15,-1
 128 256 l 1,16,-1
 128 192 l 1,17,-1
 192 192 l 1,18,-1
 192 128 l 1,19,-1
 128 128 l 1,0,-1
EndSplineSet
EndChar

StartChar: uni0406
Encoding: 1030 1030 173
Width: 320
GlyphClass: 1
Flags: W
LayerCount: 2
Fore
SplineSet
192 0 m 1,0,-1
 128 0 l 1,1,-1
 64 0 l 1,2,-1
 0 0 l 1,3,-1
 0 64 l 1,4,-1
 64 64 l 1,5,-1
 64 128 l 1,6,-1
 64 192 l 1,7,-1
 64 256 l 1,8,-1
 64 320 l 1,9,-1
 64 384 l 1,10,-1
 0 384 l 1,11,-1
 0 448 l 1,12,-1
 64 448 l 1,13,-1
 128 448 l 1,14,-1
 192 448 l 1,15,-1
 256 448 l 1,16,-1
 256 384 l 1,17,-1
 192 384 l 1,18,-1
 128 384 l 1,19,-1
 128 320 l 1,20,-1
 192 320 l 1,21,-1
 192 256 l 1,22,-1
 192 192 l 1,23,-1
 192 128 l 1,24,-1
 192 64 l 1,25,-1
 256 64 l 1,26,-1
 256 0 l 1,27,-1
 192 0 l 1,0,-1
EndSplineSet
EndChar

StartChar: uni0456
Encoding: 1110 1110 174
Width: 192
GlyphClass: 1
Flags: W
LayerCount: 2
Fore
SplineSet
64 0 m 1,0,-1
 0 0 l 1,1,-1
 0 64 l 1,2,-1
 0 128 l 1,3,-1
 0 192 l 1,4,-1
 0 256 l 1,5,-1
 64 256 l 1,6,-1
 64 320 l 1,7,-1
 128 320 l 1,8,-1
 128 256 l 1,9,-1
 128 192 l 1,10,-1
 128 128 l 1,11,-1
 128 64 l 1,12,-1
 128 0 l 1,13,-1
 64 0 l 1,0,-1
64 448 m 1,14,-1
 128 448 l 1,15,-1
 128 384 l 1,16,-1
 64 384 l 1,17,-1
 0 384 l 1,18,-1
 0 448 l 1,19,-1
 64 448 l 1,14,-1
EndSplineSet
EndChar

StartChar: uni0407
Encoding: 1031 1031 175
Width: 320
GlyphClass: 1
Flags: W
LayerCount: 2
Fore
SplineSet
192 0 m 1,0,-1
 128 0 l 1,1,-1
 64 0 l 1,2,-1
 0 0 l 1,3,-1
 0 64 l 1,4,-1
 64 64 l 1,5,-1
 64 128 l 1,6,-1
 64 192 l 1,7,-1
 64 256 l 1,8,-1
 64 320 l 1,9,-1
 64 384 l 1,10,-1
 0 384 l 1,11,-1
 0 448 l 1,12,-1
 64 448 l 1,13,-1
 128 448 l 1,14,-1
 192 448 l 1,15,-1
 256 448 l 1,16,-1
 256 384 l 1,17,-1
 192 384 l 1,18,-1
 128 384 l 1,19,-1
 128 320 l 1,20,-1
 192 320 l 1,21,-1
 192 256 l 1,22,-1
 192 192 l 1,23,-1
 192 128 l 1,24,-1
 192 64 l 1,25,-1
 256 64 l 1,26,-1
 256 0 l 1,27,-1
 192 0 l 1,0,-1
160 512 m 1,28,-1
 224 512 l 1,29,-1
 224 576 l 1,30,-1
 160 576 l 1,31,-1
 160 512 l 1,28,-1
32 512 m 1,32,-1
 96 512 l 1,33,-1
 96 576 l 1,34,-1
 32 576 l 1,35,-1
 32 512 l 1,32,-1
EndSplineSet
EndChar

StartChar: uni0457
Encoding: 1111 1111 176
Width: 192
GlyphClass: 1
Flags: W
LayerCount: 2
Fore
SplineSet
64 0 m 1,0,-1
 0 0 l 1,1,-1
 0 64 l 1,2,-1
 0 128 l 1,3,-1
 0 192 l 1,4,-1
 0 256 l 1,5,-1
 64 256 l 1,6,-1
 64 320 l 1,7,-1
 128 320 l 1,8,-1
 128 256 l 1,9,-1
 128 192 l 1,10,-1
 128 128 l 1,11,-1
 128 64 l 1,12,-1
 128 0 l 1,13,-1
 64 0 l 1,0,-1
96 384 m 1,14,-1
 160 384 l 1,15,-1
 160 448 l 1,16,-1
 96 448 l 1,17,-1
 96 384 l 1,14,-1
-32 384 m 1,18,-1
 32 384 l 1,19,-1
 32 448 l 1,20,-1
 -32 448 l 1,21,-1
 -32 384 l 1,18,-1
EndSplineSet
EndChar

StartChar: Gbreve
Encoding: 286 286 177
Width: 512
GlyphClass: 1
Flags: W
LayerCount: 2
Fore
SplineSet
320 320 m 1,0,-1
 320 384 l 1,1,-1
 256 384 l 1,2,-1
 192 384 l 1,3,-1
 128 384 l 1,4,-1
 128 320 l 1,5,-1
 128 256 l 1,6,-1
 128 192 l 1,7,-1
 128 128 l 1,8,-1
 128 64 l 1,9,-1
 192 64 l 1,10,-1
 256 64 l 1,11,-1
 320 64 l 1,12,-1
 320 128 l 1,13,-1
 256 128 l 1,14,-1
 192 128 l 1,15,-1
 192 192 l 1,16,-1
 256 192 l 1,17,-1
 320 192 l 1,18,-1
 384 192 l 1,19,-1
 384 128 l 1,20,-1
 448 128 l 1,21,-1
 448 64 l 1,22,-1
 384 64 l 1,23,-1
 384 0 l 1,24,-1
 320 0 l 1,25,-1
 256 0 l 1,26,-1
 192 0 l 1,27,-1
 128 0 l 1,28,-1
 64 0 l 1,29,-1
 64 64 l 1,30,-1
 0 64 l 1,31,-1
 0 128 l 1,32,-1
 0 192 l 1,33,-1
 0 256 l 1,34,-1
 0 320 l 1,35,-1
 0 384 l 1,36,-1
 64 384 l 1,37,-1
 64 448 l 1,38,-1
 128 448 l 1,39,-1
 192 448 l 1,40,-1
 256 448 l 1,41,-1
 320 448 l 1,42,-1
 384 448 l 1,43,-1
 384 384 l 1,44,-1
 384 320 l 1,45,-1
 320 320 l 1,0,-1
320 512 m 1,46,-1
 320 576 l 1,47,-1
 384 576 l 1,48,-1
 384 640 l 1,49,-1
 256 640 l 1,50,-1
 256 576 l 1,51,-1
 192 576 l 1,52,-1
 192 512 l 1,53,-1
 320 512 l 1,46,-1
256 512 m 1,54,-1
 256 576 l 1,55,-1
 192 576 l 1,56,-1
 192 640 l 1,57,-1
 64 640 l 1,58,-1
 64 576 l 1,59,-1
 128 576 l 1,60,-1
 128 512 l 1,61,-1
 256 512 l 1,54,-1
EndSplineSet
EndChar

StartChar: gbreve
Encoding: 287 287 178
Width: 448
GlyphClass: 1
Flags: W
LayerCount: 2
Fore
SplineSet
256 -128 m 1,0,-1
 192 -128 l 1,1,-1
 128 -128 l 1,2,-1
 64 -128 l 1,3,-1
 64 -64 l 1,4,-1
 64 0 l 1,5,-1
 128 0 l 1,6,-1
 128 -64 l 1,7,-1
 192 -64 l 1,8,-1
 256 -64 l 1,9,-1
 256 0 l 1,10,-1
 256 64 l 1,11,-1
 192 64 l 1,12,-1
 128 64 l 1,13,-1
 64 64 l 1,14,-1
 64 128 l 1,15,-1
 0 128 l 1,16,-1
 0 192 l 1,17,-1
 0 256 l 1,18,-1
 64 256 l 1,19,-1
 64 320 l 1,20,-1
 128 320 l 1,21,-1
 192 320 l 1,22,-1
 256 320 l 1,23,-1
 320 320 l 1,24,-1
 320 256 l 1,25,-1
 384 256 l 1,26,-1
 384 192 l 1,27,-1
 384 128 l 1,28,-1
 384 64 l 1,29,-1
 384 0 l 1,30,-1
 384 -64 l 1,31,-1
 320 -64 l 1,32,-1
 320 -128 l 1,33,-1
 256 -128 l 1,0,-1
192 128 m 1,34,-1
 256 128 l 1,35,-1
 256 192 l 1,36,-1
 256 256 l 1,37,-1
 192 256 l 1,38,-1
 128 256 l 1,39,-1
 128 192 l 1,40,-1
 128 128 l 1,41,-1
 192 128 l 1,34,-1
192 384 m 1,42,-1
 192 448 l 1,43,-1
 64 448 l 1,44,-1
 64 384 l 1,45,-1
 128 384 l 1,46,-1
 128 320 l 1,47,-1
 320 320 l 1,48,-1
 320 384 l 1,49,-1
 384 384 l 1,50,-1
 384 448 l 1,51,-1
 256 448 l 1,52,-1
 256 384 l 1,53,-1
 192 384 l 1,42,-1
EndSplineSet
EndChar

StartChar: Odieresis
Encoding: 214 214 179
Width: 448
GlyphClass: 1
Flags: W
LayerCount: 2
Fore
SplineSet
256 0 m 1,0,-1
 192 0 l 1,1,-1
 128 0 l 1,2,-1
 64 0 l 1,3,-1
 64 64 l 1,4,-1
 0 64 l 1,5,-1
 0 128 l 1,6,-1
 0 192 l 1,7,-1
 0 256 l 1,8,-1
 0 320 l 1,9,-1
 0 384 l 1,10,-1
 64 384 l 1,11,-1
 64 448 l 1,12,-1
 128 448 l 1,13,-1
 192 448 l 1,14,-1
 256 448 l 1,15,-1
 320 448 l 1,16,-1
 320 384 l 1,17,-1
 384 384 l 1,18,-1
 384 320 l 1,19,-1
 384 256 l 1,20,-1
 384 192 l 1,21,-1
 384 128 l 1,22,-1
 384 64 l 1,23,-1
 320 64 l 1,24,-1
 320 0 l 1,25,-1
 256 0 l 1,0,-1
192 64 m 1,26,-1
 256 64 l 1,27,-1
 256 128 l 1,28,-1
 256 192 l 1,29,-1
 256 256 l 1,30,-1
 256 320 l 1,31,-1
 256 384 l 1,32,-1
 192 384 l 1,33,-1
 128 384 l 1,34,-1
 128 320 l 1,35,-1
 128 256 l 1,36,-1
 128 192 l 1,37,-1
 128 128 l 1,38,-1
 128 64 l 1,39,-1
 192 64 l 1,26,-1
156 576 m 1,40,-1
 92 576 l 1,41,-1
 92 512 l 1,42,-1
 156 512 l 1,43,-1
 156 576 l 1,40,-1
284 576 m 1,44,-1
 220 576 l 1,45,-1
 220 512 l 1,46,-1
 284 512 l 1,47,-1
 284 576 l 1,44,-1
EndSplineSet
EndChar

StartChar: odieresis
Encoding: 246 246 180
Width: 448
GlyphClass: 1
Flags: W
LayerCount: 2
Fore
SplineSet
256 0 m 1,0,-1
 192 0 l 1,1,-1
 128 0 l 1,2,-1
 64 0 l 1,3,-1
 64 64 l 1,4,-1
 0 64 l 1,5,-1
 0 128 l 1,6,-1
 0 192 l 1,7,-1
 0 256 l 1,8,-1
 64 256 l 1,9,-1
 64 320 l 1,10,-1
 128 320 l 1,11,-1
 192 320 l 1,12,-1
 256 320 l 1,13,-1
 320 320 l 1,14,-1
 320 256 l 1,15,-1
 384 256 l 1,16,-1
 384 192 l 1,17,-1
 384 128 l 1,18,-1
 384 64 l 1,19,-1
 320 64 l 1,20,-1
 320 0 l 1,21,-1
 256 0 l 1,0,-1
192 64 m 1,22,-1
 256 64 l 1,23,-1
 256 128 l 1,24,-1
 256 192 l 1,25,-1
 256 256 l 1,26,-1
 192 256 l 1,27,-1
 128 256 l 1,28,-1
 128 192 l 1,29,-1
 128 128 l 1,30,-1
 128 64 l 1,31,-1
 192 64 l 1,22,-1
156 448 m 1,32,-1
 92 448 l 1,33,-1
 92 384 l 1,34,-1
 156 384 l 1,35,-1
 156 448 l 1,32,-1
284 448 m 1,36,-1
 220 448 l 1,37,-1
 220 384 l 1,38,-1
 284 384 l 1,39,-1
 284 448 l 1,36,-1
EndSplineSet
EndChar

StartChar: Scedilla
Encoding: 350 350 181
Width: 448
GlyphClass: 1
Flags: W
LayerCount: 2
Fore
SplineSet
320 320 m 1,0,-1
 320 384 l 1,1,-1
 256 384 l 1,2,-1
 192 384 l 1,3,-1
 128 384 l 1,4,-1
 128 320 l 1,5,-1
 128 256 l 1,6,-1
 192 256 l 1,7,-1
 256 256 l 1,8,-1
 320 256 l 1,9,-1
 384 256 l 1,10,-1
 384 192 l 1,11,-1
 384 128 l 1,12,-1
 384 64 l 1,13,-1
 320 64 l 1,14,-1
 320 0 l 1,15,-1
 256 0 l 1,16,-1
 192 0 l 1,17,-1
 128 0 l 1,18,-1
 64 0 l 1,19,-1
 0 0 l 1,20,-1
 0 64 l 1,21,-1
 0 128 l 1,22,-1
 64 128 l 1,23,-1
 64 64 l 1,24,-1
 128 64 l 1,25,-1
 192 64 l 1,26,-1
 256 64 l 1,27,-1
 256 128 l 1,28,-1
 256 192 l 1,29,-1
 192 192 l 1,30,-1
 128 192 l 1,31,-1
 64 192 l 1,32,-1
 0 192 l 1,33,-1
 0 256 l 1,34,-1
 0 320 l 1,35,-1
 0 384 l 1,36,-1
 64 384 l 1,37,-1
 64 448 l 1,38,-1
 128 448 l 1,39,-1
 192 448 l 1,40,-1
 256 448 l 1,41,-1
 320 448 l 1,42,-1
 384 448 l 1,43,-1
 384 384 l 1,44,-1
 384 320 l 1,45,-1
 320 320 l 1,0,-1
192 -128 m 1,46,-1
 128 -128 l 1,47,-1
 128 -64 l 1,48,-1
 192 -64 l 1,49,-1
 192 0 l 1,50,-1
 256 0 l 1,51,-1
 320 0 l 1,52,-1
 320 -64 l 1,53,-1
 256 -64 l 1,54,-1
 256 -128 l 1,55,-1
 192 -128 l 1,46,-1
EndSplineSet
EndChar

StartChar: scedilla
Encoding: 351 351 182
Width: 384
GlyphClass: 1
Flags: W
LayerCount: 2
Fore
SplineSet
192 0 m 1,0,-1
 128 0 l 1,1,-1
 64 0 l 1,2,-1
 0 0 l 1,3,-1
 0 64 l 1,4,-1
 64 64 l 1,5,-1
 128 64 l 1,6,-1
 192 64 l 1,7,-1
 192 128 l 1,8,-1
 128 128 l 1,9,-1
 64 128 l 1,10,-1
 0 128 l 1,11,-1
 0 192 l 1,12,-1
 0 256 l 1,13,-1
 64 256 l 1,14,-1
 64 320 l 1,15,-1
 128 320 l 1,16,-1
 192 320 l 1,17,-1
 256 320 l 1,18,-1
 320 320 l 1,19,-1
 320 256 l 1,20,-1
 256 256 l 1,21,-1
 192 256 l 1,22,-1
 128 256 l 1,23,-1
 128 192 l 1,24,-1
 192 192 l 1,25,-1
 256 192 l 1,26,-1
 320 192 l 1,27,-1
 320 128 l 1,28,-1
 320 64 l 1,29,-1
 256 64 l 1,30,-1
 256 0 l 1,31,-1
 192 0 l 1,0,-1
128 -128 m 1,32,-1
 64 -128 l 1,33,-1
 64 -64 l 1,34,-1
 128 -64 l 1,35,-1
 128 0 l 1,36,-1
 192 0 l 1,37,-1
 256 0 l 1,38,-1
 256 -64 l 1,39,-1
 192 -64 l 1,40,-1
 192 -128 l 1,41,-1
 128 -128 l 1,32,-1
EndSplineSet
EndChar

StartChar: Udieresis
Encoding: 220 220 183
Width: 448
GlyphClass: 1
Flags: W
LayerCount: 2
Fore
SplineSet
256 0 m 1,0,-1
 192 0 l 1,1,-1
 128 0 l 1,2,-1
 64 0 l 1,3,-1
 64 64 l 1,4,-1
 0 64 l 1,5,-1
 0 128 l 1,6,-1
 0 192 l 1,7,-1
 0 256 l 1,8,-1
 0 320 l 1,9,-1
 0 384 l 1,10,-1
 0 448 l 1,11,-1
 64 448 l 1,12,-1
 128 448 l 1,13,-1
 128 384 l 1,14,-1
 128 320 l 1,15,-1
 128 256 l 1,16,-1
 128 192 l 1,17,-1
 128 128 l 1,18,-1
 128 64 l 1,19,-1
 192 64 l 1,20,-1
 256 64 l 1,21,-1
 256 128 l 1,22,-1
 256 192 l 1,23,-1
 256 256 l 1,24,-1
 256 320 l 1,25,-1
 256 384 l 1,26,-1
 256 448 l 1,27,-1
 320 448 l 1,28,-1
 320 384 l 1,29,-1
 384 384 l 1,30,-1
 384 320 l 1,31,-1
 384 256 l 1,32,-1
 384 192 l 1,33,-1
 384 128 l 1,34,-1
 384 64 l 1,35,-1
 320 64 l 1,36,-1
 320 0 l 1,37,-1
 256 0 l 1,0,-1
156 576 m 1,38,-1
 92 576 l 1,39,-1
 92 512 l 1,40,-1
 156 512 l 1,41,-1
 156 576 l 1,38,-1
284 576 m 1,42,-1
 220 576 l 1,43,-1
 220 512 l 1,44,-1
 284 512 l 1,45,-1
 284 576 l 1,42,-1
EndSplineSet
EndChar

StartChar: udieresis
Encoding: 252 252 184
Width: 448
GlyphClass: 1
Flags: W
LayerCount: 2
Fore
SplineSet
256 0 m 1,0,-1
 192 0 l 1,1,-1
 128 0 l 1,2,-1
 64 0 l 1,3,-1
 64 64 l 1,4,-1
 0 64 l 1,5,-1
 0 128 l 1,6,-1
 0 192 l 1,7,-1
 0 256 l 1,8,-1
 0 320 l 1,9,-1
 64 320 l 1,10,-1
 128 320 l 1,11,-1
 128 256 l 1,12,-1
 128 192 l 1,13,-1
 128 128 l 1,14,-1
 128 64 l 1,15,-1
 192 64 l 1,16,-1
 256 64 l 1,17,-1
 256 128 l 1,18,-1
 256 192 l 1,19,-1
 256 256 l 1,20,-1
 256 320 l 1,21,-1
 320 320 l 1,22,-1
 320 256 l 1,23,-1
 384 256 l 1,24,-1
 384 192 l 1,25,-1
 384 128 l 1,26,-1
 384 64 l 1,27,-1
 320 64 l 1,28,-1
 320 0 l 1,29,-1
 256 0 l 1,0,-1
156 448 m 1,30,-1
 92 448 l 1,31,-1
 92 384 l 1,32,-1
 156 384 l 1,33,-1
 156 448 l 1,30,-1
284 448 m 1,34,-1
 220 448 l 1,35,-1
 220 384 l 1,36,-1
 284 384 l 1,37,-1
 284 448 l 1,34,-1
EndSplineSet
EndChar

StartChar: Adieresis
Encoding: 196 196 185
Width: 448
GlyphClass: 1
Flags: W
LayerCount: 2
Fore
SplineSet
320 0 m 1,0,-1
 256 0 l 1,1,-1
 256 64 l 1,2,-1
 256 128 l 1,3,-1
 192 128 l 1,4,-1
 128 128 l 1,5,-1
 128 64 l 1,6,-1
 128 0 l 1,7,-1
 64 0 l 1,8,-1
 0 0 l 1,9,-1
 0 64 l 1,10,-1
 0 128 l 1,11,-1
 64 128 l 1,12,-1
 64 192 l 1,13,-1
 64 256 l 1,14,-1
 128 256 l 1,15,-1
 128 320 l 1,16,-1
 128 384 l 1,17,-1
 192 384 l 1,18,-1
 192 448 l 1,19,-1
 256 448 l 1,20,-1
 320 448 l 1,21,-1
 384 448 l 1,22,-1
 384 384 l 1,23,-1
 384 320 l 1,24,-1
 384 256 l 1,25,-1
 384 192 l 1,26,-1
 384 128 l 1,27,-1
 384 64 l 1,28,-1
 384 0 l 1,29,-1
 320 0 l 1,0,-1
256 192 m 1,30,-1
 256 256 l 1,31,-1
 256 320 l 1,32,-1
 256 384 l 1,33,-1
 192 384 l 1,34,-1
 192 320 l 1,35,-1
 192 256 l 1,36,-1
 192 192 l 1,37,-1
 256 192 l 1,30,-1
256 576 m 1,38,-1
 192 576 l 1,39,-1
 192 512 l 1,40,-1
 256 512 l 1,41,-1
 256 576 l 1,38,-1
384 576 m 1,42,-1
 320 576 l 1,43,-1
 320 512 l 1,44,-1
 384 512 l 1,45,-1
 384 576 l 1,42,-1
EndSplineSet
EndChar

StartChar: adieresis
Encoding: 228 228 186
Width: 448
GlyphClass: 1
Flags: W
LayerCount: 2
Fore
SplineSet
156 448 m 1,0,-1
 92 448 l 1,1,-1
 92 384 l 1,2,-1
 156 384 l 1,3,-1
 156 448 l 1,0,-1
284 448 m 1,4,-1
 220 448 l 1,5,-1
 220 384 l 1,6,-1
 284 384 l 1,7,-1
 284 448 l 1,4,-1
448 0 m 1,8,-1
 448 64 l 1,9,-1
 384 64 l 1,10,-1
 384 256 l 1,11,-1
 320 256 l 1,12,-1
 320 320 l 1,13,-1
 64 320 l 1,14,-1
 64 256 l 1,15,-1
 256 256 l 1,16,-1
 256 192 l 1,17,-1
 64 192 l 1,18,-1
 64 128 l 1,19,-1
 0 128 l 1,20,-1
 0 64 l 1,21,-1
 64 64 l 1,22,-1
 64 0 l 1,23,-1
 256 0 l 1,24,-1
 256 64 l 1,25,-1
 128 64 l 1,26,-1
 128 128 l 1,27,-1
 256 128 l 1,28,-1
 256 64 l 1,29,-1
 320 64 l 1,30,-1
 320 0 l 1,31,-1
 448 0 l 1,8,-1
EndSplineSet
EndChar

StartChar: uni1E9E
Encoding: 7838 7838 187
Width: 512
GlyphClass: 1
Flags: W
LayerCount: 2
Fore
SplineSet
192 -64 m 1,0,-1
 0 -64 l 1,1,-1
 0 0 l 1,2,-1
 64 0 l 1,3,-1
 64 448 l 1,4,-1
 384 448 l 1,5,-1
 384 384 l 1,6,-1
 448 384 l 1,7,-1
 448 192 l 1,8,-1
 384 192 l 1,9,-1
 384 128 l 1,10,-1
 448 128 l 1,11,-1
 448 64 l 1,12,-1
 384 64 l 1,13,-1
 384 0 l 1,14,-1
 256 0 l 1,15,-1
 256 64 l 1,16,-1
 320 64 l 1,17,-1
 320 128 l 1,18,-1
 192 128 l 1,19,-1
 192 -64 l 1,0,-1
320 192 m 1,20,-1
 320 384 l 1,21,-1
 128 384 l 1,22,-1
 128 320 l 1,23,-1
 192 320 l 1,24,-1
 192 192 l 1,25,-1
 320 192 l 1,20,-1
EndSplineSet
EndChar

StartChar: germandbls
Encoding: 223 223 188
Width: 512
GlyphClass: 1
Flags: W
LayerCount: 2
Fore
SplineSet
192 -64 m 1,0,-1
 0 -64 l 1,1,-1
 0 0 l 1,2,-1
 64 0 l 1,3,-1
 64 448 l 1,4,-1
 384 448 l 1,5,-1
 384 384 l 1,6,-1
 448 384 l 1,7,-1
 448 192 l 1,8,-1
 384 192 l 1,9,-1
 384 128 l 1,10,-1
 448 128 l 1,11,-1
 448 64 l 1,12,-1
 384 64 l 1,13,-1
 384 0 l 1,14,-1
 256 0 l 1,15,-1
 256 64 l 1,16,-1
 320 64 l 1,17,-1
 320 128 l 1,18,-1
 192 128 l 1,19,-1
 192 -64 l 1,0,-1
320 192 m 1,20,-1
 320 384 l 1,21,-1
 128 384 l 1,22,-1
 128 320 l 1,23,-1
 192 320 l 1,24,-1
 192 192 l 1,25,-1
 320 192 l 1,20,-1
EndSplineSet
EndChar

StartChar: Ecircumflex
Encoding: 202 202 189
Width: 448
GlyphClass: 1
Flags: W
LayerCount: 2
Fore
SplineSet
320 64 m 1,0,-1
 384 64 l 1,1,-1
 384 0 l 1,2,-1
 320 0 l 1,3,-1
 256 0 l 1,4,-1
 192 0 l 1,5,-1
 128 0 l 1,6,-1
 64 0 l 1,7,-1
 0 0 l 1,8,-1
 0 64 l 1,9,-1
 0 128 l 1,10,-1
 0 192 l 1,11,-1
 0 256 l 1,12,-1
 0 320 l 1,13,-1
 0 384 l 1,14,-1
 0 448 l 1,15,-1
 64 448 l 1,16,-1
 128 448 l 1,17,-1
 192 448 l 1,18,-1
 256 448 l 1,19,-1
 320 448 l 1,20,-1
 384 448 l 1,21,-1
 384 384 l 1,22,-1
 320 384 l 1,23,-1
 256 384 l 1,24,-1
 192 384 l 1,25,-1
 128 384 l 1,26,-1
 64 384 l 1,27,-1
 64 320 l 1,28,-1
 128 320 l 1,29,-1
 128 256 l 1,30,-1
 128 192 l 1,31,-1
 192 192 l 1,32,-1
 256 192 l 1,33,-1
 320 192 l 1,34,-1
 320 128 l 1,35,-1
 256 128 l 1,36,-1
 192 128 l 1,37,-1
 128 128 l 1,38,-1
 128 64 l 1,39,-1
 192 64 l 1,40,-1
 256 64 l 1,41,-1
 320 64 l 1,0,-1
192 640 m 1,42,-1
 192 576 l 1,43,-1
 256 576 l 1,44,-1
 256 512 l 1,45,-1
 384 512 l 1,46,-1
 384 576 l 1,47,-1
 320 576 l 1,48,-1
 320 640 l 1,49,-1
 192 640 l 1,42,-1
128 640 m 1,50,-1
 128 576 l 1,51,-1
 64 576 l 1,52,-1
 64 512 l 1,53,-1
 192 512 l 1,54,-1
 192 576 l 1,55,-1
 256 576 l 1,56,-1
 256 640 l 1,57,-1
 128 640 l 1,50,-1
EndSplineSet
EndChar

StartChar: ecircumflex
Encoding: 234 234 190
Width: 448
GlyphClass: 1
Flags: W
LayerCount: 2
Fore
SplineSet
256 64 m 1,0,-1
 320 64 l 1,1,-1
 320 0 l 1,2,-1
 256 0 l 1,3,-1
 192 0 l 1,4,-1
 128 0 l 1,5,-1
 64 0 l 1,6,-1
 64 64 l 1,7,-1
 0 64 l 1,8,-1
 0 128 l 1,9,-1
 0 192 l 1,10,-1
 0 256 l 1,11,-1
 64 256 l 1,12,-1
 64 320 l 1,13,-1
 128 320 l 1,14,-1
 192 320 l 1,15,-1
 256 320 l 1,16,-1
 320 320 l 1,17,-1
 320 256 l 1,18,-1
 384 256 l 1,19,-1
 384 192 l 1,20,-1
 320 192 l 1,21,-1
 320 128 l 1,22,-1
 256 128 l 1,23,-1
 192 128 l 1,24,-1
 128 128 l 1,25,-1
 128 64 l 1,26,-1
 192 64 l 1,27,-1
 256 64 l 1,0,-1
192 192 m 1,28,-1
 256 192 l 1,29,-1
 256 256 l 1,30,-1
 192 256 l 1,31,-1
 128 256 l 1,32,-1
 128 192 l 1,33,-1
 192 192 l 1,28,-1
192 384 m 1,34,-1
 192 320 l 1,35,-1
 128 320 l 1,36,-1
 128 384 l 1,37,-1
 192 384 l 1,34,-1
256 448 m 1,38,-1
 256 384 l 1,39,-1
 192 384 l 1,40,-1
 192 448 l 1,41,-1
 256 448 l 1,38,-1
320 384 m 1,42,-1
 320 320 l 1,43,-1
 256 320 l 1,44,-1
 256 384 l 1,45,-1
 320 384 l 1,42,-1
EndSplineSet
EndChar

StartChar: Egrave
Encoding: 200 200 191
Width: 448
GlyphClass: 1
Flags: W
LayerCount: 2
Fore
SplineSet
320 64 m 1,0,-1
 384 64 l 1,1,-1
 384 0 l 1,2,-1
 320 0 l 1,3,-1
 256 0 l 1,4,-1
 192 0 l 1,5,-1
 128 0 l 1,6,-1
 64 0 l 1,7,-1
 0 0 l 1,8,-1
 0 64 l 1,9,-1
 0 128 l 1,10,-1
 0 192 l 1,11,-1
 0 256 l 1,12,-1
 0 320 l 1,13,-1
 0 384 l 1,14,-1
 0 448 l 1,15,-1
 64 448 l 1,16,-1
 128 448 l 1,17,-1
 192 448 l 1,18,-1
 256 448 l 1,19,-1
 320 448 l 1,20,-1
 384 448 l 1,21,-1
 384 384 l 1,22,-1
 320 384 l 1,23,-1
 256 384 l 1,24,-1
 192 384 l 1,25,-1
 128 384 l 1,26,-1
 64 384 l 1,27,-1
 64 320 l 1,28,-1
 128 320 l 1,29,-1
 128 256 l 1,30,-1
 128 192 l 1,31,-1
 192 192 l 1,32,-1
 256 192 l 1,33,-1
 320 192 l 1,34,-1
 320 128 l 1,35,-1
 256 128 l 1,36,-1
 192 128 l 1,37,-1
 128 128 l 1,38,-1
 128 64 l 1,39,-1
 192 64 l 1,40,-1
 256 64 l 1,41,-1
 320 64 l 1,0,-1
128 640 m 1,42,-1
 128 576 l 1,43,-1
 192 576 l 1,44,-1
 192 512 l 1,45,-1
 320 512 l 1,46,-1
 320 576 l 1,47,-1
 256 576 l 1,48,-1
 256 640 l 1,49,-1
 128 640 l 1,42,-1
EndSplineSet
EndChar

StartChar: egrave
Encoding: 232 232 192
Width: 448
GlyphClass: 1
Flags: W
LayerCount: 2
Fore
SplineSet
256 64 m 1,0,-1
 320 64 l 1,1,-1
 320 0 l 1,2,-1
 256 0 l 1,3,-1
 192 0 l 1,4,-1
 128 0 l 1,5,-1
 64 0 l 1,6,-1
 64 64 l 1,7,-1
 0 64 l 1,8,-1
 0 128 l 1,9,-1
 0 192 l 1,10,-1
 0 256 l 1,11,-1
 64 256 l 1,12,-1
 64 320 l 1,13,-1
 128 320 l 1,14,-1
 192 320 l 1,15,-1
 256 320 l 1,16,-1
 320 320 l 1,17,-1
 320 256 l 1,18,-1
 384 256 l 1,19,-1
 384 192 l 1,20,-1
 320 192 l 1,21,-1
 320 128 l 1,22,-1
 256 128 l 1,23,-1
 192 128 l 1,24,-1
 128 128 l 1,25,-1
 128 64 l 1,26,-1
 192 64 l 1,27,-1
 256 64 l 1,0,-1
192 192 m 1,28,-1
 256 192 l 1,29,-1
 256 256 l 1,30,-1
 192 256 l 1,31,-1
 128 256 l 1,32,-1
 128 192 l 1,33,-1
 192 192 l 1,28,-1
256 320 m 1,34,-1
 256 384 l 1,35,-1
 192 384 l 1,36,-1
 192 448 l 1,37,-1
 64 448 l 1,38,-1
 64 384 l 1,39,-1
 128 384 l 1,40,-1
 128 320 l 1,41,-1
 256 320 l 1,34,-1
EndSplineSet
EndChar

StartChar: Eacute
Encoding: 201 201 193
Width: 448
GlyphClass: 1
Flags: W
LayerCount: 2
Fore
SplineSet
320 64 m 1,0,-1
 384 64 l 1,1,-1
 384 0 l 1,2,-1
 320 0 l 1,3,-1
 256 0 l 1,4,-1
 192 0 l 1,5,-1
 128 0 l 1,6,-1
 64 0 l 1,7,-1
 0 0 l 1,8,-1
 0 64 l 1,9,-1
 0 128 l 1,10,-1
 0 192 l 1,11,-1
 0 256 l 1,12,-1
 0 320 l 1,13,-1
 0 384 l 1,14,-1
 0 448 l 1,15,-1
 64 448 l 1,16,-1
 128 448 l 1,17,-1
 192 448 l 1,18,-1
 256 448 l 1,19,-1
 320 448 l 1,20,-1
 384 448 l 1,21,-1
 384 384 l 1,22,-1
 320 384 l 1,23,-1
 256 384 l 1,24,-1
 192 384 l 1,25,-1
 128 384 l 1,26,-1
 64 384 l 1,27,-1
 64 320 l 1,28,-1
 128 320 l 1,29,-1
 128 256 l 1,30,-1
 128 192 l 1,31,-1
 192 192 l 1,32,-1
 256 192 l 1,33,-1
 320 192 l 1,34,-1
 320 128 l 1,35,-1
 256 128 l 1,36,-1
 192 128 l 1,37,-1
 128 128 l 1,38,-1
 128 64 l 1,39,-1
 192 64 l 1,40,-1
 256 64 l 1,41,-1
 320 64 l 1,0,-1
192 640 m 1,42,-1
 192 576 l 1,43,-1
 128 576 l 1,44,-1
 128 512 l 1,45,-1
 256 512 l 1,46,-1
 256 576 l 1,47,-1
 320 576 l 1,48,-1
 320 640 l 1,49,-1
 192 640 l 1,42,-1
EndSplineSet
EndChar

StartChar: eacute
Encoding: 233 233 194
Width: 448
GlyphClass: 1
Flags: W
LayerCount: 2
Fore
SplineSet
256 64 m 1,0,-1
 320 64 l 1,1,-1
 320 0 l 1,2,-1
 256 0 l 1,3,-1
 192 0 l 1,4,-1
 128 0 l 1,5,-1
 64 0 l 1,6,-1
 64 64 l 1,7,-1
 0 64 l 1,8,-1
 0 128 l 1,9,-1
 0 192 l 1,10,-1
 0 256 l 1,11,-1
 64 256 l 1,12,-1
 64 320 l 1,13,-1
 128 320 l 1,14,-1
 192 320 l 1,15,-1
 256 320 l 1,16,-1
 320 320 l 1,17,-1
 320 256 l 1,18,-1
 384 256 l 1,19,-1
 384 192 l 1,20,-1
 320 192 l 1,21,-1
 320 128 l 1,22,-1
 256 128 l 1,23,-1
 192 128 l 1,24,-1
 128 128 l 1,25,-1
 128 64 l 1,26,-1
 192 64 l 1,27,-1
 256 64 l 1,0,-1
192 192 m 1,28,-1
 256 192 l 1,29,-1
 256 256 l 1,30,-1
 192 256 l 1,31,-1
 128 256 l 1,32,-1
 128 192 l 1,33,-1
 192 192 l 1,28,-1
255 320 m 1,34,-1
 255 384 l 1,35,-1
 319 384 l 1,36,-1
 319 448 l 1,37,-1
 191 448 l 1,38,-1
 191 384 l 1,39,-1
 127 384 l 1,40,-1
 127 320 l 1,41,-1
 255 320 l 1,34,-1
EndSplineSet
EndChar

StartChar: quotedblleft
Encoding: 8220 8220 195
Width: 320
GlyphClass: 1
Flags: W
LayerCount: 2
Fore
SplineSet
128 256 m 1,0,-1
 128 320 l 1,1,-1
 64 320 l 1,2,-1
 64 256 l 1,3,-1
 0 256 l 1,4,-1
 0 320 l 1,5,-1
 0 384 l 1,6,-1
 64 384 l 1,7,-1
 64 448 l 1,8,-1
 128 448 l 1,9,-1
 128 384 l 1,10,-1
 192 384 l 1,11,-1
 192 448 l 1,12,-1
 256 448 l 1,13,-1
 256 384 l 1,14,-1
 256 320 l 1,15,-1
 192 320 l 1,16,-1
 192 256 l 1,17,-1
 128 256 l 1,0,-1
EndSplineSet
EndChar

StartChar: quotedblright
Encoding: 8221 8221 196
Width: 320
GlyphClass: 1
Flags: W
LayerCount: 2
Fore
SplineSet
128 256 m 1,0,-1
 128 320 l 1,1,-1
 64 320 l 1,2,-1
 64 256 l 1,3,-1
 0 256 l 1,4,-1
 0 320 l 1,5,-1
 0 384 l 1,6,-1
 64 384 l 1,7,-1
 64 448 l 1,8,-1
 128 448 l 1,9,-1
 128 384 l 1,10,-1
 192 384 l 1,11,-1
 192 448 l 1,12,-1
 256 448 l 1,13,-1
 256 384 l 1,14,-1
 256 320 l 1,15,-1
 192 320 l 1,16,-1
 192 256 l 1,17,-1
 128 256 l 1,0,-1
EndSplineSet
EndChar

StartChar: guillemotleft
Encoding: 171 171 197
Width: 320
GlyphClass: 1
Flags: W
LayerCount: 2
Fore
SplineSet
0 127 m 1,0,-1
 0 191 l 1,1,-1
 64 191 l 1,2,-1
 64 127 l 1,3,-1
 128 127 l 1,4,-1
 128 63 l 1,5,-1
 128 -1 l 1,6,-1
 64 -1 l 1,7,-1
 64 63 l 1,8,-1
 0 63 l 1,9,-1
 0 127 l 1,0,-1
128 192 m 1,10,-1
 64 192 l 1,11,-1
 64 128 l 1,12,-1
 0 128 l 1,13,-1
 0 192 l 1,14,-1
 0 256 l 1,15,-1
 64 256 l 1,16,-1
 64 320 l 1,17,-1
 128 320 l 1,18,-1
 128 256 l 1,19,-1
 128 192 l 1,10,-1
128 127 m 1,20,-1
 128 191 l 1,21,-1
 192 191 l 1,22,-1
 192 127 l 1,23,-1
 256 127 l 1,24,-1
 256 63 l 1,25,-1
 256 -1 l 1,26,-1
 192 -1 l 1,27,-1
 192 63 l 1,28,-1
 128 63 l 1,29,-1
 128 127 l 1,20,-1
256 192 m 1,30,-1
 192 192 l 1,31,-1
 192 128 l 1,32,-1
 128 128 l 1,33,-1
 128 192 l 1,34,-1
 128 256 l 1,35,-1
 192 256 l 1,36,-1
 192 320 l 1,37,-1
 256 320 l 1,38,-1
 256 256 l 1,39,-1
 256 192 l 1,30,-1
EndSplineSet
EndChar

StartChar: guillemotright
Encoding: 187 187 198
Width: 320
GlyphClass: 1
Flags: W
LayerCount: 2
Fore
SplineSet
256 63 m 1,0,-1
 192 63 l 1,1,-1
 192 -1 l 1,2,-1
 128 -1 l 1,3,-1
 128 63 l 1,4,-1
 128 127 l 1,5,-1
 192 127 l 1,6,-1
 192 191 l 1,7,-1
 256 191 l 1,8,-1
 256 127 l 1,9,-1
 256 63 l 1,0,-1
128 256 m 1,10,-1
 128 320 l 1,11,-1
 192 320 l 1,12,-1
 192 256 l 1,13,-1
 256 256 l 1,14,-1
 256 192 l 1,15,-1
 256 128 l 1,16,-1
 192 128 l 1,17,-1
 192 192 l 1,18,-1
 128 192 l 1,19,-1
 128 256 l 1,10,-1
128 63 m 1,20,-1
 64 63 l 1,21,-1
 64 -1 l 1,22,-1
 0 -1 l 1,23,-1
 0 63 l 1,24,-1
 0 127 l 1,25,-1
 64 127 l 1,26,-1
 64 191 l 1,27,-1
 128 191 l 1,28,-1
 128 127 l 1,29,-1
 128 63 l 1,20,-1
0 256 m 1,30,-1
 0 320 l 1,31,-1
 64 320 l 1,32,-1
 64 256 l 1,33,-1
 128 256 l 1,34,-1
 128 192 l 1,35,-1
 128 128 l 1,36,-1
 64 128 l 1,37,-1
 64 192 l 1,38,-1
 0 192 l 1,39,-1
 0 256 l 1,30,-1
EndSplineSet
EndChar

StartChar: questiondown
Encoding: 191 191 199
Width: 384
GlyphClass: 1
Flags: W
LayerCount: 2
Fore
SplineSet
192 384 m 1,0,-1
 128 384 l 1,1,-1
 128 448 l 1,2,-1
 192 448 l 1,3,-1
 256 448 l 1,4,-1
 256 384 l 1,5,-1
 192 384 l 1,0,-1
192 320 m 1,6,-1
 256 320 l 1,7,-1
 256 256 l 1,8,-1
 256 192 l 1,9,-1
 192 192 l 1,10,-1
 192 128 l 1,11,-1
 128 128 l 1,12,-1
 128 64 l 1,13,-1
 192 64 l 1,14,-1
 256 64 l 1,15,-1
 320 64 l 1,16,-1
 320 0 l 1,17,-1
 256 0 l 1,18,-1
 192 0 l 1,19,-1
 128 0 l 1,20,-1
 64 0 l 1,21,-1
 64 64 l 1,22,-1
 0 64 l 1,23,-1
 0 128 l 1,24,-1
 64 128 l 1,25,-1
 64 192 l 1,26,-1
 128 192 l 1,27,-1
 128 256 l 1,28,-1
 128 320 l 1,29,-1
 192 320 l 1,6,-1
EndSplineSet
EndChar

StartChar: Atilde
Encoding: 195 195 200
Width: 448
GlyphClass: 1
Flags: W
LayerCount: 2
Fore
SplineSet
320 0 m 1,0,-1
 256 0 l 1,1,-1
 256 64 l 1,2,-1
 256 128 l 1,3,-1
 192 128 l 1,4,-1
 128 128 l 1,5,-1
 128 64 l 1,6,-1
 128 0 l 1,7,-1
 64 0 l 1,8,-1
 0 0 l 1,9,-1
 0 64 l 1,10,-1
 0 128 l 1,11,-1
 64 128 l 1,12,-1
 64 192 l 1,13,-1
 64 256 l 1,14,-1
 128 256 l 1,15,-1
 128 320 l 1,16,-1
 128 384 l 1,17,-1
 192 384 l 1,18,-1
 192 448 l 1,19,-1
 256 448 l 1,20,-1
 320 448 l 1,21,-1
 384 448 l 1,22,-1
 384 384 l 1,23,-1
 384 320 l 1,24,-1
 384 256 l 1,25,-1
 384 192 l 1,26,-1
 384 128 l 1,27,-1
 384 64 l 1,28,-1
 384 0 l 1,29,-1
 320 0 l 1,0,-1
256 192 m 1,30,-1
 256 256 l 1,31,-1
 256 320 l 1,32,-1
 256 384 l 1,33,-1
 192 384 l 1,34,-1
 192 320 l 1,35,-1
 192 256 l 1,36,-1
 192 192 l 1,37,-1
 256 192 l 1,30,-1
192 576 m 1,38,-1
 192 512 l 1,39,-1
 128 512 l 1,40,-1
 128 640 l 1,41,-1
 320 640 l 1,42,-1
 320 576 l 1,43,-1
 384 576 l 1,44,-1
 384 640 l 1,45,-1
 448 640 l 1,46,-1
 448 512 l 1,47,-1
 256 512 l 1,48,-1
 256 576 l 1,49,-1
 192 576 l 1,38,-1
EndSplineSet
EndChar

StartChar: atilde
Encoding: 227 227 201
Width: 512
GlyphClass: 1
Flags: W
LayerCount: 2
Fore
SplineSet
384 0 m 1,0,-1
 320 0 l 1,1,-1
 320 64 l 1,2,-1
 256 64 l 1,3,-1
 256 128 l 1,4,-1
 192 128 l 1,5,-1
 128 128 l 1,6,-1
 128 64 l 1,7,-1
 192 64 l 1,8,-1
 256 64 l 1,9,-1
 256 0 l 1,10,-1
 192 0 l 1,11,-1
 128 0 l 1,12,-1
 64 0 l 1,13,-1
 64 64 l 1,14,-1
 0 64 l 1,15,-1
 0 128 l 1,16,-1
 64 128 l 1,17,-1
 64 192 l 1,18,-1
 128 192 l 1,19,-1
 192 192 l 1,20,-1
 256 192 l 1,21,-1
 256 256 l 1,22,-1
 192 256 l 1,23,-1
 128 256 l 1,24,-1
 64 256 l 1,25,-1
 64 320 l 1,26,-1
 128 320 l 1,27,-1
 192 320 l 1,28,-1
 256 320 l 1,29,-1
 320 320 l 1,30,-1
 320 256 l 1,31,-1
 384 256 l 1,32,-1
 384 192 l 1,33,-1
 384 128 l 1,34,-1
 384 64 l 1,35,-1
 448 64 l 1,36,-1
 448 0 l 1,37,-1
 384 0 l 1,0,-1
128 384 m 1,38,-1
 128 320 l 1,39,-1
 64 320 l 1,40,-1
 64 384 l 1,41,-1
 128 384 l 1,38,-1
192 448 m 1,42,-1
 192 384 l 1,43,-1
 128 384 l 1,44,-1
 128 448 l 1,45,-1
 192 448 l 1,42,-1
256 384 m 1,46,-1
 256 320 l 1,47,-1
 192 320 l 1,48,-1
 192 384 l 1,49,-1
 256 384 l 1,46,-1
320 448 m 1,50,-1
 320 384 l 1,51,-1
 256 384 l 1,52,-1
 256 448 l 1,53,-1
 320 448 l 1,50,-1
EndSplineSet
EndChar

StartChar: Oacute
Encoding: 211 211 202
Width: 448
GlyphClass: 1
Flags: W
LayerCount: 2
Fore
SplineSet
256 0 m 1,0,-1
 192 0 l 1,1,-1
 128 0 l 1,2,-1
 64 0 l 1,3,-1
 64 64 l 1,4,-1
 0 64 l 1,5,-1
 0 128 l 1,6,-1
 0 192 l 1,7,-1
 0 256 l 1,8,-1
 0 320 l 1,9,-1
 0 384 l 1,10,-1
 64 384 l 1,11,-1
 64 448 l 1,12,-1
 128 448 l 1,13,-1
 192 448 l 1,14,-1
 256 448 l 1,15,-1
 320 448 l 1,16,-1
 320 384 l 1,17,-1
 384 384 l 1,18,-1
 384 320 l 1,19,-1
 384 256 l 1,20,-1
 384 192 l 1,21,-1
 384 128 l 1,22,-1
 384 64 l 1,23,-1
 320 64 l 1,24,-1
 320 0 l 1,25,-1
 256 0 l 1,0,-1
192 64 m 1,26,-1
 256 64 l 1,27,-1
 256 128 l 1,28,-1
 256 192 l 1,29,-1
 256 256 l 1,30,-1
 256 320 l 1,31,-1
 256 384 l 1,32,-1
 192 384 l 1,33,-1
 128 384 l 1,34,-1
 128 320 l 1,35,-1
 128 256 l 1,36,-1
 128 192 l 1,37,-1
 128 128 l 1,38,-1
 128 64 l 1,39,-1
 192 64 l 1,26,-1
192 640 m 1,40,-1
 192 576 l 1,41,-1
 128 576 l 1,42,-1
 128 512 l 1,43,-1
 256 512 l 1,44,-1
 256 576 l 1,45,-1
 320 576 l 1,46,-1
 320 640 l 1,47,-1
 192 640 l 1,40,-1
EndSplineSet
EndChar

StartChar: oacute
Encoding: 243 243 203
Width: 448
GlyphClass: 1
Flags: W
LayerCount: 2
Fore
SplineSet
256 320 m 1,0,-1
 256 384 l 1,1,-1
 320 384 l 1,2,-1
 320 448 l 1,3,-1
 192 448 l 1,4,-1
 192 384 l 1,5,-1
 128 384 l 1,6,-1
 128 320 l 1,7,-1
 256 320 l 1,0,-1
256 0 m 1,8,-1
 192 0 l 1,9,-1
 128 0 l 1,10,-1
 64 0 l 1,11,-1
 64 64 l 1,12,-1
 0 64 l 1,13,-1
 0 128 l 1,14,-1
 0 192 l 1,15,-1
 0 192 l 1,16,-1
 64 192 l 1,17,-1
 64 256 l 1,18,-1
 128 256 l 1,19,-1
 192 256 l 1,20,-1
 256 256 l 1,21,-1
 320 256 l 1,22,-1
 320 192 l 1,23,-1
 384 192 l 1,24,-1
 384 192 l 1,25,-1
 384 128 l 1,26,-1
 384 64 l 1,27,-1
 320 64 l 1,28,-1
 320 0 l 1,29,-1
 256 0 l 1,8,-1
192 64 m 1,30,-1
 256 64 l 1,31,-1
 256 128 l 1,32,-1
 256 192 l 1,33,-1
 256 192 l 1,34,-1
 192 192 l 1,35,-1
 128 192 l 1,36,-1
 128 192 l 1,37,-1
 128 128 l 1,38,-1
 128 64 l 1,39,-1
 192 64 l 1,30,-1
EndSplineSet
EndChar

StartChar: Ccedilla
Encoding: 199 199 204
Width: 448
GlyphClass: 1
Flags: W
LayerCount: 2
Fore
SplineSet
320 320 m 1,0,-1
 320 384 l 1,1,-1
 256 384 l 1,2,-1
 192 384 l 1,3,-1
 128 384 l 1,4,-1
 128 320 l 1,5,-1
 128 256 l 1,6,-1
 128 192 l 1,7,-1
 128 128 l 1,8,-1
 128 64 l 1,9,-1
 192 64 l 1,10,-1
 256 64 l 1,11,-1
 320 64 l 1,12,-1
 320 128 l 1,13,-1
 384 128 l 1,14,-1
 384 64 l 1,15,-1
 384 0 l 1,16,-1
 320 0 l 1,17,-1
 256 0 l 1,18,-1
 192 0 l 1,19,-1
 128 0 l 1,20,-1
 64 0 l 1,21,-1
 64 64 l 1,22,-1
 0 64 l 1,23,-1
 0 128 l 1,24,-1
 0 192 l 1,25,-1
 0 256 l 1,26,-1
 0 320 l 1,27,-1
 0 384 l 1,28,-1
 64 384 l 1,29,-1
 64 448 l 1,30,-1
 128 448 l 1,31,-1
 192 448 l 1,32,-1
 256 448 l 1,33,-1
 320 448 l 1,34,-1
 384 448 l 1,35,-1
 384 384 l 1,36,-1
 384 320 l 1,37,-1
 320 320 l 1,0,-1
192 -128 m 1,38,-1
 128 -128 l 1,39,-1
 128 -64 l 1,40,-1
 192 -64 l 1,41,-1
 192 0 l 1,42,-1
 256 0 l 1,43,-1
 320 0 l 1,44,-1
 320 -64 l 1,45,-1
 256 -64 l 1,46,-1
 256 -128 l 1,47,-1
 192 -128 l 1,38,-1
EndSplineSet
EndChar

StartChar: ccedilla
Encoding: 231 231 205
Width: 384
GlyphClass: 1
Flags: W
LayerCount: 2
Fore
SplineSet
256 192 m 1,0,-1
 256 256 l 1,1,-1
 192 256 l 1,2,-1
 128 256 l 1,3,-1
 128 192 l 1,4,-1
 128 128 l 1,5,-1
 128 64 l 1,6,-1
 192 64 l 1,7,-1
 256 64 l 1,8,-1
 256 128 l 1,9,-1
 320 128 l 1,10,-1
 320 64 l 1,11,-1
 320 0 l 1,12,-1
 256 0 l 1,13,-1
 192 0 l 1,14,-1
 128 0 l 1,15,-1
 64 0 l 1,16,-1
 64 64 l 1,17,-1
 0 64 l 1,18,-1
 0 128 l 1,19,-1
 0 192 l 1,20,-1
 0 256 l 1,21,-1
 64 256 l 1,22,-1
 64 320 l 1,23,-1
 128 320 l 1,24,-1
 192 320 l 1,25,-1
 256 320 l 1,26,-1
 320 320 l 1,27,-1
 320 256 l 1,28,-1
 320 192 l 1,29,-1
 256 192 l 1,0,-1
128 -128 m 1,30,-1
 64 -128 l 1,31,-1
 64 -64 l 1,32,-1
 128 -64 l 1,33,-1
 128 0 l 1,34,-1
 192 0 l 1,35,-1
 256 0 l 1,36,-1
 256 -64 l 1,37,-1
 192 -64 l 1,38,-1
 192 -128 l 1,39,-1
 128 -128 l 1,30,-1
EndSplineSet
EndChar

StartChar: Agrave
Encoding: 192 192 206
Width: 448
GlyphClass: 1
Flags: W
LayerCount: 2
Fore
SplineSet
320 0 m 1,0,-1
 256 0 l 1,1,-1
 256 64 l 1,2,-1
 256 128 l 1,3,-1
 192 128 l 1,4,-1
 128 128 l 1,5,-1
 128 64 l 1,6,-1
 128 0 l 1,7,-1
 64 0 l 1,8,-1
 0 0 l 1,9,-1
 0 64 l 1,10,-1
 0 128 l 1,11,-1
 64 128 l 1,12,-1
 64 192 l 1,13,-1
 64 256 l 1,14,-1
 128 256 l 1,15,-1
 128 320 l 1,16,-1
 128 384 l 1,17,-1
 192 384 l 1,18,-1
 192 448 l 1,19,-1
 256 448 l 1,20,-1
 320 448 l 1,21,-1
 384 448 l 1,22,-1
 384 384 l 1,23,-1
 384 320 l 1,24,-1
 384 256 l 1,25,-1
 384 192 l 1,26,-1
 384 128 l 1,27,-1
 384 64 l 1,28,-1
 384 0 l 1,29,-1
 320 0 l 1,0,-1
256 192 m 1,30,-1
 256 256 l 1,31,-1
 256 320 l 1,32,-1
 256 384 l 1,33,-1
 192 384 l 1,34,-1
 192 320 l 1,35,-1
 192 256 l 1,36,-1
 192 192 l 1,37,-1
 256 192 l 1,30,-1
192 640 m 1,38,-1
 192 576 l 1,39,-1
 256 576 l 1,40,-1
 256 512 l 1,41,-1
 384 512 l 1,42,-1
 384 576 l 1,43,-1
 320 576 l 1,44,-1
 320 640 l 1,45,-1
 192 640 l 1,38,-1
EndSplineSet
EndChar

StartChar: agrave
Encoding: 224 224 207
Width: 512
GlyphClass: 1
Flags: W
LayerCount: 2
Fore
SplineSet
384 0 m 1,0,-1
 320 0 l 1,1,-1
 320 64 l 1,2,-1
 256 64 l 1,3,-1
 256 128 l 1,4,-1
 192 128 l 1,5,-1
 128 128 l 1,6,-1
 128 64 l 1,7,-1
 192 64 l 1,8,-1
 256 64 l 1,9,-1
 256 0 l 1,10,-1
 192 0 l 1,11,-1
 128 0 l 1,12,-1
 64 0 l 1,13,-1
 64 64 l 1,14,-1
 0 64 l 1,15,-1
 0 128 l 1,16,-1
 64 128 l 1,17,-1
 64 192 l 1,18,-1
 128 192 l 1,19,-1
 192 192 l 1,20,-1
 256 192 l 1,21,-1
 256 256 l 1,22,-1
 192 256 l 1,23,-1
 128 256 l 1,24,-1
 64 256 l 1,25,-1
 64 320 l 1,26,-1
 128 320 l 1,27,-1
 192 320 l 1,28,-1
 256 320 l 1,29,-1
 320 320 l 1,30,-1
 320 256 l 1,31,-1
 384 256 l 1,32,-1
 384 192 l 1,33,-1
 384 128 l 1,34,-1
 384 64 l 1,35,-1
 448 64 l 1,36,-1
 448 0 l 1,37,-1
 384 0 l 1,0,-1
320 320 m 1,38,-1
 320 384 l 1,39,-1
 256 384 l 1,40,-1
 256 448 l 1,41,-1
 128 448 l 1,42,-1
 128 384 l 1,43,-1
 192 384 l 1,44,-1
 192 320 l 1,45,-1
 320 320 l 1,38,-1
EndSplineSet
EndChar

StartChar: Ocircumflex
Encoding: 212 212 208
Width: 448
GlyphClass: 1
Flags: W
LayerCount: 2
Fore
SplineSet
256 0 m 1,0,-1
 192 0 l 1,1,-1
 128 0 l 1,2,-1
 64 0 l 1,3,-1
 64 64 l 1,4,-1
 0 64 l 1,5,-1
 0 128 l 1,6,-1
 0 192 l 1,7,-1
 0 256 l 1,8,-1
 0 320 l 1,9,-1
 0 384 l 1,10,-1
 64 384 l 1,11,-1
 64 448 l 1,12,-1
 128 448 l 1,13,-1
 192 448 l 1,14,-1
 256 448 l 1,15,-1
 320 448 l 1,16,-1
 320 384 l 1,17,-1
 384 384 l 1,18,-1
 384 320 l 1,19,-1
 384 256 l 1,20,-1
 384 192 l 1,21,-1
 384 128 l 1,22,-1
 384 64 l 1,23,-1
 320 64 l 1,24,-1
 320 0 l 1,25,-1
 256 0 l 1,0,-1
192 64 m 1,26,-1
 256 64 l 1,27,-1
 256 128 l 1,28,-1
 256 192 l 1,29,-1
 256 256 l 1,30,-1
 256 320 l 1,31,-1
 256 384 l 1,32,-1
 192 384 l 1,33,-1
 128 384 l 1,34,-1
 128 320 l 1,35,-1
 128 256 l 1,36,-1
 128 192 l 1,37,-1
 128 128 l 1,38,-1
 128 64 l 1,39,-1
 192 64 l 1,26,-1
192 576 m 1,40,-1
 192 640 l 1,41,-1
 64 640 l 1,42,-1
 64 576 l 1,43,-1
 128 576 l 1,44,-1
 128 512 l 1,45,-1
 320 512 l 1,46,-1
 320 576 l 1,47,-1
 384 576 l 1,48,-1
 384 640 l 1,49,-1
 256 640 l 1,50,-1
 256 576 l 1,51,-1
 192 576 l 1,40,-1
EndSplineSet
EndChar

StartChar: ocircumflex
Encoding: 244 244 209
Width: 448
GlyphClass: 1
Flags: W
LayerCount: 2
Fore
SplineSet
256 0 m 1,0,-1
 192 0 l 1,1,-1
 128 0 l 1,2,-1
 64 0 l 1,3,-1
 64 64 l 1,4,-1
 0 64 l 1,5,-1
 0 128 l 1,6,-1
 0 192 l 1,7,-1
 0 192 l 1,8,-1
 64 192 l 1,9,-1
 64 256 l 1,10,-1
 128 256 l 1,11,-1
 192 256 l 1,12,-1
 256 256 l 1,13,-1
 320 256 l 1,14,-1
 320 192 l 1,15,-1
 384 192 l 1,16,-1
 384 192 l 1,17,-1
 384 128 l 1,18,-1
 384 64 l 1,19,-1
 320 64 l 1,20,-1
 320 0 l 1,21,-1
 256 0 l 1,0,-1
192 64 m 1,22,-1
 256 64 l 1,23,-1
 256 128 l 1,24,-1
 256 192 l 1,25,-1
 256 192 l 1,26,-1
 192 192 l 1,27,-1
 128 192 l 1,28,-1
 128 192 l 1,29,-1
 128 128 l 1,30,-1
 128 64 l 1,31,-1
 192 64 l 1,22,-1
320 320 m 5,32,-1
 320 384 l 5,33,-1
 384 384 l 5,34,-1
 384 448 l 5,35,-1
 256 448 l 5,36,-1
 256 384 l 5,37,-1
 192 384 l 5,38,-1
 192 320 l 5,39,-1
 320 320 l 5,32,-1
256 320 m 5,40,-1
 256 384 l 5,41,-1
 192 384 l 5,42,-1
 192 448 l 5,43,-1
 64 448 l 5,44,-1
 64 384 l 5,45,-1
 128 384 l 5,46,-1
 128 320 l 5,47,-1
 256 320 l 5,40,-1
EndSplineSet
EndChar

StartChar: ellipsis
Encoding: 8230 8230 210
Width: 580
GlyphClass: 1
Flags: W
LayerCount: 2
Fore
SplineSet
64 64 m 1,0,-1
 128 64 l 1,1,-1
 128 0 l 1,2,-1
 64 0 l 1,3,-1
 0 0 l 1,4,-1
 0 64 l 1,5,-1
 64 64 l 1,0,-1
256 64 m 1,6,-1
 320 64 l 1,7,-1
 320 0 l 1,8,-1
 256 0 l 1,9,-1
 192 0 l 1,10,-1
 192 64 l 1,11,-1
 256 64 l 1,6,-1
448 64 m 1,12,-1
 512 64 l 1,13,-1
 512 0 l 1,14,-1
 448 0 l 1,15,-1
 384 0 l 1,16,-1
 384 64 l 1,17,-1
 448 64 l 1,12,-1
EndSplineSet
EndChar

StartChar: braceleft
Encoding: 123 123 211
Width: 320
GlyphClass: 1
Flags: W
LayerCount: 2
Fore
SplineSet
64 384 m 1,0,-1
 128 384 l 1,1,-1
 128 448 l 1,2,-1
 256 448 l 1,3,-1
 256 384 l 1,4,-1
 192 384 l 1,5,-1
 192 256 l 1,6,-1
 128 256 l 1,7,-1
 128 192 l 1,8,-1
 192 192 l 1,9,-1
 192 64 l 1,10,-1
 256 64 l 1,11,-1
 256 0 l 1,12,-1
 128 0 l 1,13,-1
 128 64 l 1,14,-1
 64 64 l 1,15,-1
 64 192 l 1,16,-1
 0 192 l 1,17,-1
 0 256 l 1,18,-1
 64 256 l 1,19,-1
 64 384 l 1,0,-1
EndSplineSet
EndChar

StartChar: braceright
Encoding: 125 125 212
Width: 320
GlyphClass: 1
Flags: W
LayerCount: 2
Fore
SplineSet
192 256 m 1,0,-1
 256 256 l 1,1,-1
 256 192 l 1,2,-1
 192 192 l 1,3,-1
 192 64 l 1,4,-1
 128 64 l 1,5,-1
 128 0 l 1,6,-1
 0 0 l 1,7,-1
 0 64 l 1,8,-1
 64 64 l 1,9,-1
 64 192 l 1,10,-1
 128 192 l 1,11,-1
 128 256 l 1,12,-1
 64 256 l 1,13,-1
 64 384 l 1,14,-1
 0 384 l 1,15,-1
 0 448 l 1,16,-1
 128 448 l 1,17,-1
 128 384 l 1,18,-1
 192 384 l 1,19,-1
 192 256 l 1,0,-1
EndSplineSet
EndChar

StartChar: quotedblbase
Encoding: 8222 8222 213
Width: 320
GlyphClass: 1
Flags: W
LayerCount: 2
Fore
SplineSet
128 0 m 1,0,-1
 128 64 l 1,1,-1
 64 64 l 1,2,-1
 64 0 l 1,3,-1
 0 0 l 1,4,-1
 0 64 l 1,5,-1
 0 128 l 1,6,-1
 64 128 l 1,7,-1
 64 192 l 1,8,-1
 128 192 l 1,9,-1
 128 128 l 1,10,-1
 192 128 l 1,11,-1
 192 192 l 1,12,-1
 256 192 l 1,13,-1
 256 128 l 1,14,-1
 256 64 l 1,15,-1
 192 64 l 1,16,-1
 192 0 l 1,17,-1
 128 0 l 1,0,-1
EndSplineSet
EndChar

StartChar: exclamdown
Encoding: 161 161 214
Width: 192
GlyphClass: 1
Flags: W
LayerCount: 2
Fore
SplineSet
0 384 m 1,0,-1
 0 448 l 1,1,-1
 64 448 l 1,2,-1
 128 448 l 1,3,-1
 128 384 l 1,4,-1
 64 384 l 1,5,-1
 0 384 l 1,0,-1
128 320 m 1,6,-1
 128 256 l 1,7,-1
 128 192 l 1,8,-1
 128 128 l 1,9,-1
 128 64 l 1,10,-1
 128 0 l 1,11,-1
 64 0 l 1,12,-1
 0 0 l 1,13,-1
 0 64 l 1,14,-1
 0 128 l 1,15,-1
 0 192 l 1,16,-1
 0 256 l 1,17,-1
 0 320 l 1,18,-1
 64 320 l 1,19,-1
 128 320 l 1,6,-1
EndSplineSet
EndChar

StartChar: asciicircum
Encoding: 94 94 215
Width: 388
GlyphClass: 1
Flags: W
LayerCount: 2
Fore
SplineSet
64 320 m 1,0,-1
 0 320 l 1,1,-1
 0 384 l 1,2,-1
 64 384 l 1,3,-1
 64 448 l 1,4,-1
 128 448 l 1,5,-1
 192 448 l 1,6,-1
 192 384 l 1,7,-1
 128 384 l 1,8,-1
 128 320 l 1,9,-1
 64 320 l 1,0,-1
192 320 m 1,10,-1
 192 384 l 1,11,-1
 128 384 l 1,12,-1
 128 448 l 1,13,-1
 192 448 l 1,14,-1
 256 448 l 1,15,-1
 256 384 l 1,16,-1
 320 384 l 1,17,-1
 320 320 l 1,18,-1
 256 320 l 1,19,-1
 192 320 l 1,10,-1
EndSplineSet
EndChar

StartChar: Aacute
Encoding: 193 193 216
Width: 448
GlyphClass: 1
Flags: W
LayerCount: 2
Fore
SplineSet
320 0 m 1,0,-1
 256 0 l 1,1,-1
 256 64 l 1,2,-1
 256 128 l 1,3,-1
 192 128 l 1,4,-1
 128 128 l 1,5,-1
 128 64 l 1,6,-1
 128 0 l 1,7,-1
 64 0 l 1,8,-1
 0 0 l 1,9,-1
 0 64 l 1,10,-1
 0 128 l 1,11,-1
 64 128 l 1,12,-1
 64 192 l 1,13,-1
 64 256 l 1,14,-1
 128 256 l 1,15,-1
 128 320 l 1,16,-1
 128 384 l 1,17,-1
 192 384 l 1,18,-1
 192 448 l 1,19,-1
 256 448 l 1,20,-1
 320 448 l 1,21,-1
 384 448 l 1,22,-1
 384 384 l 1,23,-1
 384 320 l 1,24,-1
 384 256 l 1,25,-1
 384 192 l 1,26,-1
 384 128 l 1,27,-1
 384 64 l 1,28,-1
 384 0 l 1,29,-1
 320 0 l 1,0,-1
256 192 m 1,30,-1
 256 256 l 1,31,-1
 256 320 l 1,32,-1
 256 384 l 1,33,-1
 192 384 l 1,34,-1
 192 320 l 1,35,-1
 192 256 l 1,36,-1
 192 192 l 1,37,-1
 256 192 l 1,30,-1
256 640 m 1,38,-1
 256 576 l 1,39,-1
 192 576 l 1,40,-1
 192 512 l 1,41,-1
 320 512 l 1,42,-1
 320 576 l 1,43,-1
 384 576 l 1,44,-1
 384 640 l 1,45,-1
 256 640 l 1,38,-1
EndSplineSet
EndChar

StartChar: aacute
Encoding: 225 225 217
Width: 512
GlyphClass: 1
Flags: W
LayerCount: 2
Fore
SplineSet
384 0 m 1,0,-1
 320 0 l 1,1,-1
 320 64 l 1,2,-1
 256 64 l 1,3,-1
 256 128 l 1,4,-1
 192 128 l 1,5,-1
 128 128 l 1,6,-1
 128 64 l 1,7,-1
 192 64 l 1,8,-1
 256 64 l 1,9,-1
 256 0 l 1,10,-1
 192 0 l 1,11,-1
 128 0 l 1,12,-1
 64 0 l 1,13,-1
 64 64 l 1,14,-1
 0 64 l 1,15,-1
 0 128 l 1,16,-1
 64 128 l 1,17,-1
 64 192 l 1,18,-1
 128 192 l 1,19,-1
 192 192 l 1,20,-1
 256 192 l 1,21,-1
 256 256 l 1,22,-1
 192 256 l 1,23,-1
 128 256 l 1,24,-1
 64 256 l 1,25,-1
 64 320 l 1,26,-1
 128 320 l 1,27,-1
 192 320 l 1,28,-1
 256 320 l 1,29,-1
 320 320 l 1,30,-1
 320 256 l 1,31,-1
 384 256 l 1,32,-1
 384 192 l 1,33,-1
 384 128 l 1,34,-1
 384 64 l 1,35,-1
 448 64 l 1,36,-1
 448 0 l 1,37,-1
 384 0 l 1,0,-1
256 320 m 1,38,-1
 256 384 l 1,39,-1
 320 384 l 1,40,-1
 320 448 l 1,41,-1
 192 448 l 1,42,-1
 192 384 l 1,43,-1
 128 384 l 1,44,-1
 128 320 l 1,45,-1
 256 320 l 1,38,-1
EndSplineSet
EndChar

StartChar: Iacute
Encoding: 205 205 218
Width: 320
GlyphClass: 1
Flags: W
LayerCount: 2
Fore
SplineSet
192 0 m 1,0,-1
 128 0 l 1,1,-1
 64 0 l 1,2,-1
 0 0 l 1,3,-1
 0 64 l 1,4,-1
 64 64 l 1,5,-1
 64 128 l 1,6,-1
 64 192 l 1,7,-1
 64 256 l 1,8,-1
 64 320 l 1,9,-1
 64 384 l 1,10,-1
 0 384 l 1,11,-1
 0 448 l 1,12,-1
 64 448 l 1,13,-1
 128 448 l 1,14,-1
 192 448 l 1,15,-1
 256 448 l 1,16,-1
 256 384 l 1,17,-1
 192 384 l 1,18,-1
 128 384 l 1,19,-1
 128 320 l 1,20,-1
 192 320 l 1,21,-1
 192 256 l 1,22,-1
 192 192 l 1,23,-1
 192 128 l 1,24,-1
 192 64 l 1,25,-1
 256 64 l 1,26,-1
 256 0 l 1,27,-1
 192 0 l 1,0,-1
128 640 m 1,28,-1
 128 576 l 1,29,-1
 64 576 l 1,30,-1
 64 512 l 1,31,-1
 192 512 l 1,32,-1
 192 576 l 1,33,-1
 256 576 l 1,34,-1
 256 640 l 1,35,-1
 128 640 l 1,28,-1
EndSplineSet
EndChar

StartChar: iacute
Encoding: 237 237 219
Width: 192
GlyphClass: 1
Flags: W
LayerCount: 2
Fore
SplineSet
128 320 m 1,0,-1
 128 384 l 1,1,-1
 192 384 l 1,2,-1
 192 448 l 1,3,-1
 64 448 l 1,4,-1
 64 384 l 1,5,-1
 0 384 l 1,6,-1
 0 320 l 1,7,-1
 128 320 l 1,0,-1
64 0 m 1,8,-1
 0 0 l 1,9,-1
 0 0 l 1,10,-1
 0 64 l 1,11,-1
 0 128 l 1,12,-1
 0 192 l 1,13,-1
 64 192 l 1,14,-1
 64 256 l 1,15,-1
 128 256 l 1,16,-1
 128 192 l 1,17,-1
 128 128 l 1,18,-1
 128 64 l 1,19,-1
 128 0 l 1,20,-1
 128 0 l 1,21,-1
 64 0 l 1,8,-1
EndSplineSet
EndChar

StartChar: Ntilde
Encoding: 209 209 220
Width: 448
GlyphClass: 1
Flags: W
LayerCount: 2
Fore
SplineSet
320 0 m 1,0,-1
 256 0 l 1,1,-1
 256 64 l 1,2,-1
 256 128 l 1,3,-1
 256 192 l 1,4,-1
 192 192 l 1,5,-1
 192 256 l 1,6,-1
 128 256 l 1,7,-1
 64 256 l 1,8,-1
 64 192 l 1,9,-1
 128 192 l 1,10,-1
 128 128 l 1,11,-1
 128 64 l 1,12,-1
 128 0 l 1,13,-1
 64 0 l 1,14,-1
 0 0 l 1,15,-1
 0 64 l 1,16,-1
 0 128 l 1,17,-1
 0 192 l 1,18,-1
 0 256 l 1,19,-1
 0 320 l 1,20,-1
 0 384 l 1,21,-1
 0 448 l 1,22,-1
 64 448 l 1,23,-1
 128 448 l 1,24,-1
 128 384 l 1,25,-1
 192 384 l 1,26,-1
 192 320 l 1,27,-1
 256 320 l 1,28,-1
 256 384 l 1,29,-1
 256 448 l 1,30,-1
 320 448 l 1,31,-1
 384 448 l 1,32,-1
 384 384 l 1,33,-1
 384 320 l 1,34,-1
 384 256 l 1,35,-1
 384 192 l 1,36,-1
 384 128 l 1,37,-1
 384 64 l 1,38,-1
 384 0 l 1,39,-1
 320 0 l 1,0,-1
128 576 m 1,40,-1
 128 512 l 1,41,-1
 64 512 l 1,42,-1
 64 640 l 1,43,-1
 256 640 l 1,44,-1
 256 576 l 1,45,-1
 320 576 l 1,46,-1
 320 640 l 1,47,-1
 384 640 l 1,48,-1
 384 512 l 1,49,-1
 192 512 l 1,50,-1
 192 576 l 1,51,-1
 128 576 l 1,40,-1
EndSplineSet
EndChar

StartChar: ntilde
Encoding: 241 241 221
Width: 448
GlyphClass: 1
Flags: W
LayerCount: 2
Fore
SplineSet
256 0 m 1,0,-1
 256 64 l 1,1,-1
 256 128 l 1,2,-1
 256 192 l 1,3,-1
 256 192 l 1,4,-1
 192 192 l 1,5,-1
 128 192 l 1,6,-1
 128 192 l 1,7,-1
 128 128 l 1,8,-1
 128 64 l 1,9,-1
 128 0 l 1,10,-1
 64 0 l 1,11,-1
 0 0 l 1,12,-1
 0 64 l 1,13,-1
 0 128 l 1,14,-1
 0 192 l 1,15,-1
 0 192 l 1,16,-1
 0 256 l 1,17,-1
 64 256 l 1,18,-1
 64 192 l 1,19,-1
 128 192 l 1,20,-1
 128 256 l 1,21,-1
 192 256 l 1,22,-1
 256 256 l 1,23,-1
 320 256 l 1,24,-1
 320 192 l 1,25,-1
 384 192 l 1,26,-1
 384 192 l 1,27,-1
 384 128 l 1,28,-1
 384 64 l 1,29,-1
 320 64 l 1,30,-1
 320 0 l 1,31,-1
 256 0 l 1,0,-1
128 384 m 1,32,-1
 128 320 l 1,33,-1
 64 320 l 1,34,-1
 64 448 l 1,35,-1
 256 448 l 1,36,-1
 256 384 l 1,37,-1
 320 384 l 1,38,-1
 320 448 l 1,39,-1
 384 448 l 1,40,-1
 384 320 l 1,41,-1
 192 320 l 1,42,-1
 192 384 l 1,43,-1
 128 384 l 1,32,-1
EndSplineSet
EndChar

StartChar: Otilde
Encoding: 213 213 222
Width: 448
GlyphClass: 1
Flags: W
LayerCount: 2
Fore
SplineSet
256 0 m 1,0,-1
 192 0 l 1,1,-1
 128 0 l 1,2,-1
 64 0 l 1,3,-1
 64 64 l 1,4,-1
 0 64 l 1,5,-1
 0 128 l 1,6,-1
 0 192 l 1,7,-1
 0 256 l 1,8,-1
 0 320 l 1,9,-1
 0 384 l 1,10,-1
 64 384 l 1,11,-1
 64 448 l 1,12,-1
 128 448 l 1,13,-1
 192 448 l 1,14,-1
 256 448 l 1,15,-1
 320 448 l 1,16,-1
 320 384 l 1,17,-1
 384 384 l 1,18,-1
 384 320 l 1,19,-1
 384 256 l 1,20,-1
 384 192 l 1,21,-1
 384 128 l 1,22,-1
 384 64 l 1,23,-1
 320 64 l 1,24,-1
 320 0 l 1,25,-1
 256 0 l 1,0,-1
192 64 m 1,26,-1
 256 64 l 1,27,-1
 256 128 l 1,28,-1
 256 192 l 1,29,-1
 256 256 l 1,30,-1
 256 320 l 1,31,-1
 256 384 l 1,32,-1
 192 384 l 1,33,-1
 128 384 l 1,34,-1
 128 320 l 1,35,-1
 128 256 l 1,36,-1
 128 192 l 1,37,-1
 128 128 l 1,38,-1
 128 64 l 1,39,-1
 192 64 l 1,26,-1
128 576 m 1,40,-1
 128 512 l 1,41,-1
 64 512 l 1,42,-1
 64 640 l 1,43,-1
 256 640 l 1,44,-1
 256 576 l 1,45,-1
 320 576 l 1,46,-1
 320 640 l 1,47,-1
 384 640 l 1,48,-1
 384 512 l 1,49,-1
 192 512 l 1,50,-1
 192 576 l 1,51,-1
 128 576 l 1,40,-1
EndSplineSet
EndChar

StartChar: otilde
Encoding: 245 245 223
Width: 448
GlyphClass: 1
Flags: W
LayerCount: 2
Fore
SplineSet
256 0 m 1,0,-1
 192 0 l 1,1,-1
 128 0 l 1,2,-1
 64 0 l 1,3,-1
 64 64 l 1,4,-1
 0 64 l 1,5,-1
 0 128 l 1,6,-1
 0 192 l 1,7,-1
 0 192 l 1,8,-1
 64 192 l 1,9,-1
 64 256 l 1,10,-1
 128 256 l 1,11,-1
 192 256 l 1,12,-1
 256 256 l 1,13,-1
 320 256 l 1,14,-1
 320 192 l 1,15,-1
 384 192 l 1,16,-1
 384 192 l 1,17,-1
 384 128 l 1,18,-1
 384 64 l 1,19,-1
 320 64 l 1,20,-1
 320 0 l 1,21,-1
 256 0 l 1,0,-1
192 64 m 1,22,-1
 256 64 l 1,23,-1
 256 128 l 1,24,-1
 256 192 l 1,25,-1
 256 192 l 1,26,-1
 192 192 l 1,27,-1
 128 192 l 1,28,-1
 128 192 l 1,29,-1
 128 128 l 1,30,-1
 128 64 l 1,31,-1
 192 64 l 1,22,-1
128 384 m 1,32,-1
 128 320 l 1,33,-1
 64 320 l 1,34,-1
 64 448 l 1,35,-1
 256 448 l 1,36,-1
 256 384 l 1,37,-1
 320 384 l 1,38,-1
 320 448 l 1,39,-1
 384 448 l 1,40,-1
 384 320 l 1,41,-1
 192 320 l 1,42,-1
 192 384 l 1,43,-1
 128 384 l 1,32,-1
EndSplineSet
EndChar

StartChar: Acircumflex
Encoding: 194 194 224
Width: 448
GlyphClass: 1
Flags: W
LayerCount: 2
Fore
SplineSet
320 0 m 1,0,-1
 256 0 l 1,1,-1
 256 64 l 1,2,-1
 256 128 l 1,3,-1
 192 128 l 1,4,-1
 128 128 l 1,5,-1
 128 64 l 1,6,-1
 128 0 l 1,7,-1
 64 0 l 1,8,-1
 0 0 l 1,9,-1
 0 64 l 1,10,-1
 0 128 l 1,11,-1
 64 128 l 1,12,-1
 64 192 l 1,13,-1
 64 256 l 1,14,-1
 128 256 l 1,15,-1
 128 320 l 1,16,-1
 128 384 l 1,17,-1
 192 384 l 1,18,-1
 192 448 l 1,19,-1
 256 448 l 1,20,-1
 320 448 l 1,21,-1
 384 448 l 1,22,-1
 384 384 l 1,23,-1
 384 320 l 1,24,-1
 384 256 l 1,25,-1
 384 192 l 1,26,-1
 384 128 l 1,27,-1
 384 64 l 1,28,-1
 384 0 l 1,29,-1
 320 0 l 1,0,-1
256 192 m 1,30,-1
 256 256 l 1,31,-1
 256 320 l 1,32,-1
 256 384 l 1,33,-1
 192 384 l 1,34,-1
 192 320 l 1,35,-1
 192 256 l 1,36,-1
 192 192 l 1,37,-1
 256 192 l 1,30,-1
192 640 m 1,38,-1
 192 576 l 1,39,-1
 128 576 l 1,40,-1
 128 512 l 1,41,-1
 256 512 l 1,42,-1
 256 576 l 1,43,-1
 320 576 l 1,44,-1
 320 512 l 1,45,-1
 448 512 l 1,46,-1
 448 576 l 1,47,-1
 384 576 l 1,48,-1
 384 640 l 1,49,-1
 192 640 l 1,38,-1
EndSplineSet
EndChar

StartChar: acircumflex
Encoding: 226 226 225
Width: 512
GlyphClass: 1
Flags: W
LayerCount: 2
Fore
SplineSet
384 0 m 1,0,-1
 320 0 l 1,1,-1
 320 64 l 1,2,-1
 256 64 l 1,3,-1
 256 128 l 1,4,-1
 192 128 l 1,5,-1
 128 128 l 1,6,-1
 128 64 l 1,7,-1
 192 64 l 1,8,-1
 256 64 l 1,9,-1
 256 0 l 1,10,-1
 192 0 l 1,11,-1
 128 0 l 1,12,-1
 64 0 l 1,13,-1
 64 64 l 1,14,-1
 0 64 l 1,15,-1
 0 128 l 1,16,-1
 64 128 l 1,17,-1
 64 192 l 1,18,-1
 128 192 l 1,19,-1
 192 192 l 1,20,-1
 256 192 l 1,21,-1
 256 256 l 1,22,-1
 192 256 l 1,23,-1
 128 256 l 1,24,-1
 64 256 l 1,25,-1
 64 320 l 1,26,-1
 128 320 l 1,27,-1
 192 320 l 1,28,-1
 256 320 l 1,29,-1
 320 320 l 1,30,-1
 320 256 l 1,31,-1
 384 256 l 1,32,-1
 384 192 l 1,33,-1
 384 128 l 1,34,-1
 384 64 l 1,35,-1
 448 64 l 1,36,-1
 448 0 l 1,37,-1
 384 0 l 1,0,-1
192 384 m 1,38,-1
 192 320 l 1,39,-1
 128 320 l 1,40,-1
 128 384 l 1,41,-1
 192 384 l 1,38,-1
256 448 m 1,42,-1
 256 384 l 1,43,-1
 192 384 l 1,44,-1
 192 448 l 1,45,-1
 256 448 l 1,42,-1
320 384 m 1,46,-1
 320 320 l 1,47,-1
 256 320 l 1,48,-1
 256 384 l 1,49,-1
 320 384 l 1,46,-1
EndSplineSet
EndChar

StartChar: Uacute
Encoding: 218 218 226
Width: 448
GlyphClass: 1
Flags: W
LayerCount: 2
Fore
SplineSet
256 0 m 1,0,-1
 192 0 l 1,1,-1
 128 0 l 1,2,-1
 64 0 l 1,3,-1
 64 64 l 1,4,-1
 0 64 l 1,5,-1
 0 128 l 1,6,-1
 0 192 l 1,7,-1
 0 256 l 1,8,-1
 0 320 l 1,9,-1
 0 384 l 1,10,-1
 0 448 l 1,11,-1
 64 448 l 1,12,-1
 128 448 l 1,13,-1
 128 384 l 1,14,-1
 128 320 l 1,15,-1
 128 256 l 1,16,-1
 128 192 l 1,17,-1
 128 128 l 1,18,-1
 128 64 l 1,19,-1
 192 64 l 1,20,-1
 256 64 l 1,21,-1
 256 128 l 1,22,-1
 256 192 l 1,23,-1
 256 256 l 1,24,-1
 256 320 l 1,25,-1
 256 384 l 1,26,-1
 256 448 l 1,27,-1
 320 448 l 1,28,-1
 320 384 l 1,29,-1
 384 384 l 1,30,-1
 384 320 l 1,31,-1
 384 256 l 1,32,-1
 384 192 l 1,33,-1
 384 128 l 1,34,-1
 384 64 l 1,35,-1
 320 64 l 1,36,-1
 320 0 l 1,37,-1
 256 0 l 1,0,-1
192 640 m 1,38,-1
 192 576 l 1,39,-1
 128 576 l 1,40,-1
 128 512 l 1,41,-1
 256 512 l 1,42,-1
 256 576 l 1,43,-1
 320 576 l 1,44,-1
 320 640 l 1,45,-1
 192 640 l 1,38,-1
EndSplineSet
EndChar

StartChar: uacute
Encoding: 250 250 227
Width: 448
GlyphClass: 1
Flags: W
LayerCount: 2
Fore
SplineSet
256 320 m 1,0,-1
 256 384 l 1,1,-1
 320 384 l 1,2,-1
 320 448 l 1,3,-1
 192 448 l 1,4,-1
 192 384 l 1,5,-1
 128 384 l 1,6,-1
 128 320 l 1,7,-1
 256 320 l 1,0,-1
256 0 m 1,8,-1
 192 0 l 1,9,-1
 128 0 l 1,10,-1
 64 0 l 1,11,-1
 64 64 l 1,12,-1
 0 64 l 1,13,-1
 0 128 l 1,14,-1
 0 192 l 1,15,-1
 0 192 l 1,16,-1
 0 256 l 1,17,-1
 64 256 l 1,18,-1
 128 256 l 1,19,-1
 128 192 l 1,20,-1
 128 192 l 1,21,-1
 128 128 l 1,22,-1
 128 64 l 1,23,-1
 192 64 l 1,24,-1
 256 64 l 1,25,-1
 256 128 l 1,26,-1
 256 192 l 1,27,-1
 256 192 l 1,28,-1
 256 256 l 1,29,-1
 320 256 l 1,30,-1
 320 192 l 1,31,-1
 384 192 l 1,32,-1
 384 192 l 1,33,-1
 384 128 l 1,34,-1
 384 64 l 1,35,-1
 320 64 l 1,36,-1
 320 0 l 1,37,-1
 256 0 l 1,8,-1
EndSplineSet
EndChar

StartChar: Ugrave
Encoding: 217 217 228
Width: 448
GlyphClass: 1
Flags: W
LayerCount: 2
Fore
SplineSet
256 0 m 1,0,-1
 192 0 l 1,1,-1
 128 0 l 1,2,-1
 64 0 l 1,3,-1
 64 64 l 1,4,-1
 0 64 l 1,5,-1
 0 128 l 1,6,-1
 0 192 l 1,7,-1
 0 256 l 1,8,-1
 0 320 l 1,9,-1
 0 384 l 1,10,-1
 0 448 l 1,11,-1
 64 448 l 1,12,-1
 128 448 l 1,13,-1
 128 384 l 1,14,-1
 128 320 l 1,15,-1
 128 256 l 1,16,-1
 128 192 l 1,17,-1
 128 128 l 1,18,-1
 128 64 l 1,19,-1
 192 64 l 1,20,-1
 256 64 l 1,21,-1
 256 128 l 1,22,-1
 256 192 l 1,23,-1
 256 256 l 1,24,-1
 256 320 l 1,25,-1
 256 384 l 1,26,-1
 256 448 l 1,27,-1
 320 448 l 1,28,-1
 320 384 l 1,29,-1
 384 384 l 1,30,-1
 384 320 l 1,31,-1
 384 256 l 1,32,-1
 384 192 l 1,33,-1
 384 128 l 1,34,-1
 384 64 l 1,35,-1
 320 64 l 1,36,-1
 320 0 l 1,37,-1
 256 0 l 1,0,-1
128 640 m 1,38,-1
 128 576 l 1,39,-1
 192 576 l 1,40,-1
 192 512 l 1,41,-1
 320 512 l 1,42,-1
 320 576 l 1,43,-1
 256 576 l 1,44,-1
 256 640 l 1,45,-1
 128 640 l 1,38,-1
EndSplineSet
EndChar

StartChar: ugrave
Encoding: 249 249 229
Width: 448
GlyphClass: 1
Flags: W
LayerCount: 2
Fore
SplineSet
320 320 m 1,0,-1
 320 384 l 1,1,-1
 256 384 l 1,2,-1
 256 448 l 1,3,-1
 128 448 l 1,4,-1
 128 384 l 1,5,-1
 192 384 l 1,6,-1
 192 320 l 1,7,-1
 320 320 l 1,0,-1
256 0 m 1,8,-1
 192 0 l 1,9,-1
 128 0 l 1,10,-1
 64 0 l 1,11,-1
 64 64 l 1,12,-1
 0 64 l 1,13,-1
 0 128 l 1,14,-1
 0 192 l 1,15,-1
 0 192 l 1,16,-1
 0 256 l 1,17,-1
 64 256 l 1,18,-1
 128 256 l 1,19,-1
 128 192 l 1,20,-1
 128 192 l 1,21,-1
 128 128 l 1,22,-1
 128 64 l 1,23,-1
 192 64 l 1,24,-1
 256 64 l 1,25,-1
 256 128 l 1,26,-1
 256 192 l 1,27,-1
 256 192 l 1,28,-1
 256 256 l 1,29,-1
 320 256 l 1,30,-1
 320 192 l 1,31,-1
 384 192 l 1,32,-1
 384 192 l 1,33,-1
 384 128 l 1,34,-1
 384 64 l 1,35,-1
 320 64 l 1,36,-1
 320 0 l 1,37,-1
 256 0 l 1,8,-1
EndSplineSet
EndChar

StartChar: Ucircumflex
Encoding: 219 219 230
Width: 448
GlyphClass: 1
Flags: W
LayerCount: 2
Fore
SplineSet
256 0 m 1,0,-1
 192 0 l 1,1,-1
 128 0 l 1,2,-1
 64 0 l 1,3,-1
 64 64 l 1,4,-1
 0 64 l 1,5,-1
 0 128 l 1,6,-1
 0 192 l 1,7,-1
 0 256 l 1,8,-1
 0 320 l 1,9,-1
 0 384 l 1,10,-1
 0 448 l 1,11,-1
 64 448 l 1,12,-1
 128 448 l 1,13,-1
 128 384 l 1,14,-1
 128 320 l 1,15,-1
 128 256 l 1,16,-1
 128 192 l 1,17,-1
 128 128 l 1,18,-1
 128 64 l 1,19,-1
 192 64 l 1,20,-1
 256 64 l 1,21,-1
 256 128 l 1,22,-1
 256 192 l 1,23,-1
 256 256 l 1,24,-1
 256 320 l 1,25,-1
 256 384 l 1,26,-1
 256 448 l 1,27,-1
 320 448 l 1,28,-1
 320 384 l 1,29,-1
 384 384 l 1,30,-1
 384 320 l 1,31,-1
 384 256 l 1,32,-1
 384 192 l 1,33,-1
 384 128 l 1,34,-1
 384 64 l 1,35,-1
 320 64 l 1,36,-1
 320 0 l 1,37,-1
 256 0 l 1,0,-1
128 640 m 1,38,-1
 128 576 l 1,39,-1
 64 576 l 1,40,-1
 64 512 l 1,41,-1
 192 512 l 1,42,-1
 192 576 l 1,43,-1
 256 576 l 1,44,-1
 256 512 l 1,45,-1
 384 512 l 1,46,-1
 384 576 l 1,47,-1
 320 576 l 1,48,-1
 320 640 l 1,49,-1
 128 640 l 1,38,-1
EndSplineSet
EndChar

StartChar: ucircumflex
Encoding: 251 251 231
Width: 448
GlyphClass: 1
Flags: W
LayerCount: 2
Fore
SplineSet
256 0 m 1,0,-1
 192 0 l 1,1,-1
 128 0 l 1,2,-1
 64 0 l 1,3,-1
 64 64 l 1,4,-1
 0 64 l 1,5,-1
 0 128 l 1,6,-1
 0 192 l 1,7,-1
 0 192 l 1,8,-1
 0 256 l 1,9,-1
 64 256 l 1,10,-1
 128 256 l 1,11,-1
 128 192 l 1,12,-1
 128 192 l 1,13,-1
 128 128 l 1,14,-1
 128 64 l 1,15,-1
 192 64 l 1,16,-1
 256 64 l 1,17,-1
 256 128 l 1,18,-1
 256 192 l 1,19,-1
 256 192 l 1,20,-1
 256 256 l 1,21,-1
 320 256 l 1,22,-1
 320 192 l 1,23,-1
 384 192 l 1,24,-1
 384 192 l 1,25,-1
 384 128 l 1,26,-1
 384 64 l 1,27,-1
 320 64 l 1,28,-1
 320 0 l 1,29,-1
 256 0 l 1,0,-1
192 448 m 1,30,-1
 192 384 l 1,31,-1
 256 384 l 1,32,-1
 256 320 l 1,33,-1
 384 320 l 1,34,-1
 384 384 l 1,35,-1
 320 384 l 1,36,-1
 320 448 l 1,37,-1
 192 448 l 1,30,-1
128 448 m 1,38,-1
 128 384 l 1,39,-1
 64 384 l 1,40,-1
 64 320 l 1,41,-1
 192 320 l 1,42,-1
 192 384 l 1,43,-1
 256 384 l 1,44,-1
 256 448 l 1,45,-1
 128 448 l 1,38,-1
EndSplineSet
EndChar

StartChar: Ograve
Encoding: 210 210 232
Width: 448
GlyphClass: 1
Flags: W
LayerCount: 2
Fore
SplineSet
256 0 m 1,0,-1
 192 0 l 1,1,-1
 128 0 l 1,2,-1
 64 0 l 1,3,-1
 64 64 l 1,4,-1
 0 64 l 1,5,-1
 0 128 l 1,6,-1
 0 192 l 1,7,-1
 0 256 l 1,8,-1
 0 320 l 1,9,-1
 0 384 l 1,10,-1
 64 384 l 1,11,-1
 64 448 l 1,12,-1
 128 448 l 1,13,-1
 192 448 l 1,14,-1
 256 448 l 1,15,-1
 320 448 l 1,16,-1
 320 384 l 1,17,-1
 384 384 l 1,18,-1
 384 320 l 1,19,-1
 384 256 l 1,20,-1
 384 192 l 1,21,-1
 384 128 l 1,22,-1
 384 64 l 1,23,-1
 320 64 l 1,24,-1
 320 0 l 1,25,-1
 256 0 l 1,0,-1
192 64 m 1,26,-1
 256 64 l 1,27,-1
 256 128 l 1,28,-1
 256 192 l 1,29,-1
 256 256 l 1,30,-1
 256 320 l 1,31,-1
 256 384 l 1,32,-1
 192 384 l 1,33,-1
 128 384 l 1,34,-1
 128 320 l 1,35,-1
 128 256 l 1,36,-1
 128 192 l 1,37,-1
 128 128 l 1,38,-1
 128 64 l 1,39,-1
 192 64 l 1,26,-1
128 640 m 1,40,-1
 128 576 l 1,41,-1
 192 576 l 1,42,-1
 192 512 l 1,43,-1
 320 512 l 1,44,-1
 320 576 l 1,45,-1
 256 576 l 1,46,-1
 256 640 l 1,47,-1
 128 640 l 1,40,-1
EndSplineSet
EndChar

StartChar: ograve
Encoding: 242 242 233
Width: 448
GlyphClass: 1
Flags: W
LayerCount: 2
Fore
SplineSet
320 320 m 1,0,-1
 320 384 l 1,1,-1
 256 384 l 1,2,-1
 256 448 l 1,3,-1
 128 448 l 1,4,-1
 128 384 l 1,5,-1
 192 384 l 1,6,-1
 192 320 l 1,7,-1
 320 320 l 1,0,-1
256 0 m 1,8,-1
 192 0 l 1,9,-1
 128 0 l 1,10,-1
 64 0 l 1,11,-1
 64 64 l 1,12,-1
 0 64 l 1,13,-1
 0 128 l 1,14,-1
 0 192 l 1,15,-1
 0 192 l 1,16,-1
 64 192 l 1,17,-1
 64 256 l 1,18,-1
 128 256 l 1,19,-1
 192 256 l 1,20,-1
 256 256 l 1,21,-1
 320 256 l 1,22,-1
 320 192 l 1,23,-1
 384 192 l 1,24,-1
 384 192 l 1,25,-1
 384 128 l 1,26,-1
 384 64 l 1,27,-1
 320 64 l 1,28,-1
 320 0 l 1,29,-1
 256 0 l 1,8,-1
192 64 m 1,30,-1
 256 64 l 1,31,-1
 256 128 l 1,32,-1
 256 192 l 1,33,-1
 256 192 l 1,34,-1
 192 192 l 1,35,-1
 128 192 l 1,36,-1
 128 192 l 1,37,-1
 128 128 l 1,38,-1
 128 64 l 1,39,-1
 192 64 l 1,30,-1
EndSplineSet
EndChar

StartChar: Idieresis
Encoding: 207 207 234
Width: 320
GlyphClass: 1
Flags: W
LayerCount: 2
Fore
SplineSet
192 0 m 1,0,-1
 128 0 l 1,1,-1
 64 0 l 1,2,-1
 0 0 l 1,3,-1
 0 64 l 1,4,-1
 64 64 l 1,5,-1
 64 128 l 1,6,-1
 64 192 l 1,7,-1
 64 256 l 1,8,-1
 64 320 l 1,9,-1
 64 384 l 1,10,-1
 0 384 l 1,11,-1
 0 448 l 1,12,-1
 64 448 l 1,13,-1
 128 448 l 1,14,-1
 192 448 l 1,15,-1
 256 448 l 1,16,-1
 256 384 l 1,17,-1
 192 384 l 1,18,-1
 128 384 l 1,19,-1
 128 320 l 1,20,-1
 192 320 l 1,21,-1
 192 256 l 1,22,-1
 192 192 l 1,23,-1
 192 128 l 1,24,-1
 192 64 l 1,25,-1
 256 64 l 1,26,-1
 256 0 l 1,27,-1
 192 0 l 1,0,-1
160 512 m 1,28,-1
 224 512 l 1,29,-1
 224 576 l 1,30,-1
 160 576 l 1,31,-1
 160 512 l 1,28,-1
32 512 m 1,32,-1
 96 512 l 1,33,-1
 96 576 l 1,34,-1
 32 576 l 1,35,-1
 32 512 l 1,32,-1
EndSplineSet
EndChar

StartChar: idieresis
Encoding: 239 239 235
Width: 192
GlyphClass: 1
Flags: W
LayerCount: 2
Fore
SplineSet
64 0 m 1,0,-1
 0 0 l 1,1,-1
 0 64 l 1,2,-1
 0 128 l 1,3,-1
 0 192 l 1,4,-1
 0 256 l 1,5,-1
 64 256 l 1,6,-1
 64 320 l 1,7,-1
 128 320 l 1,8,-1
 128 256 l 1,9,-1
 128 192 l 1,10,-1
 128 128 l 1,11,-1
 128 64 l 1,12,-1
 128 0 l 1,13,-1
 64 0 l 1,0,-1
96 384 m 1,14,-1
 160 384 l 1,15,-1
 160 448 l 1,16,-1
 96 448 l 1,17,-1
 96 384 l 1,14,-1
-32 384 m 1,18,-1
 32 384 l 1,19,-1
 32 448 l 1,20,-1
 -32 448 l 1,21,-1
 -32 384 l 1,18,-1
EndSplineSet
EndChar

StartChar: Icircumflex
Encoding: 206 206 236
Width: 320
GlyphClass: 1
Flags: W
LayerCount: 2
Fore
SplineSet
192 0 m 1,0,-1
 128 0 l 1,1,-1
 64 0 l 1,2,-1
 0 0 l 1,3,-1
 0 64 l 1,4,-1
 64 64 l 1,5,-1
 64 128 l 1,6,-1
 64 192 l 1,7,-1
 64 256 l 1,8,-1
 64 320 l 1,9,-1
 64 384 l 1,10,-1
 0 384 l 1,11,-1
 0 448 l 1,12,-1
 64 448 l 1,13,-1
 128 448 l 1,14,-1
 192 448 l 1,15,-1
 256 448 l 1,16,-1
 256 384 l 1,17,-1
 192 384 l 1,18,-1
 128 384 l 1,19,-1
 128 320 l 1,20,-1
 192 320 l 1,21,-1
 192 256 l 1,22,-1
 192 192 l 1,23,-1
 192 128 l 1,24,-1
 192 64 l 1,25,-1
 256 64 l 1,26,-1
 256 0 l 1,27,-1
 192 0 l 1,0,-1
64 640 m 1,28,-1
 64 576 l 1,29,-1
 0 576 l 1,30,-1
 0 512 l 1,31,-1
 128 512 l 1,32,-1
 128 576 l 1,33,-1
 192 576 l 1,34,-1
 192 512 l 1,35,-1
 320 512 l 1,36,-1
 320 576 l 1,37,-1
 256 576 l 1,38,-1
 256 640 l 1,39,-1
 64 640 l 1,28,-1
EndSplineSet
EndChar

StartChar: icircumflex
Encoding: 238 238 237
Width: 192
GlyphClass: 1
Flags: W
LayerCount: 2
Fore
SplineSet
64 0 m 1,0,-1
 0 0 l 1,1,-1
 0 0 l 1,2,-1
 0 64 l 1,3,-1
 0 128 l 1,4,-1
 0 192 l 1,5,-1
 64 192 l 1,6,-1
 64 256 l 1,7,-1
 128 256 l 1,8,-1
 128 192 l 1,9,-1
 128 128 l 1,10,-1
 128 64 l 1,11,-1
 128 0 l 1,12,-1
 128 0 l 1,13,-1
 64 0 l 1,0,-1
64 448 m 1,14,-1
 64 384 l 1,15,-1
 128 384 l 1,16,-1
 128 320 l 1,17,-1
 256 320 l 1,18,-1
 256 384 l 1,19,-1
 192 384 l 1,20,-1
 192 448 l 1,21,-1
 64 448 l 1,14,-1
0 448 m 1,22,-1
 0 384 l 1,23,-1
 -64 384 l 1,24,-1
 -64 320 l 1,25,-1
 64 320 l 1,26,-1
 64 384 l 1,27,-1
 128 384 l 1,28,-1
 128 448 l 1,29,-1
 0 448 l 1,22,-1
EndSplineSet
EndChar

StartChar: Igrave
Encoding: 204 204 238
Width: 320
GlyphClass: 1
Flags: W
LayerCount: 2
Fore
SplineSet
192 0 m 1,0,-1
 128 0 l 1,1,-1
 64 0 l 1,2,-1
 0 0 l 1,3,-1
 0 64 l 1,4,-1
 64 64 l 1,5,-1
 64 128 l 1,6,-1
 64 192 l 1,7,-1
 64 256 l 1,8,-1
 64 320 l 1,9,-1
 64 384 l 1,10,-1
 0 384 l 1,11,-1
 0 448 l 1,12,-1
 64 448 l 1,13,-1
 128 448 l 1,14,-1
 192 448 l 1,15,-1
 256 448 l 1,16,-1
 256 384 l 1,17,-1
 192 384 l 1,18,-1
 128 384 l 1,19,-1
 128 320 l 1,20,-1
 192 320 l 1,21,-1
 192 256 l 1,22,-1
 192 192 l 1,23,-1
 192 128 l 1,24,-1
 192 64 l 1,25,-1
 256 64 l 1,26,-1
 256 0 l 1,27,-1
 192 0 l 1,0,-1
64 640 m 1,28,-1
 64 576 l 1,29,-1
 128 576 l 1,30,-1
 128 512 l 1,31,-1
 256 512 l 1,32,-1
 256 576 l 1,33,-1
 192 576 l 1,34,-1
 192 640 l 1,35,-1
 64 640 l 1,28,-1
EndSplineSet
EndChar

StartChar: igrave
Encoding: 236 236 239
Width: 192
GlyphClass: 1
Flags: W
LayerCount: 2
Fore
SplineSet
64 0 m 1,0,-1
 0 0 l 1,1,-1
 0 0 l 1,2,-1
 0 64 l 1,3,-1
 0 128 l 1,4,-1
 0 192 l 1,5,-1
 64 192 l 1,6,-1
 64 256 l 1,7,-1
 128 256 l 1,8,-1
 128 192 l 1,9,-1
 128 128 l 1,10,-1
 128 64 l 1,11,-1
 128 0 l 1,12,-1
 128 0 l 1,13,-1
 64 0 l 1,0,-1
192 320 m 1,14,-1
 192 384 l 1,15,-1
 128 384 l 1,16,-1
 128 448 l 1,17,-1
 0 448 l 1,18,-1
 0 384 l 1,19,-1
 64 384 l 1,20,-1
 64 320 l 1,21,-1
 192 320 l 1,14,-1
EndSplineSet
EndChar

StartChar: OE
Encoding: 338 338 240
Width: 768
GlyphClass: 1
Flags: W
LayerCount: 2
Fore
SplineSet
256 0 m 1,0,-1
 192 0 l 1,1,-1
 128 0 l 1,2,-1
 64 0 l 1,3,-1
 64 64 l 1,4,-1
 0 64 l 1,5,-1
 0 128 l 1,6,-1
 0 192 l 1,7,-1
 0 256 l 1,8,-1
 0 320 l 1,9,-1
 0 384 l 1,10,-1
 64 384 l 1,11,-1
 64 448 l 1,12,-1
 128 448 l 1,13,-1
 192 448 l 1,14,-1
 256 448 l 1,15,-1
 320 448 l 1,16,-1
 320 384 l 1,17,-1
 384 384 l 1,18,-1
 384 320 l 1,19,-1
 384 256 l 1,20,-1
 384 192 l 1,21,-1
 384 128 l 1,22,-1
 384 64 l 1,23,-1
 320 64 l 1,24,-1
 320 0 l 1,25,-1
 256 0 l 1,0,-1
192 64 m 1,26,-1
 256 64 l 1,27,-1
 256 128 l 1,28,-1
 256 192 l 1,29,-1
 256 256 l 1,30,-1
 256 320 l 1,31,-1
 256 384 l 1,32,-1
 192 384 l 1,33,-1
 128 384 l 1,34,-1
 128 320 l 1,35,-1
 128 256 l 1,36,-1
 128 192 l 1,37,-1
 128 128 l 1,38,-1
 128 64 l 1,39,-1
 192 64 l 1,26,-1
704 64 m 1,40,-1
 704 0 l 1,41,-1
 320 0 l 1,42,-1
 320 448 l 1,43,-1
 704 448 l 1,44,-1
 704 384 l 1,45,-1
 384 384 l 1,46,-1
 384 320 l 1,47,-1
 448 320 l 1,48,-1
 448 192 l 1,49,-1
 640 192 l 1,50,-1
 640 128 l 1,51,-1
 448 128 l 1,52,-1
 448 64 l 1,53,-1
 704 64 l 1,40,-1
EndSplineSet
EndChar

StartChar: oe
Encoding: 339 339 241
Width: 768
GlyphClass: 1
Flags: W
LayerCount: 2
Fore
SplineSet
256 0 m 1,0,-1
 192 0 l 1,1,-1
 128 0 l 1,2,-1
 64 0 l 1,3,-1
 64 64 l 1,4,-1
 0 64 l 1,5,-1
 0 128 l 1,6,-1
 0 192 l 1,7,-1
 0 256 l 1,8,-1
 64 256 l 1,9,-1
 64 320 l 1,10,-1
 128 320 l 1,11,-1
 192 320 l 1,12,-1
 256 320 l 1,13,-1
 320 320 l 1,14,-1
 320 256 l 1,15,-1
 384 256 l 1,16,-1
 384 192 l 1,17,-1
 384 128 l 1,18,-1
 384 64 l 1,19,-1
 320 64 l 1,20,-1
 320 0 l 1,21,-1
 256 0 l 1,0,-1
192 64 m 1,22,-1
 256 64 l 1,23,-1
 256 128 l 1,24,-1
 256 192 l 1,25,-1
 256 256 l 1,26,-1
 192 256 l 1,27,-1
 128 256 l 1,28,-1
 128 192 l 1,29,-1
 128 128 l 1,30,-1
 128 64 l 1,31,-1
 192 64 l 1,22,-1
640 64 m 1,32,-1
 640 0 l 1,33,-1
 384 0 l 1,34,-1
 384 64 l 1,35,-1
 320 64 l 1,36,-1
 320 256 l 1,37,-1
 384 256 l 1,38,-1
 384 320 l 1,39,-1
 640 320 l 1,40,-1
 640 256 l 1,41,-1
 704 256 l 1,42,-1
 704 192 l 1,43,-1
 640 192 l 1,44,-1
 640 128 l 1,45,-1
 448 128 l 1,46,-1
 448 64 l 1,47,-1
 640 64 l 1,32,-1
576 192 m 1,48,-1
 576 256 l 1,49,-1
 448 256 l 1,50,-1
 448 192 l 1,51,-1
 576 192 l 1,48,-1
EndSplineSet
EndChar

StartChar: Idotaccent
Encoding: 304 304 242
Width: 320
GlyphClass: 1
Flags: W
LayerCount: 2
Fore
SplineSet
192 0 m 1,0,-1
 128 0 l 1,1,-1
 64 0 l 1,2,-1
 0 0 l 1,3,-1
 0 64 l 1,4,-1
 64 64 l 1,5,-1
 64 128 l 1,6,-1
 64 192 l 1,7,-1
 64 256 l 1,8,-1
 64 320 l 1,9,-1
 64 384 l 1,10,-1
 0 384 l 1,11,-1
 0 448 l 1,12,-1
 64 448 l 1,13,-1
 128 448 l 1,14,-1
 192 448 l 1,15,-1
 256 448 l 1,16,-1
 256 384 l 1,17,-1
 192 384 l 1,18,-1
 128 384 l 1,19,-1
 128 320 l 1,20,-1
 192 320 l 1,21,-1
 192 256 l 1,22,-1
 192 192 l 1,23,-1
 192 128 l 1,24,-1
 192 64 l 1,25,-1
 256 64 l 1,26,-1
 256 0 l 1,27,-1
 192 0 l 1,0,-1
96 512 m 1,28,-1
 160 512 l 1,29,-1
 160 576 l 1,30,-1
 96 576 l 1,31,-1
 96 512 l 1,28,-1
EndSplineSet
EndChar

StartChar: dotlessi
Encoding: 305 305 243
Width: 192
GlyphClass: 1
Flags: W
LayerCount: 2
Fore
SplineSet
64 0 m 1,0,-1
 0 0 l 1,1,-1
 0 64 l 1,2,-1
 0 128 l 1,3,-1
 0 192 l 1,4,-1
 0 256 l 1,5,-1
 64 256 l 1,6,-1
 64 320 l 1,7,-1
 128 320 l 1,8,-1
 128 256 l 1,9,-1
 128 192 l 1,10,-1
 128 128 l 1,11,-1
 128 64 l 1,12,-1
 128 0 l 1,13,-1
 64 0 l 1,0,-1
EndSplineSet
EndChar

StartChar: emdash
Encoding: 8212 8212 244
Width: 448
GlyphClass: 1
Flags: W
LayerCount: 2
Fore
SplineSet
192 256 m 1,0,-1
 256 256 l 1,1,-1
 256 192 l 1,2,-1
 192 192 l 1,3,-1
 128 192 l 1,4,-1
 64 192 l 1,5,-1
 0 192 l 1,6,-1
 0 256 l 1,7,-1
 64 256 l 1,8,-1
 128 256 l 1,9,-1
 192 256 l 1,0,-1
320 256 m 1,10,-1
 384 256 l 1,11,-1
 384 192 l 1,12,-1
 320 192 l 1,13,-1
 256 192 l 1,14,-1
 192 192 l 1,15,-1
 128 192 l 1,16,-1
 128 256 l 1,17,-1
 192 256 l 1,18,-1
 256 256 l 1,19,-1
 320 256 l 1,10,-1
EndSplineSet
EndChar

StartChar: acute
Encoding: 180 180 245
Width: 256
GlyphClass: 1
Flags: W
LayerCount: 2
Fore
SplineSet
0 320 m 1,0,-1
 0 384 l 1,1,-1
 64 384 l 1,2,-1
 64 448 l 1,3,-1
 128 448 l 1,4,-1
 192 448 l 1,5,-1
 192 384 l 1,6,-1
 128 384 l 1,7,-1
 128 320 l 1,8,-1
 64 320 l 1,9,-1
 0 320 l 1,0,-1
EndSplineSet
EndChar

StartChar: Aogonek
Encoding: 260 260 246
Width: 448
GlyphClass: 1
Flags: W
LayerCount: 2
Fore
SplineSet
320 0 m 1,0,-1
 256 0 l 1,1,-1
 256 64 l 1,2,-1
 256 128 l 1,3,-1
 192 128 l 1,4,-1
 128 128 l 1,5,-1
 128 64 l 1,6,-1
 128 0 l 1,7,-1
 64 0 l 1,8,-1
 0 0 l 1,9,-1
 0 64 l 1,10,-1
 0 128 l 1,11,-1
 64 128 l 1,12,-1
 64 192 l 1,13,-1
 64 256 l 1,14,-1
 128 256 l 1,15,-1
 128 320 l 1,16,-1
 128 384 l 1,17,-1
 192 384 l 1,18,-1
 192 448 l 1,19,-1
 256 448 l 1,20,-1
 320 448 l 1,21,-1
 384 448 l 1,22,-1
 384 384 l 1,23,-1
 384 320 l 1,24,-1
 384 256 l 1,25,-1
 384 192 l 1,26,-1
 384 128 l 1,27,-1
 384 64 l 1,28,-1
 384 0 l 1,29,-1
 320 0 l 1,0,-1
256 192 m 1,30,-1
 256 256 l 1,31,-1
 256 320 l 1,32,-1
 256 384 l 1,33,-1
 192 384 l 1,34,-1
 192 320 l 1,35,-1
 192 256 l 1,36,-1
 192 192 l 1,37,-1
 256 192 l 1,30,-1
320 -128 m 1,38,-1
 320 -64 l 1,39,-1
 256 -64 l 1,40,-1
 256 0 l 1,41,-1
 320 0 l 1,42,-1
 384 0 l 1,43,-1
 384 -64 l 1,44,-1
 448 -64 l 1,45,-1
 448 -128 l 1,46,-1
 384 -128 l 1,47,-1
 320 -128 l 1,38,-1
EndSplineSet
EndChar

StartChar: aogonek
Encoding: 261 261 247
Width: 512
GlyphClass: 1
Flags: W
LayerCount: 2
Fore
SplineSet
384 0 m 1,0,-1
 320 0 l 1,1,-1
 320 64 l 1,2,-1
 256 64 l 1,3,-1
 256 128 l 1,4,-1
 192 128 l 1,5,-1
 128 128 l 1,6,-1
 128 64 l 1,7,-1
 192 64 l 1,8,-1
 256 64 l 1,9,-1
 256 0 l 1,10,-1
 192 0 l 1,11,-1
 128 0 l 1,12,-1
 64 0 l 1,13,-1
 64 64 l 1,14,-1
 0 64 l 1,15,-1
 0 128 l 1,16,-1
 64 128 l 1,17,-1
 64 192 l 1,18,-1
 128 192 l 1,19,-1
 192 192 l 1,20,-1
 256 192 l 1,21,-1
 256 256 l 1,22,-1
 192 256 l 1,23,-1
 128 256 l 1,24,-1
 64 256 l 1,25,-1
 64 320 l 1,26,-1
 128 320 l 1,27,-1
 192 320 l 1,28,-1
 256 320 l 1,29,-1
 320 320 l 1,30,-1
 320 256 l 1,31,-1
 384 256 l 1,32,-1
 384 192 l 1,33,-1
 384 128 l 1,34,-1
 384 64 l 1,35,-1
 448 64 l 1,36,-1
 448 0 l 1,37,-1
 384 0 l 1,0,-1
384 -128 m 1,38,-1
 384 -64 l 1,39,-1
 320 -64 l 1,40,-1
 320 0 l 1,41,-1
 384 0 l 1,42,-1
 448 0 l 1,43,-1
 448 -64 l 1,44,-1
 512 -64 l 1,45,-1
 512 -128 l 1,46,-1
 448 -128 l 1,47,-1
 384 -128 l 1,38,-1
EndSplineSet
EndChar

StartChar: Cacute
Encoding: 262 262 248
Width: 448
GlyphClass: 1
Flags: W
LayerCount: 2
Fore
SplineSet
320 320 m 1,0,-1
 320 384 l 1,1,-1
 256 384 l 1,2,-1
 192 384 l 1,3,-1
 128 384 l 1,4,-1
 128 320 l 1,5,-1
 128 256 l 1,6,-1
 128 192 l 1,7,-1
 128 128 l 1,8,-1
 128 64 l 1,9,-1
 192 64 l 1,10,-1
 256 64 l 1,11,-1
 320 64 l 1,12,-1
 320 128 l 1,13,-1
 384 128 l 1,14,-1
 384 64 l 1,15,-1
 384 0 l 1,16,-1
 320 0 l 1,17,-1
 256 0 l 1,18,-1
 192 0 l 1,19,-1
 128 0 l 1,20,-1
 64 0 l 1,21,-1
 64 64 l 1,22,-1
 0 64 l 1,23,-1
 0 128 l 1,24,-1
 0 192 l 1,25,-1
 0 256 l 1,26,-1
 0 320 l 1,27,-1
 0 384 l 1,28,-1
 64 384 l 1,29,-1
 64 448 l 1,30,-1
 128 448 l 1,31,-1
 192 448 l 1,32,-1
 256 448 l 1,33,-1
 320 448 l 1,34,-1
 384 448 l 1,35,-1
 384 384 l 1,36,-1
 384 320 l 1,37,-1
 320 320 l 1,0,-1
192 640 m 1,38,-1
 192 576 l 1,39,-1
 128 576 l 1,40,-1
 128 512 l 1,41,-1
 256 512 l 1,42,-1
 256 576 l 1,43,-1
 320 576 l 1,44,-1
 320 640 l 1,45,-1
 192 640 l 1,38,-1
EndSplineSet
EndChar

StartChar: cacute
Encoding: 263 263 249
Width: 384
GlyphClass: 1
Flags: W
LayerCount: 2
Fore
SplineSet
256 192 m 1,0,-1
 256 256 l 1,1,-1
 192 256 l 1,2,-1
 128 256 l 1,3,-1
 128 192 l 1,4,-1
 128 128 l 1,5,-1
 128 64 l 1,6,-1
 192 64 l 1,7,-1
 256 64 l 1,8,-1
 256 128 l 1,9,-1
 320 128 l 1,10,-1
 320 64 l 1,11,-1
 320 0 l 1,12,-1
 256 0 l 1,13,-1
 192 0 l 1,14,-1
 128 0 l 1,15,-1
 64 0 l 1,16,-1
 64 64 l 1,17,-1
 0 64 l 1,18,-1
 0 128 l 1,19,-1
 0 192 l 1,20,-1
 0 256 l 1,21,-1
 64 256 l 1,22,-1
 64 320 l 1,23,-1
 128 320 l 1,24,-1
 192 320 l 1,25,-1
 256 320 l 1,26,-1
 320 320 l 1,27,-1
 320 256 l 1,28,-1
 320 192 l 1,29,-1
 256 192 l 1,0,-1
255 320 m 1,30,-1
 255 384 l 1,31,-1
 319 384 l 1,32,-1
 319 448 l 1,33,-1
 191 448 l 1,34,-1
 191 384 l 1,35,-1
 127 384 l 1,36,-1
 127 320 l 1,37,-1
 255 320 l 1,30,-1
EndSplineSet
EndChar

StartChar: Eogonek
Encoding: 280 280 250
Width: 448
GlyphClass: 1
Flags: W
LayerCount: 2
Fore
SplineSet
320 64 m 1,0,-1
 384 64 l 1,1,-1
 384 0 l 1,2,-1
 320 0 l 1,3,-1
 256 0 l 1,4,-1
 192 0 l 1,5,-1
 128 0 l 1,6,-1
 64 0 l 1,7,-1
 0 0 l 1,8,-1
 0 64 l 1,9,-1
 0 128 l 1,10,-1
 0 192 l 1,11,-1
 0 256 l 1,12,-1
 0 320 l 1,13,-1
 0 384 l 1,14,-1
 0 448 l 1,15,-1
 64 448 l 1,16,-1
 128 448 l 1,17,-1
 192 448 l 1,18,-1
 256 448 l 1,19,-1
 320 448 l 1,20,-1
 384 448 l 1,21,-1
 384 384 l 1,22,-1
 320 384 l 1,23,-1
 256 384 l 1,24,-1
 192 384 l 1,25,-1
 128 384 l 1,26,-1
 64 384 l 1,27,-1
 64 320 l 1,28,-1
 128 320 l 1,29,-1
 128 256 l 1,30,-1
 128 192 l 1,31,-1
 192 192 l 1,32,-1
 256 192 l 1,33,-1
 320 192 l 1,34,-1
 320 128 l 1,35,-1
 256 128 l 1,36,-1
 192 128 l 1,37,-1
 128 128 l 1,38,-1
 128 64 l 1,39,-1
 192 64 l 1,40,-1
 256 64 l 1,41,-1
 320 64 l 1,0,-1
320 -128 m 1,42,-1
 320 -64 l 1,43,-1
 256 -64 l 1,44,-1
 256 0 l 1,45,-1
 320 0 l 1,46,-1
 384 0 l 1,47,-1
 384 -64 l 1,48,-1
 448 -64 l 1,49,-1
 448 -128 l 1,50,-1
 384 -128 l 1,51,-1
 320 -128 l 1,42,-1
EndSplineSet
EndChar

StartChar: eogonek
Encoding: 281 281 251
Width: 448
GlyphClass: 1
Flags: W
LayerCount: 2
Fore
SplineSet
256 64 m 1,0,-1
 320 64 l 1,1,-1
 320 0 l 1,2,-1
 256 0 l 1,3,-1
 192 0 l 1,4,-1
 128 0 l 1,5,-1
 64 0 l 1,6,-1
 64 64 l 1,7,-1
 0 64 l 1,8,-1
 0 128 l 1,9,-1
 0 192 l 1,10,-1
 0 256 l 1,11,-1
 64 256 l 1,12,-1
 64 320 l 1,13,-1
 128 320 l 1,14,-1
 192 320 l 1,15,-1
 256 320 l 1,16,-1
 320 320 l 1,17,-1
 320 256 l 1,18,-1
 384 256 l 1,19,-1
 384 192 l 1,20,-1
 320 192 l 1,21,-1
 320 128 l 1,22,-1
 256 128 l 1,23,-1
 192 128 l 1,24,-1
 128 128 l 1,25,-1
 128 64 l 1,26,-1
 192 64 l 1,27,-1
 256 64 l 1,0,-1
192 192 m 1,28,-1
 256 192 l 1,29,-1
 256 256 l 1,30,-1
 192 256 l 1,31,-1
 128 256 l 1,32,-1
 128 192 l 1,33,-1
 192 192 l 1,28,-1
192 -128 m 1,34,-1
 192 -64 l 1,35,-1
 128 -64 l 1,36,-1
 128 0 l 1,37,-1
 192 0 l 1,38,-1
 256 0 l 1,39,-1
 256 -64 l 1,40,-1
 320 -64 l 1,41,-1
 320 -128 l 1,42,-1
 256 -128 l 1,43,-1
 192 -128 l 1,34,-1
EndSplineSet
EndChar

StartChar: Lslash
Encoding: 321 321 252
Width: 576
GlyphClass: 1
Flags: W
LayerCount: 2
Fore
SplineSet
448 64 m 1,0,-1
 512 64 l 1,1,-1
 512 0 l 1,2,-1
 448 0 l 1,3,-1
 384 0 l 1,4,-1
 320 0 l 1,5,-1
 256 0 l 1,6,-1
 192 0 l 1,7,-1
 128 0 l 1,8,-1
 128 64 l 1,9,-1
 128 128 l 1,10,-1
 128 192 l 1,11,-1
 128 256 l 1,12,-1
 128 320 l 1,13,-1
 128 384 l 1,14,-1
 128 448 l 1,15,-1
 192 448 l 1,16,-1
 256 448 l 1,17,-1
 256 384 l 1,18,-1
 192 384 l 1,19,-1
 192 320 l 1,20,-1
 256 320 l 1,21,-1
 256 256 l 1,22,-1
 256 192 l 1,23,-1
 256 128 l 1,24,-1
 256 64 l 1,25,-1
 320 64 l 1,26,-1
 384 64 l 1,27,-1
 448 64 l 1,0,-1
64 128 m 1,28,-1
 64 192 l 1,29,-1
 128 192 l 1,30,-1
 128 256 l 1,31,-1
 192 256 l 1,32,-1
 192 320 l 1,33,-1
 384 320 l 1,34,-1
 384 256 l 1,35,-1
 320 256 l 1,36,-1
 320 192 l 1,37,-1
 256 192 l 1,38,-1
 256 128 l 1,39,-1
 192 128 l 1,40,-1
 192 64 l 1,41,-1
 0 64 l 1,42,-1
 0 128 l 1,43,-1
 64 128 l 1,28,-1
EndSplineSet
EndChar

StartChar: lslash
Encoding: 322 322 253
Width: 448
GlyphClass: 1
Flags: W
LayerCount: 2
Fore
SplineSet
192 0 m 1,0,-1
 128 0 l 1,1,-1
 128 64 l 1,2,-1
 128 128 l 1,3,-1
 128 192 l 1,4,-1
 128 256 l 1,5,-1
 128 320 l 1,6,-1
 128 384 l 1,7,-1
 192 384 l 1,8,-1
 192 448 l 1,9,-1
 256 448 l 1,10,-1
 256 384 l 1,11,-1
 256 320 l 1,12,-1
 256 256 l 1,13,-1
 256 192 l 1,14,-1
 256 128 l 1,15,-1
 256 64 l 1,16,-1
 256 0 l 1,17,-1
 192 0 l 1,0,-1
64 128 m 1,18,-1
 64 192 l 1,19,-1
 128 192 l 1,20,-1
 128 256 l 1,21,-1
 192 256 l 1,22,-1
 192 320 l 1,23,-1
 384 320 l 1,24,-1
 384 256 l 1,25,-1
 320 256 l 1,26,-1
 320 192 l 1,27,-1
 256 192 l 1,28,-1
 256 128 l 1,29,-1
 192 128 l 1,30,-1
 192 64 l 1,31,-1
 0 64 l 1,32,-1
 0 128 l 1,33,-1
 64 128 l 1,18,-1
EndSplineSet
EndChar

StartChar: Nacute
Encoding: 323 323 254
Width: 448
GlyphClass: 1
Flags: W
LayerCount: 2
Fore
SplineSet
320 0 m 1,0,-1
 256 0 l 1,1,-1
 256 64 l 1,2,-1
 256 128 l 1,3,-1
 256 192 l 1,4,-1
 192 192 l 1,5,-1
 192 256 l 1,6,-1
 128 256 l 1,7,-1
 64 256 l 1,8,-1
 64 192 l 1,9,-1
 128 192 l 1,10,-1
 128 128 l 1,11,-1
 128 64 l 1,12,-1
 128 0 l 1,13,-1
 64 0 l 1,14,-1
 0 0 l 1,15,-1
 0 64 l 1,16,-1
 0 128 l 1,17,-1
 0 192 l 1,18,-1
 0 256 l 1,19,-1
 0 320 l 1,20,-1
 0 384 l 1,21,-1
 0 448 l 1,22,-1
 64 448 l 1,23,-1
 128 448 l 1,24,-1
 128 384 l 1,25,-1
 192 384 l 1,26,-1
 192 320 l 1,27,-1
 256 320 l 1,28,-1
 256 384 l 1,29,-1
 256 448 l 1,30,-1
 320 448 l 1,31,-1
 384 448 l 1,32,-1
 384 384 l 1,33,-1
 384 320 l 1,34,-1
 384 256 l 1,35,-1
 384 192 l 1,36,-1
 384 128 l 1,37,-1
 384 64 l 1,38,-1
 384 0 l 1,39,-1
 320 0 l 1,0,-1
192 640 m 1,40,-1
 192 576 l 1,41,-1
 128 576 l 1,42,-1
 128 512 l 1,43,-1
 256 512 l 1,44,-1
 256 576 l 1,45,-1
 320 576 l 1,46,-1
 320 640 l 1,47,-1
 192 640 l 1,40,-1
EndSplineSet
EndChar

StartChar: nacute
Encoding: 324 324 255
Width: 448
GlyphClass: 1
Flags: W
LayerCount: 2
Fore
SplineSet
256 0 m 1,0,-1
 256 64 l 1,1,-1
 256 128 l 1,2,-1
 256 192 l 1,3,-1
 256 256 l 1,4,-1
 192 256 l 1,5,-1
 128 256 l 1,6,-1
 128 192 l 1,7,-1
 128 128 l 1,8,-1
 128 64 l 1,9,-1
 128 0 l 1,10,-1
 64 0 l 1,11,-1
 0 0 l 1,12,-1
 0 64 l 1,13,-1
 0 128 l 1,14,-1
 0 192 l 1,15,-1
 0 256 l 1,16,-1
 0 320 l 1,17,-1
 64 320 l 1,18,-1
 64 256 l 1,19,-1
 128 256 l 1,20,-1
 128 320 l 1,21,-1
 192 320 l 1,22,-1
 256 320 l 1,23,-1
 320 320 l 1,24,-1
 320 256 l 1,25,-1
 384 256 l 1,26,-1
 384 192 l 1,27,-1
 384 128 l 1,28,-1
 384 64 l 1,29,-1
 320 64 l 1,30,-1
 320 0 l 1,31,-1
 256 0 l 1,0,-1
255 320 m 1,32,-1
 255 384 l 1,33,-1
 319 384 l 1,34,-1
 319 448 l 1,35,-1
 191 448 l 1,36,-1
 191 384 l 1,37,-1
 127 384 l 1,38,-1
 127 320 l 1,39,-1
 255 320 l 1,32,-1
EndSplineSet
EndChar

StartChar: Sacute
Encoding: 346 346 256
Width: 448
GlyphClass: 1
Flags: W
LayerCount: 2
Fore
SplineSet
320 320 m 1,0,-1
 320 384 l 1,1,-1
 256 384 l 1,2,-1
 192 384 l 1,3,-1
 128 384 l 1,4,-1
 128 320 l 1,5,-1
 128 256 l 1,6,-1
 192 256 l 1,7,-1
 256 256 l 1,8,-1
 320 256 l 1,9,-1
 384 256 l 1,10,-1
 384 192 l 1,11,-1
 384 128 l 1,12,-1
 384 64 l 1,13,-1
 320 64 l 1,14,-1
 320 0 l 1,15,-1
 256 0 l 1,16,-1
 192 0 l 1,17,-1
 128 0 l 1,18,-1
 64 0 l 1,19,-1
 0 0 l 1,20,-1
 0 64 l 1,21,-1
 0 128 l 1,22,-1
 64 128 l 1,23,-1
 64 64 l 1,24,-1
 128 64 l 1,25,-1
 192 64 l 1,26,-1
 256 64 l 1,27,-1
 256 128 l 1,28,-1
 256 192 l 1,29,-1
 192 192 l 1,30,-1
 128 192 l 1,31,-1
 64 192 l 1,32,-1
 0 192 l 1,33,-1
 0 256 l 1,34,-1
 0 320 l 1,35,-1
 0 384 l 1,36,-1
 64 384 l 1,37,-1
 64 448 l 1,38,-1
 128 448 l 1,39,-1
 192 448 l 1,40,-1
 256 448 l 1,41,-1
 320 448 l 1,42,-1
 384 448 l 1,43,-1
 384 384 l 1,44,-1
 384 320 l 1,45,-1
 320 320 l 1,0,-1
192 640 m 1,46,-1
 192 576 l 1,47,-1
 128 576 l 1,48,-1
 128 512 l 1,49,-1
 256 512 l 1,50,-1
 256 576 l 1,51,-1
 320 576 l 1,52,-1
 320 640 l 1,53,-1
 192 640 l 1,46,-1
EndSplineSet
EndChar

StartChar: sacute
Encoding: 347 347 257
Width: 384
GlyphClass: 1
Flags: W
LayerCount: 2
Fore
SplineSet
192 0 m 1,0,-1
 128 0 l 1,1,-1
 64 0 l 1,2,-1
 0 0 l 1,3,-1
 0 64 l 1,4,-1
 64 64 l 1,5,-1
 128 64 l 1,6,-1
 192 64 l 1,7,-1
 192 128 l 1,8,-1
 128 128 l 1,9,-1
 64 128 l 1,10,-1
 0 128 l 1,11,-1
 0 192 l 1,12,-1
 0 256 l 1,13,-1
 64 256 l 1,14,-1
 64 320 l 1,15,-1
 128 320 l 1,16,-1
 192 320 l 1,17,-1
 256 320 l 1,18,-1
 320 320 l 1,19,-1
 320 256 l 1,20,-1
 256 256 l 1,21,-1
 192 256 l 1,22,-1
 128 256 l 1,23,-1
 128 192 l 1,24,-1
 192 192 l 1,25,-1
 256 192 l 1,26,-1
 320 192 l 1,27,-1
 320 128 l 1,28,-1
 320 64 l 1,29,-1
 256 64 l 1,30,-1
 256 0 l 1,31,-1
 192 0 l 1,0,-1
255 320 m 1,32,-1
 255 384 l 1,33,-1
 319 384 l 1,34,-1
 319 448 l 1,35,-1
 191 448 l 1,36,-1
 191 384 l 1,37,-1
 127 384 l 1,38,-1
 127 320 l 1,39,-1
 255 320 l 1,32,-1
EndSplineSet
EndChar

StartChar: Zacute
Encoding: 377 377 258
Width: 448
GlyphClass: 1
Flags: W
LayerCount: 2
Fore
SplineSet
320 64 m 1,0,-1
 384 64 l 1,1,-1
 384 0 l 1,2,-1
 320 0 l 1,3,-1
 256 0 l 1,4,-1
 192 0 l 1,5,-1
 128 0 l 1,6,-1
 64 0 l 1,7,-1
 0 0 l 1,8,-1
 0 64 l 1,9,-1
 0 128 l 1,10,-1
 64 128 l 1,11,-1
 64 192 l 1,12,-1
 128 192 l 1,13,-1
 128 256 l 1,14,-1
 192 256 l 1,15,-1
 192 320 l 1,16,-1
 256 320 l 1,17,-1
 256 384 l 1,18,-1
 192 384 l 1,19,-1
 128 384 l 1,20,-1
 64 384 l 1,21,-1
 0 384 l 1,22,-1
 0 448 l 1,23,-1
 64 448 l 1,24,-1
 128 448 l 1,25,-1
 192 448 l 1,26,-1
 256 448 l 1,27,-1
 320 448 l 1,28,-1
 384 448 l 1,29,-1
 384 384 l 1,30,-1
 384 320 l 1,31,-1
 320 320 l 1,32,-1
 320 256 l 1,33,-1
 256 256 l 1,34,-1
 256 192 l 1,35,-1
 192 192 l 1,36,-1
 192 128 l 1,37,-1
 128 128 l 1,38,-1
 128 64 l 1,39,-1
 192 64 l 1,40,-1
 256 64 l 1,41,-1
 320 64 l 1,0,-1
192 640 m 1,42,-1
 192 576 l 1,43,-1
 128 576 l 1,44,-1
 128 512 l 1,45,-1
 256 512 l 1,46,-1
 256 576 l 1,47,-1
 320 576 l 1,48,-1
 320 640 l 1,49,-1
 192 640 l 1,42,-1
EndSplineSet
EndChar

StartChar: zacute
Encoding: 378 378 259
Width: 384
GlyphClass: 1
Flags: W
LayerCount: 2
Fore
SplineSet
256 64 m 1,0,-1
 320 64 l 1,1,-1
 320 0 l 1,2,-1
 256 0 l 1,3,-1
 192 0 l 1,4,-1
 128 0 l 1,5,-1
 64 0 l 1,6,-1
 0 0 l 1,7,-1
 0 64 l 1,8,-1
 0 128 l 1,9,-1
 64 128 l 1,10,-1
 64 192 l 1,11,-1
 128 192 l 1,12,-1
 192 192 l 1,13,-1
 192 256 l 1,14,-1
 128 256 l 1,15,-1
 64 256 l 1,16,-1
 0 256 l 1,17,-1
 0 320 l 1,18,-1
 64 320 l 1,19,-1
 128 320 l 1,20,-1
 192 320 l 1,21,-1
 256 320 l 1,22,-1
 320 320 l 1,23,-1
 320 256 l 1,24,-1
 320 192 l 1,25,-1
 256 192 l 1,26,-1
 256 128 l 1,27,-1
 192 128 l 1,28,-1
 128 128 l 1,29,-1
 128 64 l 1,30,-1
 192 64 l 1,31,-1
 256 64 l 1,0,-1
255 320 m 1,32,-1
 255 384 l 1,33,-1
 319 384 l 1,34,-1
 319 448 l 1,35,-1
 191 448 l 1,36,-1
 191 384 l 1,37,-1
 127 384 l 1,38,-1
 127 320 l 1,39,-1
 255 320 l 1,32,-1
EndSplineSet
EndChar

StartChar: Zdotaccent
Encoding: 379 379 260
Width: 448
GlyphClass: 1
Flags: W
LayerCount: 2
Fore
SplineSet
320 64 m 1,0,-1
 384 64 l 1,1,-1
 384 0 l 1,2,-1
 320 0 l 1,3,-1
 256 0 l 1,4,-1
 192 0 l 1,5,-1
 128 0 l 1,6,-1
 64 0 l 1,7,-1
 0 0 l 1,8,-1
 0 64 l 1,9,-1
 0 128 l 1,10,-1
 64 128 l 1,11,-1
 64 192 l 1,12,-1
 128 192 l 1,13,-1
 128 256 l 1,14,-1
 192 256 l 1,15,-1
 192 320 l 1,16,-1
 256 320 l 1,17,-1
 256 384 l 1,18,-1
 192 384 l 1,19,-1
 128 384 l 1,20,-1
 64 384 l 1,21,-1
 0 384 l 1,22,-1
 0 448 l 1,23,-1
 64 448 l 1,24,-1
 128 448 l 1,25,-1
 192 448 l 1,26,-1
 256 448 l 1,27,-1
 320 448 l 1,28,-1
 384 448 l 1,29,-1
 384 384 l 1,30,-1
 384 320 l 1,31,-1
 320 320 l 1,32,-1
 320 256 l 1,33,-1
 256 256 l 1,34,-1
 256 192 l 1,35,-1
 192 192 l 1,36,-1
 192 128 l 1,37,-1
 128 128 l 1,38,-1
 128 64 l 1,39,-1
 192 64 l 1,40,-1
 256 64 l 1,41,-1
 320 64 l 1,0,-1
160 576 m 1,42,-1
 160 512 l 1,43,-1
 160 512 l 1,44,-1
 160 512 l 1,45,-1
 224 512 l 1,46,-1
 224 512 l 1,47,-1
 288 512 l 1,48,-1
 288 576 l 1,49,-1
 160 576 l 1,42,-1
EndSplineSet
EndChar

